<svg width="1363" height="301" viewBox="0 0 1363 301" fill="none" xmlns="http://www.w3.org/2000/svg">
<rect width="1363" height="301" rx="15" fill="#F0F0F0"/>
<path d="M0 15C0 6.71573 6.71573 0 15 0H37V301H15C6.71573 301 0 294.284 0 286V15Z" fill="#F09A2A"/>
<path d="M115.123 133.607C115.123 132.998 115.033 132.452 114.854 131.969C114.675 131.467 114.344 131.002 113.86 130.572C113.377 130.143 112.679 129.713 111.766 129.283C110.87 128.836 109.689 128.37 108.221 127.887C106.502 127.314 104.846 126.669 103.252 125.953C101.659 125.219 100.236 124.369 98.9824 123.402C97.7292 122.417 96.7355 121.271 96.0015 119.964C95.2674 118.639 94.9004 117.1 94.9004 115.345C94.9004 113.662 95.2764 112.149 96.0283 110.807C96.7803 109.446 97.8276 108.291 99.1704 107.342C100.531 106.375 102.125 105.641 103.951 105.14C105.777 104.621 107.773 104.361 109.939 104.361C112.804 104.361 115.328 104.863 117.513 105.865C119.715 106.85 121.434 108.255 122.669 110.082C123.922 111.89 124.549 114.029 124.549 116.5H115.176C115.176 115.515 114.97 114.647 114.559 113.895C114.165 113.143 113.565 112.552 112.759 112.123C111.954 111.693 110.942 111.478 109.725 111.478C108.543 111.478 107.549 111.657 106.744 112.015C105.938 112.373 105.329 112.857 104.917 113.465C104.506 114.056 104.3 114.71 104.3 115.426C104.3 116.017 104.461 116.554 104.783 117.037C105.123 117.503 105.598 117.941 106.207 118.353C106.833 118.765 107.585 119.159 108.462 119.535C109.358 119.911 110.36 120.278 111.47 120.636C113.547 121.298 115.391 122.041 117.002 122.865C118.632 123.67 120.001 124.592 121.111 125.631C122.239 126.651 123.09 127.815 123.663 129.122C124.253 130.429 124.549 131.906 124.549 133.553C124.549 135.308 124.209 136.865 123.528 138.226C122.848 139.587 121.872 140.742 120.601 141.69C119.33 142.621 117.808 143.329 116.036 143.812C114.263 144.295 112.285 144.537 110.101 144.537C108.095 144.537 106.117 144.286 104.166 143.785C102.232 143.266 100.477 142.478 98.9019 141.422C97.3263 140.348 96.0641 138.978 95.1152 137.313C94.1842 135.63 93.7188 133.634 93.7188 131.324H103.172C103.172 132.47 103.324 133.437 103.628 134.225C103.933 135.012 104.38 135.648 104.971 136.131C105.562 136.597 106.287 136.937 107.146 137.152C108.006 137.349 108.991 137.447 110.101 137.447C111.3 137.447 112.267 137.277 113.001 136.937C113.735 136.579 114.272 136.113 114.612 135.541C114.952 134.95 115.123 134.305 115.123 133.607ZM127.852 129.767V129.203C127.852 127.072 128.156 125.112 128.765 123.321C129.374 121.513 130.269 119.946 131.451 118.622C132.632 117.297 134.091 116.267 135.828 115.533C137.565 114.781 139.57 114.405 141.844 114.405C144.135 114.405 146.15 114.781 147.886 115.533C149.641 116.267 151.109 117.297 152.291 118.622C153.472 119.946 154.367 121.513 154.976 123.321C155.585 125.112 155.889 127.072 155.889 129.203V129.767C155.889 131.879 155.585 133.84 154.976 135.648C154.367 137.438 153.472 139.005 152.291 140.348C151.109 141.673 149.65 142.702 147.913 143.436C146.176 144.17 144.171 144.537 141.897 144.537C139.624 144.537 137.61 144.17 135.855 143.436C134.1 142.702 132.632 141.673 131.451 140.348C130.269 139.005 129.374 137.438 128.765 135.648C128.156 133.84 127.852 131.879 127.852 129.767ZM136.902 129.203V129.767C136.902 130.859 136.983 131.879 137.144 132.828C137.305 133.777 137.574 134.61 137.95 135.326C138.326 136.024 138.836 136.57 139.48 136.964C140.125 137.358 140.931 137.555 141.897 137.555C142.846 137.555 143.634 137.358 144.261 136.964C144.905 136.57 145.416 136.024 145.792 135.326C146.167 134.61 146.436 133.777 146.597 132.828C146.758 131.879 146.839 130.859 146.839 129.767V129.203C146.839 128.146 146.758 127.153 146.597 126.222C146.436 125.273 146.167 124.44 145.792 123.724C145.416 122.99 144.905 122.417 144.261 122.005C143.616 121.594 142.811 121.388 141.844 121.388C140.895 121.388 140.098 121.594 139.454 122.005C138.827 122.417 138.326 122.99 137.95 123.724C137.574 124.44 137.305 125.273 137.144 126.222C136.983 127.153 136.902 128.146 136.902 129.203ZM169.478 102.75V144H160.401V102.75H169.478ZM190.157 136.695V124.718C190.157 123.894 190.04 123.187 189.808 122.596C189.575 122.005 189.208 121.549 188.707 121.227C188.205 120.886 187.534 120.716 186.692 120.716C186.012 120.716 185.43 120.833 184.947 121.065C184.463 121.298 184.096 121.647 183.846 122.113C183.595 122.578 183.47 123.169 183.47 123.885H174.419C174.419 122.542 174.715 121.298 175.306 120.152C175.914 118.989 176.774 117.977 177.884 117.118C179.012 116.258 180.354 115.596 181.912 115.13C183.488 114.647 185.242 114.405 187.176 114.405C189.485 114.405 191.544 114.79 193.353 115.56C195.179 116.33 196.62 117.485 197.676 119.024C198.733 120.546 199.261 122.462 199.261 124.771V136.668C199.261 138.566 199.368 140.007 199.583 140.992C199.798 141.959 200.102 142.809 200.496 143.543V144H191.419C190.989 143.105 190.667 142.013 190.452 140.724C190.255 139.417 190.157 138.074 190.157 136.695ZM191.258 126.249L191.312 131.083H187.31C186.469 131.083 185.752 131.199 185.162 131.432C184.589 131.664 184.123 131.987 183.765 132.398C183.425 132.792 183.174 133.24 183.013 133.741C182.87 134.243 182.798 134.771 182.798 135.326C182.798 135.863 182.924 136.346 183.174 136.776C183.443 137.188 183.801 137.51 184.249 137.743C184.696 137.975 185.197 138.092 185.752 138.092C186.755 138.092 187.605 137.904 188.304 137.528C189.02 137.134 189.566 136.66 189.942 136.104C190.318 135.549 190.506 135.03 190.506 134.547L192.493 138.253C192.135 138.969 191.723 139.694 191.258 140.428C190.81 141.162 190.246 141.843 189.566 142.469C188.903 143.078 188.089 143.579 187.122 143.973C186.155 144.349 184.983 144.537 183.604 144.537C181.814 144.537 180.167 144.17 178.663 143.436C177.177 142.702 175.986 141.681 175.091 140.375C174.196 139.05 173.748 137.528 173.748 135.809C173.748 134.305 174.017 132.962 174.554 131.781C175.109 130.599 175.941 129.597 177.051 128.773C178.161 127.949 179.576 127.323 181.294 126.893C183.013 126.463 185.036 126.249 187.364 126.249H191.258ZM213.414 122.14V144H204.363V114.942H212.823L213.414 122.14ZM222.007 114.728L221.846 123.133C221.488 123.097 221.005 123.053 220.396 122.999C219.787 122.945 219.277 122.918 218.865 122.918C217.809 122.918 216.896 123.044 216.126 123.294C215.374 123.527 214.747 123.885 214.246 124.369C213.763 124.834 213.405 125.425 213.172 126.141C212.957 126.857 212.859 127.69 212.876 128.639L211.238 127.564C211.238 125.613 211.426 123.84 211.802 122.247C212.196 120.636 212.751 119.248 213.467 118.084C214.183 116.903 215.052 115.999 216.072 115.372C217.093 114.728 218.239 114.405 219.51 114.405C219.957 114.405 220.396 114.432 220.826 114.486C221.273 114.54 221.667 114.62 222.007 114.728ZM223.028 129.767V129.203C223.028 127.072 223.332 125.112 223.941 123.321C224.55 121.513 225.445 119.946 226.626 118.622C227.808 117.297 229.267 116.267 231.004 115.533C232.741 114.781 234.746 114.405 237.02 114.405C239.311 114.405 241.325 114.781 243.062 115.533C244.817 116.267 246.285 117.297 247.466 118.622C248.648 119.946 249.543 121.513 250.152 123.321C250.761 125.112 251.065 127.072 251.065 129.203V129.767C251.065 131.879 250.761 133.84 250.152 135.648C249.543 137.438 248.648 139.005 247.466 140.348C246.285 141.673 244.826 142.702 243.089 143.436C241.352 144.17 239.347 144.537 237.073 144.537C234.799 144.537 232.785 144.17 231.031 143.436C229.276 142.702 227.808 141.673 226.626 140.348C225.445 139.005 224.55 137.438 223.941 135.648C223.332 133.84 223.028 131.879 223.028 129.767ZM232.078 129.203V129.767C232.078 130.859 232.159 131.879 232.32 132.828C232.481 133.777 232.75 134.61 233.125 135.326C233.501 136.024 234.012 136.57 234.656 136.964C235.301 137.358 236.106 137.555 237.073 137.555C238.022 137.555 238.81 137.358 239.437 136.964C240.081 136.57 240.591 136.024 240.967 135.326C241.343 134.61 241.612 133.777 241.773 132.828C241.934 131.879 242.015 130.859 242.015 129.767V129.203C242.015 128.146 241.934 127.153 241.773 126.222C241.612 125.273 241.343 124.44 240.967 123.724C240.591 122.99 240.081 122.417 239.437 122.005C238.792 121.594 237.986 121.388 237.02 121.388C236.071 121.388 235.274 121.594 234.629 122.005C234.003 122.417 233.501 122.99 233.125 123.724C232.75 124.44 232.481 125.273 232.32 126.222C232.159 127.153 232.078 128.146 232.078 129.203Z" fill="black"/>
<path d="M105.347 55.1172V80H100.237V55.1172H105.347ZM113.003 55.1172V59.1333H92.7007V55.1172H113.003ZM123.001 75.8301V67.5928C123.001 67.0003 122.904 66.4933 122.71 66.0718C122.517 65.6388 122.215 65.3027 121.805 65.0635C121.406 64.8242 120.888 64.7046 120.25 64.7046C119.703 64.7046 119.23 64.8014 118.831 64.9951C118.432 65.1774 118.125 65.4451 117.908 65.7983C117.692 66.1401 117.583 66.5446 117.583 67.0117H112.662C112.662 66.2256 112.844 65.4793 113.208 64.7729C113.573 64.0666 114.103 63.4456 114.798 62.9102C115.493 62.3633 116.319 61.936 117.276 61.6284C118.244 61.3208 119.327 61.167 120.523 61.167C121.958 61.167 123.235 61.4062 124.351 61.8848C125.468 62.3633 126.345 63.0811 126.983 64.0381C127.632 64.9951 127.957 66.1914 127.957 67.627V75.5396C127.957 76.5535 128.02 77.3853 128.145 78.0347C128.27 78.6727 128.453 79.231 128.692 79.7095V80H123.719C123.479 79.4987 123.297 78.8721 123.172 78.1201C123.058 77.3568 123.001 76.5934 123.001 75.8301ZM123.65 68.7378L123.685 71.5234H120.933C120.284 71.5234 119.72 71.5975 119.241 71.7456C118.763 71.8937 118.37 72.1045 118.062 72.3779C117.754 72.64 117.527 72.9476 117.378 73.3008C117.242 73.654 117.173 74.0413 117.173 74.4629C117.173 74.8844 117.27 75.2661 117.464 75.6079C117.658 75.9383 117.937 76.2004 118.301 76.394C118.666 76.5763 119.093 76.6675 119.583 76.6675C120.324 76.6675 120.967 76.5194 121.514 76.2231C122.061 75.9269 122.483 75.5623 122.779 75.1294C123.086 74.6965 123.246 74.2863 123.257 73.8989L124.556 75.9839C124.374 76.451 124.123 76.9352 123.804 77.4365C123.497 77.9378 123.104 78.4106 122.625 78.855C122.146 79.2879 121.571 79.6468 120.899 79.9316C120.227 80.2051 119.429 80.3418 118.506 80.3418C117.333 80.3418 116.268 80.1082 115.311 79.6411C114.365 79.1626 113.613 78.5075 113.055 77.6758C112.508 76.8327 112.234 75.8757 112.234 74.8047C112.234 73.8363 112.417 72.9761 112.781 72.2241C113.146 71.4722 113.681 70.8398 114.388 70.3271C115.105 69.8031 116 69.41 117.071 69.1479C118.142 68.8745 119.384 68.7378 120.796 68.7378H123.65ZM136.553 53.75V80H131.631V53.75H136.553ZM135.853 70.105H134.502C134.514 68.8175 134.685 67.6326 135.015 66.5503C135.346 65.4565 135.818 64.5109 136.434 63.7134C137.049 62.9045 137.784 62.2778 138.638 61.8335C139.504 61.3892 140.461 61.167 141.509 61.167C142.421 61.167 143.247 61.298 143.987 61.5601C144.739 61.8107 145.383 62.2209 145.918 62.7905C146.465 63.3488 146.887 64.0837 147.183 64.9951C147.479 65.9066 147.627 67.0117 147.627 68.3105V80H142.671V68.2764C142.671 67.4561 142.552 66.8123 142.312 66.3452C142.085 65.8667 141.749 65.5306 141.304 65.3369C140.871 65.1318 140.336 65.0293 139.698 65.0293C138.991 65.0293 138.388 65.1603 137.886 65.4224C137.396 65.6844 137.003 66.049 136.707 66.5161C136.411 66.9718 136.194 67.5073 136.058 68.1226C135.921 68.7378 135.853 69.3986 135.853 70.105ZM161.351 75.8301V67.5928C161.351 67.0003 161.254 66.4933 161.06 66.0718C160.866 65.6388 160.564 65.3027 160.154 65.0635C159.756 64.8242 159.237 64.7046 158.599 64.7046C158.052 64.7046 157.579 64.8014 157.181 64.9951C156.782 65.1774 156.474 65.4451 156.258 65.7983C156.041 66.1401 155.933 66.5446 155.933 67.0117H151.011C151.011 66.2256 151.194 65.4793 151.558 64.7729C151.923 64.0666 152.452 63.4456 153.147 62.9102C153.842 62.3633 154.668 61.936 155.625 61.6284C156.594 61.3208 157.676 61.167 158.873 61.167C160.308 61.167 161.584 61.4062 162.701 61.8848C163.817 62.3633 164.694 63.0811 165.333 64.0381C165.982 64.9951 166.307 66.1914 166.307 67.627V75.5396C166.307 76.5535 166.369 77.3853 166.495 78.0347C166.62 78.6727 166.802 79.231 167.042 79.7095V80H162.068C161.829 79.4987 161.647 78.8721 161.521 78.1201C161.408 77.3568 161.351 76.5934 161.351 75.8301ZM162 68.7378L162.034 71.5234H159.283C158.633 71.5234 158.069 71.5975 157.591 71.7456C157.112 71.8937 156.719 72.1045 156.412 72.3779C156.104 72.64 155.876 72.9476 155.728 73.3008C155.591 73.654 155.523 74.0413 155.523 74.4629C155.523 74.8844 155.62 75.2661 155.813 75.6079C156.007 75.9383 156.286 76.2004 156.651 76.394C157.015 76.5763 157.443 76.6675 157.933 76.6675C158.673 76.6675 159.317 76.5194 159.864 76.2231C160.411 75.9269 160.832 75.5623 161.128 75.1294C161.436 74.6965 161.596 74.2863 161.607 73.8989L162.906 75.9839C162.723 76.451 162.473 76.9352 162.154 77.4365C161.846 77.9378 161.453 78.4106 160.975 78.855C160.496 79.2879 159.921 79.6468 159.249 79.9316C158.576 80.2051 157.779 80.3418 156.856 80.3418C155.682 80.3418 154.617 80.1082 153.66 79.6411C152.715 79.1626 151.963 78.5075 151.404 77.6758C150.857 76.8327 150.584 75.8757 150.584 74.8047C150.584 73.8363 150.766 72.9761 151.131 72.2241C151.495 71.4722 152.031 70.8398 152.737 70.3271C153.455 69.8031 154.349 69.41 155.42 69.1479C156.491 68.8745 157.733 68.7378 159.146 68.7378H162ZM189.327 55.1172V80H184.217V55.1172H189.327ZM196.983 55.1172V59.1333H176.68V55.1172H196.983ZM206.98 75.8301V67.5928C206.98 67.0003 206.884 66.4933 206.69 66.0718C206.496 65.6388 206.194 65.3027 205.784 65.0635C205.385 64.8242 204.867 64.7046 204.229 64.7046C203.682 64.7046 203.209 64.8014 202.811 64.9951C202.412 65.1774 202.104 65.4451 201.888 65.7983C201.671 66.1401 201.563 66.5446 201.563 67.0117H196.641C196.641 66.2256 196.823 65.4793 197.188 64.7729C197.553 64.0666 198.082 63.4456 198.777 62.9102C199.472 62.3633 200.298 61.936 201.255 61.6284C202.224 61.3208 203.306 61.167 204.502 61.167C205.938 61.167 207.214 61.4062 208.331 61.8848C209.447 62.3633 210.324 63.0811 210.962 64.0381C211.612 64.9951 211.937 66.1914 211.937 67.627V75.5396C211.937 76.5535 211.999 77.3853 212.125 78.0347C212.25 78.6727 212.432 79.231 212.671 79.7095V80H207.698C207.459 79.4987 207.277 78.8721 207.151 78.1201C207.037 77.3568 206.98 76.5934 206.98 75.8301ZM207.63 68.7378L207.664 71.5234H204.913C204.263 71.5234 203.699 71.5975 203.221 71.7456C202.742 71.8937 202.349 72.1045 202.042 72.3779C201.734 72.64 201.506 72.9476 201.358 73.3008C201.221 73.654 201.153 74.0413 201.153 74.4629C201.153 74.8844 201.25 75.2661 201.443 75.6079C201.637 75.9383 201.916 76.2004 202.281 76.394C202.645 76.5763 203.073 76.6675 203.562 76.6675C204.303 76.6675 204.947 76.5194 205.494 76.2231C206.041 75.9269 206.462 75.5623 206.758 75.1294C207.066 74.6965 207.225 74.2863 207.237 73.8989L208.536 75.9839C208.353 76.451 208.103 76.9352 207.784 77.4365C207.476 77.9378 207.083 78.4106 206.604 78.855C206.126 79.2879 205.551 79.6468 204.878 79.9316C204.206 80.2051 203.409 80.3418 202.486 80.3418C201.312 80.3418 200.247 80.1082 199.29 79.6411C198.344 79.1626 197.592 78.5075 197.034 77.6758C196.487 76.8327 196.214 75.8757 196.214 74.8047C196.214 73.8363 196.396 72.9761 196.761 72.2241C197.125 71.4722 197.661 70.8398 198.367 70.3271C199.085 69.8031 199.979 69.41 201.05 69.1479C202.121 68.8745 203.363 68.7378 204.776 68.7378H207.63ZM220.533 53.75V80H215.611V53.75H220.533ZM219.832 70.105H218.482C218.493 68.8175 218.664 67.6326 218.995 66.5503C219.325 65.4565 219.798 64.5109 220.413 63.7134C221.028 62.9045 221.763 62.2778 222.618 61.8335C223.484 61.3892 224.441 61.167 225.489 61.167C226.4 61.167 227.226 61.298 227.967 61.5601C228.719 61.8107 229.362 62.2209 229.898 62.7905C230.445 63.3488 230.866 64.0837 231.163 64.9951C231.459 65.9066 231.607 67.0117 231.607 68.3105V80H226.651V68.2764C226.651 67.4561 226.531 66.8123 226.292 66.3452C226.064 65.8667 225.728 65.5306 225.284 65.3369C224.851 65.1318 224.315 65.0293 223.677 65.0293C222.971 65.0293 222.367 65.1603 221.866 65.4224C221.376 65.6844 220.983 66.049 220.687 66.5161C220.39 66.9718 220.174 67.5073 220.037 68.1226C219.9 68.7378 219.832 69.3986 219.832 70.105ZM245.33 75.8301V67.5928C245.33 67.0003 245.233 66.4933 245.04 66.0718C244.846 65.6388 244.544 65.3027 244.134 65.0635C243.735 64.8242 243.217 64.7046 242.579 64.7046C242.032 64.7046 241.559 64.8014 241.16 64.9951C240.761 65.1774 240.454 65.4451 240.237 65.7983C240.021 66.1401 239.913 66.5446 239.913 67.0117H234.991C234.991 66.2256 235.173 65.4793 235.538 64.7729C235.902 64.0666 236.432 63.4456 237.127 62.9102C237.822 62.3633 238.648 61.936 239.605 61.6284C240.573 61.3208 241.656 61.167 242.852 61.167C244.288 61.167 245.564 61.4062 246.68 61.8848C247.797 62.3633 248.674 63.0811 249.312 64.0381C249.961 64.9951 250.286 66.1914 250.286 67.627V75.5396C250.286 76.5535 250.349 77.3853 250.474 78.0347C250.599 78.6727 250.782 79.231 251.021 79.7095V80H246.048C245.809 79.4987 245.626 78.8721 245.501 78.1201C245.387 77.3568 245.33 76.5934 245.33 75.8301ZM245.979 68.7378L246.014 71.5234H243.262C242.613 71.5234 242.049 71.5975 241.57 71.7456C241.092 71.8937 240.699 72.1045 240.391 72.3779C240.083 72.64 239.856 72.9476 239.708 73.3008C239.571 73.654 239.502 74.0413 239.502 74.4629C239.502 74.8844 239.599 75.2661 239.793 75.6079C239.987 75.9383 240.266 76.2004 240.63 76.394C240.995 76.5763 241.422 76.6675 241.912 76.6675C242.653 76.6675 243.296 76.5194 243.843 76.2231C244.39 75.9269 244.812 75.5623 245.108 75.1294C245.416 74.6965 245.575 74.2863 245.586 73.8989L246.885 75.9839C246.703 76.451 246.452 76.9352 246.133 77.4365C245.826 77.9378 245.433 78.4106 244.954 78.855C244.476 79.2879 243.9 79.6468 243.228 79.9316C242.556 80.2051 241.758 80.3418 240.835 80.3418C239.662 80.3418 238.597 80.1082 237.64 79.6411C236.694 79.1626 235.942 78.5075 235.384 77.6758C234.837 76.8327 234.563 75.8757 234.563 74.8047C234.563 73.8363 234.746 72.9761 235.11 72.2241C235.475 71.4722 236.01 70.8398 236.717 70.3271C237.435 69.8031 238.329 69.41 239.4 69.1479C240.471 68.8745 241.713 68.7378 243.125 68.7378H245.979Z" fill="#888888"/>
<rect x="92" y="181" width="1179" height="80" rx="13.3333" fill="#CCCCCC"/>
<rect x="107" y="196.333" width="208" height="49.3333" rx="4.66667" fill="#888888" stroke="#888888" stroke-width="4"/>
<path d="M183.833 213.167V228.333H180.177V213.167H183.833ZM189.729 219.479V222.292H182.792V219.479H189.729ZM190.323 213.167V215.99H182.792V213.167H190.323ZM195.385 212.333V228.333H191.865V212.333H195.385ZM204.135 225.594V217.062H207.656V228.333H204.365L204.135 225.594ZM204.469 223.302L205.385 223.281C205.385 224.038 205.295 224.74 205.115 225.385C204.934 226.024 204.667 226.58 204.313 227.052C203.965 227.524 203.535 227.892 203.021 228.156C202.514 228.413 201.927 228.542 201.26 228.542C200.705 228.542 200.194 228.465 199.729 228.312C199.271 228.153 198.875 227.906 198.542 227.573C198.208 227.233 197.948 226.799 197.76 226.271C197.58 225.736 197.49 225.097 197.49 224.354V217.062H201V224.375C201 224.625 201.031 224.84 201.094 225.021C201.156 225.201 201.247 225.354 201.365 225.479C201.483 225.597 201.628 225.687 201.802 225.75C201.983 225.806 202.188 225.833 202.417 225.833C202.944 225.833 203.358 225.722 203.656 225.5C203.955 225.278 204.163 224.976 204.281 224.594C204.406 224.212 204.469 223.781 204.469 223.302ZM215.531 217.062V219.5H208.74V217.062H215.531ZM210.167 214.26H213.677V224.656C213.677 224.955 213.712 225.187 213.781 225.354C213.851 225.514 213.969 225.628 214.135 225.698C214.309 225.76 214.538 225.792 214.823 225.792C215.024 225.792 215.191 225.788 215.323 225.781C215.455 225.767 215.58 225.75 215.698 225.729V228.24C215.399 228.337 215.087 228.41 214.76 228.458C214.434 228.514 214.087 228.542 213.719 228.542C212.969 228.542 212.326 228.424 211.792 228.187C211.264 227.951 210.861 227.58 210.583 227.073C210.306 226.566 210.167 225.906 210.167 225.094V214.26ZM222.865 217.062V219.5H216.073V217.062H222.865ZM217.5 214.26H221.01V224.656C221.01 224.955 221.045 225.187 221.115 225.354C221.184 225.514 221.302 225.628 221.469 225.698C221.642 225.76 221.872 225.792 222.156 225.792C222.358 225.792 222.524 225.788 222.656 225.781C222.788 225.767 222.913 225.75 223.031 225.729V228.24C222.733 228.337 222.42 228.41 222.094 228.458C221.767 228.514 221.42 228.542 221.052 228.542C220.302 228.542 219.66 228.424 219.125 228.187C218.597 227.951 218.194 227.58 217.917 227.073C217.639 226.566 217.5 225.906 217.5 225.094V214.26ZM229.719 228.542C228.802 228.542 227.983 228.399 227.26 228.115C226.538 227.823 225.927 227.424 225.427 226.917C224.934 226.41 224.556 225.826 224.292 225.167C224.035 224.507 223.906 223.809 223.906 223.073V222.677C223.906 221.851 224.021 221.087 224.25 220.385C224.479 219.677 224.819 219.059 225.271 218.531C225.722 218.003 226.288 217.594 226.969 217.302C227.649 217.003 228.441 216.854 229.344 216.854C230.142 216.854 230.858 216.983 231.49 217.24C232.122 217.497 232.656 217.865 233.094 218.344C233.538 218.823 233.875 219.403 234.104 220.083C234.34 220.764 234.458 221.528 234.458 222.375V223.802H225.25V221.604H231.031V221.333C231.038 220.958 230.972 220.639 230.833 220.375C230.701 220.111 230.507 219.91 230.25 219.771C229.993 219.632 229.681 219.562 229.312 219.562C228.931 219.562 228.615 219.646 228.365 219.812C228.122 219.979 227.931 220.208 227.792 220.5C227.66 220.785 227.566 221.115 227.51 221.49C227.455 221.865 227.427 222.26 227.427 222.677V223.073C227.427 223.49 227.483 223.868 227.594 224.208C227.712 224.549 227.878 224.84 228.094 225.083C228.316 225.319 228.58 225.503 228.885 225.635C229.198 225.767 229.552 225.833 229.948 225.833C230.427 225.833 230.899 225.743 231.365 225.562C231.83 225.382 232.229 225.083 232.562 224.667L234.156 226.562C233.927 226.889 233.601 227.205 233.177 227.51C232.76 227.816 232.26 228.066 231.677 228.26C231.094 228.448 230.441 228.542 229.719 228.542ZM239.427 219.854V228.333H235.917V217.062H239.198L239.427 219.854ZM242.76 216.979L242.698 220.24C242.559 220.226 242.372 220.208 242.135 220.187C241.899 220.167 241.701 220.156 241.542 220.156C241.132 220.156 240.778 220.205 240.479 220.302C240.187 220.392 239.944 220.531 239.75 220.719C239.562 220.899 239.424 221.128 239.333 221.406C239.25 221.684 239.212 222.007 239.219 222.375L238.583 221.958C238.583 221.201 238.656 220.514 238.802 219.896C238.955 219.271 239.17 218.733 239.448 218.281C239.726 217.823 240.062 217.472 240.458 217.229C240.854 216.979 241.299 216.854 241.792 216.854C241.965 216.854 242.135 216.865 242.302 216.885C242.476 216.906 242.628 216.937 242.76 216.979Z" fill="white"/>
<rect x="339" y="196.333" width="208" height="49.3333" rx="4.66667" fill="#888888" stroke="#888888" stroke-width="4"/>
<path d="M418.844 213.167V228.333H415.198L409.833 218.896V228.333H406.177V213.167H409.833L415.198 222.604V213.167H418.844ZM420.552 222.812V222.594C420.552 221.767 420.67 221.007 420.906 220.312C421.142 219.611 421.49 219.003 421.948 218.49C422.406 217.976 422.972 217.576 423.646 217.292C424.319 217 425.097 216.854 425.979 216.854C426.868 216.854 427.649 217 428.323 217.292C429.003 217.576 429.573 217.976 430.031 218.49C430.49 219.003 430.837 219.611 431.073 220.312C431.309 221.007 431.427 221.767 431.427 222.594V222.812C431.427 223.632 431.309 224.392 431.073 225.094C430.837 225.788 430.49 226.396 430.031 226.917C429.573 227.431 429.007 227.83 428.333 228.115C427.66 228.399 426.882 228.542 426 228.542C425.118 228.542 424.337 228.399 423.656 228.115C422.976 227.83 422.406 227.431 421.948 226.917C421.49 226.396 421.142 225.788 420.906 225.094C420.67 224.392 420.552 223.632 420.552 222.812ZM424.062 222.594V222.812C424.062 223.236 424.094 223.632 424.156 224C424.219 224.368 424.323 224.691 424.469 224.969C424.615 225.24 424.812 225.451 425.062 225.604C425.312 225.757 425.625 225.833 426 225.833C426.368 225.833 426.674 225.757 426.917 225.604C427.167 225.451 427.365 225.24 427.51 224.969C427.656 224.691 427.76 224.368 427.823 224C427.885 223.632 427.917 223.236 427.917 222.812V222.594C427.917 222.184 427.885 221.799 427.823 221.437C427.76 221.069 427.656 220.747 427.51 220.469C427.365 220.184 427.167 219.962 426.917 219.802C426.667 219.642 426.354 219.562 425.979 219.562C425.611 219.562 425.302 219.642 425.052 219.802C424.809 219.962 424.615 220.184 424.469 220.469C424.323 220.747 424.219 221.069 424.156 221.437C424.094 221.799 424.062 222.184 424.062 222.594ZM439.469 225.75V212.333H443V228.333H439.833L439.469 225.75ZM432.552 222.833V222.615C432.552 221.76 432.646 220.983 432.833 220.281C433.021 219.573 433.299 218.965 433.667 218.458C434.035 217.944 434.493 217.549 435.042 217.271C435.59 216.993 436.222 216.854 436.938 216.854C437.576 216.854 438.135 217.003 438.615 217.302C439.094 217.594 439.503 218.003 439.844 218.531C440.184 219.059 440.462 219.677 440.677 220.385C440.892 221.087 441.056 221.844 441.167 222.656V222.917C441.056 223.681 440.892 224.403 440.677 225.083C440.462 225.757 440.184 226.354 439.844 226.875C439.503 227.396 439.09 227.806 438.604 228.104C438.125 228.396 437.563 228.542 436.917 228.542C436.201 228.542 435.569 228.399 435.021 228.115C434.479 227.83 434.024 227.431 433.656 226.917C433.295 226.403 433.021 225.799 432.833 225.104C432.646 224.41 432.552 223.653 432.552 222.833ZM436.063 222.615V222.833C436.063 223.257 436.09 223.649 436.146 224.01C436.201 224.372 436.295 224.691 436.427 224.969C436.566 225.24 436.747 225.451 436.969 225.604C437.198 225.757 437.479 225.833 437.813 225.833C438.264 225.833 438.635 225.726 438.927 225.51C439.226 225.295 439.444 224.99 439.583 224.594C439.729 224.198 439.792 223.733 439.771 223.198V222.375C439.785 221.917 439.753 221.514 439.677 221.167C439.601 220.812 439.479 220.517 439.313 220.281C439.153 220.045 438.948 219.868 438.698 219.75C438.455 219.625 438.167 219.562 437.833 219.562C437.507 219.562 437.229 219.639 437 219.792C436.778 219.944 436.597 220.16 436.458 220.437C436.319 220.708 436.219 221.031 436.156 221.406C436.094 221.774 436.063 222.177 436.063 222.615ZM450.448 228.542C449.531 228.542 448.712 228.399 447.99 228.115C447.267 227.823 446.656 227.424 446.156 226.917C445.663 226.41 445.285 225.826 445.021 225.167C444.764 224.507 444.635 223.809 444.635 223.073V222.677C444.635 221.851 444.75 221.087 444.979 220.385C445.208 219.677 445.549 219.059 446 218.531C446.451 218.003 447.017 217.594 447.698 217.302C448.378 217.003 449.17 216.854 450.073 216.854C450.872 216.854 451.587 216.983 452.219 217.24C452.851 217.497 453.385 217.865 453.823 218.344C454.267 218.823 454.604 219.403 454.833 220.083C455.069 220.764 455.188 221.528 455.188 222.375V223.802H445.979V221.604H451.76V221.333C451.767 220.958 451.701 220.639 451.563 220.375C451.431 220.111 451.236 219.91 450.979 219.771C450.722 219.632 450.41 219.562 450.042 219.562C449.66 219.562 449.344 219.646 449.094 219.812C448.851 219.979 448.66 220.208 448.521 220.5C448.389 220.785 448.295 221.115 448.24 221.49C448.184 221.865 448.156 222.26 448.156 222.677V223.073C448.156 223.49 448.212 223.868 448.323 224.208C448.441 224.549 448.608 224.84 448.823 225.083C449.045 225.319 449.309 225.503 449.615 225.635C449.927 225.767 450.281 225.833 450.677 225.833C451.156 225.833 451.628 225.743 452.094 225.562C452.559 225.382 452.958 225.083 453.292 224.667L454.885 226.562C454.656 226.889 454.33 227.205 453.906 227.51C453.49 227.816 452.99 228.066 452.406 228.26C451.823 228.448 451.17 228.542 450.448 228.542ZM462.813 223.573V213.167H466.458V223.573C466.458 224.587 466.226 225.465 465.76 226.208C465.302 226.951 464.677 227.528 463.885 227.937C463.101 228.34 462.219 228.542 461.24 228.542C460.226 228.542 459.323 228.372 458.531 228.031C457.747 227.691 457.128 227.167 456.677 226.458C456.233 225.75 456.01 224.847 456.01 223.75H459.677C459.677 224.264 459.736 224.667 459.854 224.958C459.972 225.243 460.146 225.444 460.375 225.562C460.611 225.674 460.899 225.729 461.24 225.729C461.573 225.729 461.854 225.646 462.083 225.479C462.319 225.306 462.5 225.059 462.625 224.74C462.75 224.413 462.813 224.024 462.813 223.573ZM476.594 224.302C476.594 224.066 476.559 223.854 476.49 223.667C476.42 223.472 476.292 223.292 476.104 223.125C475.917 222.958 475.646 222.792 475.292 222.625C474.944 222.451 474.486 222.271 473.917 222.083C473.25 221.861 472.608 221.611 471.99 221.333C471.372 221.049 470.819 220.719 470.333 220.344C469.847 219.962 469.462 219.517 469.177 219.01C468.892 218.497 468.75 217.899 468.75 217.219C468.75 216.566 468.896 215.979 469.188 215.458C469.479 214.931 469.885 214.483 470.406 214.115C470.934 213.74 471.552 213.455 472.26 213.26C472.969 213.059 473.743 212.958 474.583 212.958C475.694 212.958 476.674 213.153 477.521 213.542C478.375 213.924 479.042 214.469 479.521 215.177C480.007 215.878 480.25 216.708 480.25 217.667H476.615C476.615 217.285 476.535 216.948 476.375 216.656C476.222 216.365 475.99 216.135 475.677 215.969C475.365 215.802 474.972 215.719 474.5 215.719C474.042 215.719 473.656 215.788 473.344 215.927C473.031 216.066 472.795 216.253 472.635 216.49C472.476 216.719 472.396 216.972 472.396 217.25C472.396 217.479 472.458 217.687 472.583 217.875C472.715 218.056 472.899 218.226 473.135 218.385C473.378 218.545 473.67 218.698 474.01 218.844C474.358 218.99 474.747 219.132 475.177 219.271C475.983 219.528 476.698 219.816 477.323 220.135C477.955 220.448 478.486 220.806 478.917 221.208C479.354 221.604 479.684 222.056 479.906 222.562C480.135 223.069 480.25 223.642 480.25 224.281C480.25 224.962 480.118 225.566 479.854 226.094C479.59 226.622 479.212 227.069 478.719 227.437C478.226 227.799 477.635 228.073 476.948 228.26C476.26 228.448 475.493 228.542 474.646 228.542C473.868 228.542 473.101 228.444 472.344 228.25C471.594 228.049 470.913 227.743 470.302 227.333C469.691 226.917 469.201 226.385 468.833 225.74C468.472 225.087 468.292 224.312 468.292 223.417H471.958C471.958 223.861 472.017 224.236 472.135 224.542C472.253 224.847 472.427 225.094 472.656 225.281C472.885 225.462 473.167 225.594 473.5 225.677C473.833 225.753 474.215 225.792 474.646 225.792C475.111 225.792 475.486 225.726 475.771 225.594C476.056 225.455 476.264 225.274 476.396 225.052C476.528 224.823 476.594 224.573 476.594 224.302Z" fill="white"/>
<rect x="571" y="196.333" width="208" height="49.3333" rx="4.66667" fill="#888888" stroke="#888888" stroke-width="4"/>
<path d="M648.427 225.521V228.333H640.344V225.521H648.427ZM641.646 213.167V228.333H637.99V213.167H641.646ZM647.385 219.187V221.906H640.344V219.187H647.385ZM648.458 213.167V215.99H640.344V213.167H648.458ZM652.74 217.062L654.323 220.167L655.958 217.062H659.604L656.646 222.552L659.76 228.333H656.083L654.323 225L652.573 228.333H648.896L652.01 222.552L649.062 217.062H652.74ZM664.302 219.229V232.667H660.792V217.062H664.062L664.302 219.229ZM671.219 222.562V222.781C671.219 223.601 671.125 224.361 670.937 225.062C670.75 225.764 670.472 226.375 670.104 226.896C669.736 227.417 669.278 227.823 668.729 228.115C668.187 228.399 667.559 228.542 666.844 228.542C666.17 228.542 665.59 228.392 665.104 228.094C664.618 227.795 664.212 227.382 663.885 226.854C663.559 226.326 663.295 225.722 663.094 225.042C662.892 224.361 662.733 223.642 662.615 222.885V222.604C662.733 221.792 662.892 221.038 663.094 220.344C663.295 219.642 663.559 219.031 663.885 218.51C664.212 217.99 664.615 217.583 665.094 217.292C665.58 217 666.16 216.854 666.833 216.854C667.549 216.854 668.177 216.99 668.719 217.26C669.267 217.531 669.726 217.92 670.094 218.427C670.469 218.927 670.75 219.528 670.937 220.229C671.125 220.931 671.219 221.708 671.219 222.562ZM667.708 222.781V222.562C667.708 222.125 667.677 221.726 667.615 221.365C667.552 220.997 667.451 220.677 667.312 220.406C667.181 220.135 667.003 219.927 666.781 219.781C666.559 219.635 666.285 219.562 665.958 219.562C665.583 219.562 665.267 219.622 665.01 219.74C664.76 219.851 664.559 220.024 664.406 220.26C664.26 220.49 664.156 220.778 664.094 221.125C664.038 221.465 664.014 221.865 664.021 222.323V223.177C664.007 223.705 664.059 224.17 664.177 224.573C664.295 224.969 664.5 225.278 664.792 225.5C665.083 225.722 665.479 225.833 665.979 225.833C666.312 225.833 666.59 225.757 666.812 225.604C667.035 225.444 667.212 225.226 667.344 224.948C667.476 224.663 667.569 224.337 667.625 223.969C667.681 223.601 667.708 223.205 667.708 222.781ZM676.323 219.854V228.333H672.812V217.062H676.094L676.323 219.854ZM679.656 216.979L679.594 220.24C679.455 220.226 679.267 220.208 679.031 220.187C678.795 220.167 678.597 220.156 678.437 220.156C678.028 220.156 677.674 220.205 677.375 220.302C677.083 220.392 676.84 220.531 676.646 220.719C676.458 220.899 676.319 221.128 676.229 221.406C676.146 221.684 676.108 222.007 676.115 222.375L675.479 221.958C675.479 221.201 675.552 220.514 675.698 219.896C675.851 219.271 676.066 218.733 676.344 218.281C676.622 217.823 676.958 217.472 677.354 217.229C677.75 216.979 678.194 216.854 678.687 216.854C678.861 216.854 679.031 216.865 679.198 216.885C679.372 216.906 679.524 216.937 679.656 216.979ZM686.115 228.542C685.198 228.542 684.378 228.399 683.656 228.115C682.934 227.823 682.323 227.424 681.823 226.917C681.33 226.41 680.951 225.826 680.687 225.167C680.431 224.507 680.302 223.809 680.302 223.073V222.677C680.302 221.851 680.417 221.087 680.646 220.385C680.875 219.677 681.215 219.059 681.667 218.531C682.118 218.003 682.684 217.594 683.365 217.302C684.045 217.003 684.837 216.854 685.74 216.854C686.538 216.854 687.253 216.983 687.885 217.24C688.517 217.497 689.052 217.865 689.49 218.344C689.934 218.823 690.271 219.403 690.5 220.083C690.736 220.764 690.854 221.528 690.854 222.375V223.802H681.646V221.604H687.427V221.333C687.434 220.958 687.368 220.639 687.229 220.375C687.097 220.111 686.903 219.91 686.646 219.771C686.389 219.632 686.076 219.562 685.708 219.562C685.326 219.562 685.01 219.646 684.76 219.812C684.517 219.979 684.326 220.208 684.187 220.5C684.056 220.785 683.962 221.115 683.906 221.49C683.851 221.865 683.823 222.26 683.823 222.677V223.073C683.823 223.49 683.878 223.868 683.99 224.208C684.108 224.549 684.274 224.84 684.49 225.083C684.712 225.319 684.976 225.503 685.281 225.635C685.594 225.767 685.948 225.833 686.344 225.833C686.823 225.833 687.295 225.743 687.76 225.562C688.226 225.382 688.625 225.083 688.958 224.667L690.552 226.562C690.323 226.889 689.997 227.205 689.573 227.51C689.156 227.816 688.656 228.066 688.073 228.26C687.49 228.448 686.837 228.542 686.115 228.542ZM698.187 225.167C698.187 224.972 698.122 224.806 697.99 224.667C697.865 224.521 697.642 224.389 697.323 224.271C697.003 224.146 696.556 224.021 695.979 223.896C695.431 223.778 694.913 223.622 694.427 223.427C693.948 223.233 693.528 222.997 693.167 222.719C692.806 222.441 692.521 222.111 692.312 221.729C692.111 221.347 692.01 220.91 692.01 220.417C692.01 219.937 692.111 219.486 692.312 219.062C692.521 218.632 692.823 218.253 693.219 217.927C693.622 217.594 694.111 217.333 694.687 217.146C695.264 216.951 695.92 216.854 696.656 216.854C697.67 216.854 698.545 217.01 699.281 217.323C700.017 217.628 700.583 218.059 700.979 218.615C701.382 219.163 701.583 219.799 701.583 220.521H698.073C698.073 220.236 698.024 219.993 697.927 219.792C697.837 219.59 697.687 219.437 697.479 219.333C697.271 219.222 696.993 219.167 696.646 219.167C696.403 219.167 696.181 219.212 695.979 219.302C695.785 219.392 695.628 219.517 695.51 219.677C695.392 219.837 695.333 220.024 695.333 220.24C695.333 220.392 695.368 220.531 695.437 220.656C695.514 220.774 695.628 220.885 695.781 220.99C695.934 221.087 696.128 221.177 696.365 221.26C696.601 221.337 696.885 221.406 697.219 221.469C697.976 221.608 698.684 221.806 699.344 222.062C700.003 222.319 700.538 222.684 700.948 223.156C701.365 223.628 701.573 224.264 701.573 225.062C701.573 225.562 701.458 226.024 701.229 226.448C701 226.865 700.67 227.233 700.24 227.552C699.809 227.865 699.292 228.108 698.687 228.281C698.083 228.455 697.403 228.542 696.646 228.542C695.569 228.542 694.66 228.351 693.917 227.969C693.174 227.58 692.611 227.094 692.229 226.51C691.854 225.92 691.667 225.323 691.667 224.719H694.937C694.951 225.066 695.035 225.351 695.187 225.573C695.347 225.795 695.559 225.958 695.823 226.062C696.087 226.167 696.392 226.219 696.74 226.219C697.059 226.219 697.323 226.174 697.531 226.083C697.747 225.993 697.91 225.872 698.021 225.719C698.132 225.559 698.187 225.375 698.187 225.167ZM709.125 225.167C709.125 224.972 709.059 224.806 708.927 224.667C708.802 224.521 708.58 224.389 708.26 224.271C707.941 224.146 707.493 224.021 706.917 223.896C706.368 223.778 705.851 223.622 705.365 223.427C704.885 223.233 704.465 222.997 704.104 222.719C703.743 222.441 703.458 222.111 703.25 221.729C703.049 221.347 702.948 220.91 702.948 220.417C702.948 219.937 703.049 219.486 703.25 219.062C703.458 218.632 703.76 218.253 704.156 217.927C704.559 217.594 705.049 217.333 705.625 217.146C706.201 216.951 706.858 216.854 707.594 216.854C708.608 216.854 709.483 217.01 710.219 217.323C710.955 217.628 711.521 218.059 711.917 218.615C712.319 219.163 712.521 219.799 712.521 220.521H709.01C709.01 220.236 708.962 219.993 708.865 219.792C708.774 219.59 708.625 219.437 708.417 219.333C708.208 219.222 707.931 219.167 707.583 219.167C707.34 219.167 707.118 219.212 706.917 219.302C706.722 219.392 706.566 219.517 706.448 219.677C706.33 219.837 706.271 220.024 706.271 220.24C706.271 220.392 706.306 220.531 706.375 220.656C706.451 220.774 706.566 220.885 706.719 220.99C706.872 221.087 707.066 221.177 707.302 221.26C707.538 221.337 707.823 221.406 708.156 221.469C708.913 221.608 709.622 221.806 710.281 222.062C710.941 222.319 711.476 222.684 711.885 223.156C712.302 223.628 712.51 224.264 712.51 225.062C712.51 225.562 712.396 226.024 712.167 226.448C711.937 226.865 711.608 227.233 711.177 227.552C710.747 227.865 710.229 228.108 709.625 228.281C709.021 228.455 708.34 228.542 707.583 228.542C706.507 228.542 705.597 228.351 704.854 227.969C704.111 227.58 703.549 227.094 703.167 226.51C702.792 225.92 702.604 225.323 702.604 224.719H705.875C705.889 225.066 705.972 225.351 706.125 225.573C706.285 225.795 706.497 225.958 706.76 226.062C707.024 226.167 707.33 226.219 707.677 226.219C707.997 226.219 708.26 226.174 708.469 226.083C708.684 225.993 708.847 225.872 708.958 225.719C709.069 225.559 709.125 225.375 709.125 225.167Z" fill="white"/>
<rect x="803" y="196.333" width="208" height="49.3333" rx="4.66667" fill="#888888" stroke="#888888" stroke-width="4"/>
<path d="M862.656 213.167H865.635L869.021 223.719L872.406 213.167H875.385L870.229 228.333H867.813L862.656 213.167ZM860.844 213.167H863.927L864.5 224.792V228.333H860.844V213.167ZM874.115 213.167H877.208V228.333H873.542V224.792L874.115 213.167ZM878.948 222.812V222.594C878.948 221.767 879.066 221.007 879.302 220.312C879.538 219.611 879.885 219.003 880.344 218.49C880.802 217.976 881.368 217.576 882.042 217.292C882.715 217 883.493 216.854 884.375 216.854C885.264 216.854 886.045 217 886.719 217.292C887.399 217.576 887.969 217.976 888.427 218.49C888.885 219.003 889.233 219.611 889.469 220.312C889.705 221.007 889.823 221.767 889.823 222.594V222.812C889.823 223.632 889.705 224.392 889.469 225.094C889.233 225.788 888.885 226.396 888.427 226.917C887.969 227.431 887.403 227.83 886.729 228.115C886.056 228.399 885.278 228.542 884.396 228.542C883.514 228.542 882.733 228.399 882.052 228.115C881.372 227.83 880.802 227.431 880.344 226.917C879.885 226.396 879.538 225.788 879.302 225.094C879.066 224.392 878.948 223.632 878.948 222.812ZM882.458 222.594V222.812C882.458 223.236 882.49 223.632 882.552 224C882.615 224.368 882.719 224.691 882.865 224.969C883.01 225.24 883.208 225.451 883.458 225.604C883.708 225.757 884.021 225.833 884.396 225.833C884.764 225.833 885.069 225.757 885.313 225.604C885.563 225.451 885.76 225.24 885.906 224.969C886.052 224.691 886.156 224.368 886.219 224C886.281 223.632 886.313 223.236 886.313 222.812V222.594C886.313 222.184 886.281 221.799 886.219 221.437C886.156 221.069 886.052 220.747 885.906 220.469C885.76 220.184 885.563 219.962 885.313 219.802C885.063 219.642 884.75 219.562 884.375 219.562C884.007 219.562 883.698 219.642 883.448 219.802C883.205 219.962 883.01 220.184 882.865 220.469C882.719 220.747 882.615 221.069 882.552 221.437C882.49 221.799 882.458 222.184 882.458 222.594ZM894.833 219.469V228.333H891.323V217.062H894.615L894.833 219.469ZM894.417 222.312L893.594 222.333C893.594 221.472 893.698 220.705 893.906 220.031C894.115 219.351 894.41 218.774 894.792 218.302C895.174 217.83 895.628 217.472 896.156 217.229C896.691 216.979 897.285 216.854 897.938 216.854C898.458 216.854 898.934 216.931 899.365 217.083C899.802 217.236 900.177 217.483 900.49 217.823C900.809 218.163 901.052 218.615 901.219 219.177C901.392 219.733 901.479 220.42 901.479 221.24V228.333H897.948V221.229C897.948 220.778 897.885 220.434 897.76 220.198C897.635 219.955 897.455 219.788 897.219 219.698C896.983 219.608 896.694 219.562 896.354 219.562C895.993 219.562 895.688 219.632 895.438 219.771C895.188 219.91 894.986 220.104 894.833 220.354C894.688 220.597 894.58 220.885 894.51 221.219C894.448 221.552 894.417 221.917 894.417 222.312ZM910.51 217.062H913.698V227.896C913.698 228.937 913.458 229.819 912.979 230.542C912.5 231.271 911.83 231.823 910.969 232.198C910.115 232.58 909.115 232.771 907.969 232.771C907.462 232.771 906.944 232.705 906.417 232.573C905.889 232.448 905.396 232.26 904.938 232.01C904.479 231.76 904.094 231.451 903.781 231.083L905.25 229.021C905.535 229.34 905.892 229.611 906.323 229.833C906.753 230.062 907.26 230.177 907.844 230.177C908.351 230.177 908.774 230.087 909.115 229.906C909.462 229.726 909.726 229.462 909.906 229.115C910.087 228.774 910.177 228.361 910.177 227.875V219.729L910.51 217.062ZM903.021 222.833V222.615C903.021 221.76 903.125 220.983 903.333 220.281C903.549 219.573 903.854 218.965 904.25 218.458C904.653 217.944 905.139 217.549 905.708 217.271C906.278 216.993 906.92 216.854 907.635 216.854C908.406 216.854 909.038 217.003 909.531 217.302C910.031 217.594 910.431 218.003 910.729 218.531C911.035 219.059 911.271 219.677 911.438 220.385C911.611 221.087 911.757 221.844 911.875 222.656V222.917C911.757 223.681 911.594 224.403 911.385 225.083C911.184 225.757 910.92 226.354 910.594 226.875C910.267 227.396 909.858 227.806 909.365 228.104C908.878 228.396 908.295 228.542 907.615 228.542C906.906 228.542 906.267 228.399 905.698 228.115C905.135 227.83 904.653 227.431 904.25 226.917C903.854 226.403 903.549 225.799 903.333 225.104C903.125 224.41 903.021 223.653 903.021 222.833ZM906.531 222.615V222.833C906.531 223.257 906.569 223.649 906.646 224.01C906.729 224.372 906.854 224.691 907.021 224.969C907.188 225.24 907.392 225.451 907.635 225.604C907.885 225.757 908.177 225.833 908.51 225.833C909.017 225.833 909.427 225.726 909.74 225.51C910.052 225.295 910.278 224.99 910.417 224.594C910.556 224.198 910.615 223.733 910.594 223.198V222.375C910.608 221.917 910.576 221.514 910.5 221.167C910.424 220.812 910.302 220.517 910.135 220.281C909.976 220.045 909.76 219.868 909.49 219.75C909.226 219.625 908.906 219.562 908.531 219.562C908.205 219.562 907.917 219.639 907.667 219.792C907.417 219.944 907.208 220.16 907.042 220.437C906.875 220.708 906.747 221.031 906.656 221.406C906.573 221.774 906.531 222.177 906.531 222.615ZM915.281 222.812V222.594C915.281 221.767 915.399 221.007 915.635 220.312C915.872 219.611 916.219 219.003 916.677 218.49C917.135 217.976 917.701 217.576 918.375 217.292C919.049 217 919.826 216.854 920.708 216.854C921.597 216.854 922.378 217 923.052 217.292C923.733 217.576 924.302 217.976 924.76 218.49C925.219 219.003 925.566 219.611 925.802 220.312C926.038 221.007 926.156 221.767 926.156 222.594V222.812C926.156 223.632 926.038 224.392 925.802 225.094C925.566 225.788 925.219 226.396 924.76 226.917C924.302 227.431 923.736 227.83 923.063 228.115C922.389 228.399 921.611 228.542 920.729 228.542C919.847 228.542 919.066 228.399 918.385 228.115C917.705 227.83 917.135 227.431 916.677 226.917C916.219 226.396 915.872 225.788 915.635 225.094C915.399 224.392 915.281 223.632 915.281 222.812ZM918.792 222.594V222.812C918.792 223.236 918.823 223.632 918.885 224C918.948 224.368 919.052 224.691 919.198 224.969C919.344 225.24 919.542 225.451 919.792 225.604C920.042 225.757 920.354 225.833 920.729 225.833C921.097 225.833 921.403 225.757 921.646 225.604C921.896 225.451 922.094 225.24 922.24 224.969C922.385 224.691 922.49 224.368 922.552 224C922.615 223.632 922.646 223.236 922.646 222.812V222.594C922.646 222.184 922.615 221.799 922.552 221.437C922.49 221.069 922.385 220.747 922.24 220.469C922.094 220.184 921.896 219.962 921.646 219.802C921.396 219.642 921.083 219.562 920.708 219.562C920.34 219.562 920.031 219.642 919.781 219.802C919.538 219.962 919.344 220.184 919.198 220.469C919.052 220.747 918.948 221.069 918.885 221.437C918.823 221.799 918.792 222.184 918.792 222.594ZM932.813 228.333H929.448L929.469 225.521H932.813C933.507 225.521 934.094 225.354 934.573 225.021C935.059 224.687 935.427 224.191 935.677 223.531C935.934 222.865 936.063 222.045 936.063 221.073V220.417C936.063 219.687 935.99 219.049 935.844 218.5C935.705 217.944 935.497 217.483 935.219 217.115C934.941 216.74 934.594 216.458 934.177 216.271C933.767 216.083 933.295 215.99 932.76 215.99H929.385V213.167H932.76C933.788 213.167 934.729 213.344 935.583 213.698C936.444 214.045 937.188 214.545 937.813 215.198C938.444 215.844 938.931 216.611 939.271 217.5C939.618 218.382 939.792 219.361 939.792 220.437V221.073C939.792 222.142 939.618 223.122 939.271 224.01C938.931 224.899 938.448 225.667 937.823 226.312C937.198 226.958 936.458 227.458 935.604 227.812C934.757 228.16 933.826 228.333 932.813 228.333ZM931.542 213.167V228.333H927.885V213.167H931.542ZM947.885 221.885H943.979L943.958 219.49H947.125C947.694 219.49 948.149 219.427 948.49 219.302C948.83 219.17 949.076 218.979 949.229 218.729C949.389 218.479 949.469 218.167 949.469 217.792C949.469 217.361 949.389 217.014 949.229 216.75C949.069 216.486 948.816 216.295 948.469 216.177C948.128 216.052 947.688 215.99 947.146 215.99H945.354V228.333H941.698V213.167H947.146C948.083 213.167 948.92 213.253 949.656 213.427C950.392 213.594 951.017 213.851 951.531 214.198C952.052 214.545 952.448 214.983 952.719 215.51C952.99 216.031 953.125 216.646 953.125 217.354C953.125 217.972 952.993 218.552 952.729 219.094C952.465 219.635 952.024 220.076 951.406 220.417C950.795 220.75 949.958 220.924 948.896 220.937L947.885 221.885ZM947.74 228.333H943.094L944.344 225.521H947.74C948.24 225.521 948.639 225.444 948.938 225.292C949.243 225.132 949.462 224.924 949.594 224.667C949.733 224.403 949.802 224.111 949.802 223.792C949.802 223.403 949.736 223.066 949.604 222.781C949.479 222.497 949.278 222.278 949 222.125C948.722 221.965 948.351 221.885 947.885 221.885H944.813L944.833 219.49H948.51L949.365 220.448C950.378 220.406 951.181 220.549 951.771 220.875C952.368 221.201 952.795 221.632 953.052 222.167C953.309 222.701 953.438 223.26 953.438 223.844C953.438 224.837 953.222 225.667 952.792 226.333C952.368 227 951.733 227.5 950.885 227.833C950.038 228.167 948.99 228.333 947.74 228.333Z" fill="white"/>
<rect x="1035" y="196.333" width="208" height="49.3333" rx="4.66667" fill="#888888" stroke="#888888" stroke-width="4"/>
<path d="M1108.4 216.354L1104.7 228.333H1100.77L1106.34 213.167H1108.83L1108.4 216.354ZM1111.46 228.333L1107.75 216.354L1107.27 213.167H1109.79L1115.4 228.333H1111.46ZM1111.31 222.677V225.5H1103.53V222.677H1111.31ZM1119.89 219.854V228.333H1116.37V217.062H1119.66L1119.89 219.854ZM1123.22 216.979L1123.16 220.24C1123.02 220.226 1122.83 220.208 1122.59 220.187C1122.36 220.167 1122.16 220.156 1122 220.156C1121.59 220.156 1121.24 220.205 1120.94 220.302C1120.65 220.392 1120.4 220.531 1120.21 220.719C1120.02 220.899 1119.88 221.128 1119.79 221.406C1119.71 221.684 1119.67 222.007 1119.68 222.375L1119.04 221.958C1119.04 221.201 1119.11 220.514 1119.26 219.896C1119.41 219.271 1119.63 218.733 1119.91 218.281C1120.18 217.823 1120.52 217.472 1120.92 217.229C1121.31 216.979 1121.76 216.854 1122.25 216.854C1122.42 216.854 1122.59 216.865 1122.76 216.885C1122.93 216.906 1123.09 216.937 1123.22 216.979ZM1130.7 225.75V212.333H1134.23V228.333H1131.06L1130.7 225.75ZM1123.78 222.833V222.615C1123.78 221.76 1123.88 220.983 1124.06 220.281C1124.25 219.573 1124.53 218.965 1124.9 218.458C1125.26 217.944 1125.72 217.549 1126.27 217.271C1126.82 216.993 1127.45 216.854 1128.17 216.854C1128.81 216.854 1129.36 217.003 1129.84 217.302C1130.32 217.594 1130.73 218.003 1131.07 218.531C1131.41 219.059 1131.69 219.677 1131.91 220.385C1132.12 221.087 1132.28 221.844 1132.4 222.656V222.917C1132.28 223.681 1132.12 224.403 1131.91 225.083C1131.69 225.757 1131.41 226.354 1131.07 226.875C1130.73 227.396 1130.32 227.806 1129.83 228.104C1129.35 228.396 1128.79 228.542 1128.15 228.542C1127.43 228.542 1126.8 228.399 1126.25 228.115C1125.71 227.83 1125.25 227.431 1124.89 226.917C1124.52 226.403 1124.25 225.799 1124.06 225.104C1123.88 224.41 1123.78 223.653 1123.78 222.833ZM1127.29 222.615V222.833C1127.29 223.257 1127.32 223.649 1127.38 224.01C1127.43 224.372 1127.52 224.691 1127.66 224.969C1127.8 225.24 1127.98 225.451 1128.2 225.604C1128.43 225.757 1128.71 225.833 1129.04 225.833C1129.49 225.833 1129.86 225.726 1130.16 225.51C1130.45 225.295 1130.67 224.99 1130.81 224.594C1130.96 224.198 1131.02 223.733 1131 223.198V222.375C1131.01 221.917 1130.98 221.514 1130.91 221.167C1130.83 220.812 1130.71 220.517 1130.54 220.281C1130.38 220.045 1130.18 219.868 1129.93 219.75C1129.68 219.625 1129.4 219.562 1129.06 219.562C1128.74 219.562 1128.46 219.639 1128.23 219.792C1128.01 219.944 1127.83 220.16 1127.69 220.437C1127.55 220.708 1127.45 221.031 1127.39 221.406C1127.32 221.774 1127.29 222.177 1127.29 222.615ZM1142.8 225.594V217.062H1146.32V228.333H1143.03L1142.8 225.594ZM1143.14 223.302L1144.05 223.281C1144.05 224.038 1143.96 224.74 1143.78 225.385C1143.6 226.024 1143.33 226.58 1142.98 227.052C1142.63 227.524 1142.2 227.892 1141.69 228.156C1141.18 228.413 1140.59 228.542 1139.93 228.542C1139.37 228.542 1138.86 228.465 1138.4 228.312C1137.94 228.153 1137.54 227.906 1137.21 227.573C1136.88 227.233 1136.61 226.799 1136.43 226.271C1136.25 225.736 1136.16 225.097 1136.16 224.354V217.062H1139.67V224.375C1139.67 224.625 1139.7 224.84 1139.76 225.021C1139.82 225.201 1139.91 225.354 1140.03 225.479C1140.15 225.597 1140.3 225.687 1140.47 225.75C1140.65 225.806 1140.85 225.833 1141.08 225.833C1141.61 225.833 1142.02 225.722 1142.32 225.5C1142.62 225.278 1142.83 224.976 1142.95 224.594C1143.07 224.212 1143.14 223.781 1143.14 223.302ZM1151.97 217.062V228.333H1148.45V217.062H1151.97ZM1148.24 214.156C1148.24 213.656 1148.42 213.247 1148.78 212.927C1149.14 212.608 1149.61 212.448 1150.19 212.448C1150.76 212.448 1151.23 212.608 1151.59 212.927C1151.95 213.247 1152.14 213.656 1152.14 214.156C1152.14 214.656 1151.95 215.066 1151.59 215.385C1151.23 215.705 1150.76 215.865 1150.19 215.865C1149.61 215.865 1149.14 215.705 1148.78 215.385C1148.42 215.066 1148.24 214.656 1148.24 214.156ZM1157.58 219.469V228.333H1154.07V217.062H1157.36L1157.58 219.469ZM1157.17 222.312L1156.34 222.333C1156.34 221.472 1156.45 220.705 1156.66 220.031C1156.86 219.351 1157.16 218.774 1157.54 218.302C1157.92 217.83 1158.38 217.472 1158.91 217.229C1159.44 216.979 1160.03 216.854 1160.69 216.854C1161.21 216.854 1161.68 216.931 1162.11 217.083C1162.55 217.236 1162.93 217.483 1163.24 217.823C1163.56 218.163 1163.8 218.615 1163.97 219.177C1164.14 219.733 1164.23 220.42 1164.23 221.24V228.333H1160.7V221.229C1160.7 220.778 1160.64 220.434 1160.51 220.198C1160.39 219.955 1160.2 219.788 1159.97 219.698C1159.73 219.608 1159.44 219.562 1159.1 219.562C1158.74 219.562 1158.44 219.632 1158.19 219.771C1157.94 219.91 1157.74 220.104 1157.58 220.354C1157.44 220.597 1157.33 220.885 1157.26 221.219C1157.2 221.552 1157.17 221.917 1157.17 222.312ZM1165.74 222.812V222.594C1165.74 221.767 1165.86 221.007 1166.09 220.312C1166.33 219.611 1166.68 219.003 1167.14 218.49C1167.59 217.976 1168.16 217.576 1168.83 217.292C1169.51 217 1170.28 216.854 1171.17 216.854C1172.06 216.854 1172.84 217 1173.51 217.292C1174.19 217.576 1174.76 217.976 1175.22 218.49C1175.68 219.003 1176.02 219.611 1176.26 220.312C1176.5 221.007 1176.61 221.767 1176.61 222.594V222.812C1176.61 223.632 1176.5 224.392 1176.26 225.094C1176.02 225.788 1175.68 226.396 1175.22 226.917C1174.76 227.431 1174.19 227.83 1173.52 228.115C1172.85 228.399 1172.07 228.542 1171.19 228.542C1170.31 228.542 1169.52 228.399 1168.84 228.115C1168.16 227.83 1167.59 227.431 1167.14 226.917C1166.68 226.396 1166.33 225.788 1166.09 225.094C1165.86 224.392 1165.74 223.632 1165.74 222.812ZM1169.25 222.594V222.812C1169.25 223.236 1169.28 223.632 1169.34 224C1169.41 224.368 1169.51 224.691 1169.66 224.969C1169.8 225.24 1170 225.451 1170.25 225.604C1170.5 225.757 1170.81 225.833 1171.19 225.833C1171.56 225.833 1171.86 225.757 1172.1 225.604C1172.35 225.451 1172.55 225.24 1172.7 224.969C1172.84 224.691 1172.95 224.368 1173.01 224C1173.07 223.632 1173.1 223.236 1173.1 222.812V222.594C1173.1 222.184 1173.07 221.799 1173.01 221.437C1172.95 221.069 1172.84 220.747 1172.7 220.469C1172.55 220.184 1172.35 219.962 1172.1 219.802C1171.85 219.642 1171.54 219.562 1171.17 219.562C1170.8 219.562 1170.49 219.642 1170.24 219.802C1170 219.962 1169.8 220.184 1169.66 220.469C1169.51 220.747 1169.41 221.069 1169.34 221.437C1169.28 221.799 1169.25 222.184 1169.25 222.594Z" fill="white"/>
</svg>
