<svg width="1363" height="163" viewBox="0 0 1363 163" fill="none" xmlns="http://www.w3.org/2000/svg">
<path d="M0 15C0 6.71573 6.71573 0 15 0H37V163H15C6.71573 163 0 156.284 0 148V15Z" fill="#424242"/>
<rect width="1097" height="163" transform="translate(37)" fill="#F0F0F0"/>
<path d="M101.906 53.9219L94.3945 51.2383V48.0859L104.602 52.375V54.6367L101.906 53.9219ZM94.3945 56.1719L101.918 53.4297L104.602 52.7852V55.0352L94.3945 59.3242V56.1719ZM116.414 43.9375V61H112.898V43.9375H116.414ZM123.211 51.2266V53.9688H115.453V51.2266H123.211ZM124.031 43.9375V46.6914H115.453V43.9375H124.031ZM132.305 58.1406V52.4922C132.305 52.0859 132.238 51.7383 132.105 51.4492C131.973 51.1523 131.766 50.9219 131.484 50.7578C131.211 50.5938 130.855 50.5117 130.418 50.5117C130.043 50.5117 129.719 50.5781 129.445 50.7109C129.172 50.8359 128.961 51.0195 128.812 51.2617C128.664 51.4961 128.59 51.7734 128.59 52.0938H125.215C125.215 51.5547 125.34 51.043 125.59 50.5586C125.84 50.0742 126.203 49.6484 126.68 49.2812C127.156 48.9062 127.723 48.6133 128.379 48.4023C129.043 48.1914 129.785 48.0859 130.605 48.0859C131.59 48.0859 132.465 48.25 133.23 48.5781C133.996 48.9062 134.598 49.3984 135.035 50.0547C135.48 50.7109 135.703 51.5312 135.703 52.5156V57.9414C135.703 58.6367 135.746 59.207 135.832 59.6523C135.918 60.0898 136.043 60.4727 136.207 60.8008V61H132.797C132.633 60.6562 132.508 60.2266 132.422 59.7109C132.344 59.1875 132.305 58.6641 132.305 58.1406ZM132.75 53.2773L132.773 55.1875H130.887C130.441 55.1875 130.055 55.2383 129.727 55.3398C129.398 55.4414 129.129 55.5859 128.918 55.7734C128.707 55.9531 128.551 56.1641 128.449 56.4062C128.355 56.6484 128.309 56.9141 128.309 57.2031C128.309 57.4922 128.375 57.7539 128.508 57.9883C128.641 58.2148 128.832 58.3945 129.082 58.5273C129.332 58.6523 129.625 58.7148 129.961 58.7148C130.469 58.7148 130.91 58.6133 131.285 58.4102C131.66 58.207 131.949 57.957 132.152 57.6602C132.363 57.3633 132.473 57.082 132.48 56.8164L133.371 58.2461C133.246 58.5664 133.074 58.8984 132.855 59.2422C132.645 59.5859 132.375 59.9102 132.047 60.2148C131.719 60.5117 131.324 60.7578 130.863 60.9531C130.402 61.1406 129.855 61.2344 129.223 61.2344C128.418 61.2344 127.688 61.0742 127.031 60.7539C126.383 60.4258 125.867 59.9766 125.484 59.4062C125.109 58.8281 124.922 58.1719 124.922 57.4375C124.922 56.7734 125.047 56.1836 125.297 55.668C125.547 55.1523 125.914 54.7188 126.398 54.3672C126.891 54.0078 127.504 53.7383 128.238 53.5586C128.973 53.3711 129.824 53.2773 130.793 53.2773H132.75ZM144.516 48.3203V50.7109H137.133V48.3203H144.516ZM138.961 45.1914H142.336V57.1797C142.336 57.5469 142.383 57.8281 142.477 58.0234C142.578 58.2188 142.727 58.3555 142.922 58.4336C143.117 58.5039 143.363 58.5391 143.66 58.5391C143.871 58.5391 144.059 58.5312 144.223 58.5156C144.395 58.4922 144.539 58.4688 144.656 58.4453L144.668 60.9297C144.379 61.0234 144.066 61.0977 143.73 61.1523C143.395 61.207 143.023 61.2344 142.617 61.2344C141.875 61.2344 141.227 61.1133 140.672 60.8711C140.125 60.6211 139.703 60.2227 139.406 59.6758C139.109 59.1289 138.961 58.4102 138.961 57.5195V45.1914ZM153.281 58.1406V52.4922C153.281 52.0859 153.215 51.7383 153.082 51.4492C152.949 51.1523 152.742 50.9219 152.461 50.7578C152.188 50.5938 151.832 50.5117 151.395 50.5117C151.02 50.5117 150.695 50.5781 150.422 50.7109C150.148 50.8359 149.938 51.0195 149.789 51.2617C149.641 51.4961 149.566 51.7734 149.566 52.0938H146.191C146.191 51.5547 146.316 51.043 146.566 50.5586C146.816 50.0742 147.18 49.6484 147.656 49.2812C148.133 48.9062 148.699 48.6133 149.355 48.4023C150.02 48.1914 150.762 48.0859 151.582 48.0859C152.566 48.0859 153.441 48.25 154.207 48.5781C154.973 48.9062 155.574 49.3984 156.012 50.0547C156.457 50.7109 156.68 51.5312 156.68 52.5156V57.9414C156.68 58.6367 156.723 59.207 156.809 59.6523C156.895 60.0898 157.02 60.4727 157.184 60.8008V61H153.773C153.609 60.6562 153.484 60.2266 153.398 59.7109C153.32 59.1875 153.281 58.6641 153.281 58.1406ZM153.727 53.2773L153.75 55.1875H151.863C151.418 55.1875 151.031 55.2383 150.703 55.3398C150.375 55.4414 150.105 55.5859 149.895 55.7734C149.684 55.9531 149.527 56.1641 149.426 56.4062C149.332 56.6484 149.285 56.9141 149.285 57.2031C149.285 57.4922 149.352 57.7539 149.484 57.9883C149.617 58.2148 149.809 58.3945 150.059 58.5273C150.309 58.6523 150.602 58.7148 150.938 58.7148C151.445 58.7148 151.887 58.6133 152.262 58.4102C152.637 58.207 152.926 57.957 153.129 57.6602C153.34 57.3633 153.449 57.082 153.457 56.8164L154.348 58.2461C154.223 58.5664 154.051 58.8984 153.832 59.2422C153.621 59.5859 153.352 59.9102 153.023 60.2148C152.695 60.5117 152.301 60.7578 151.84 60.9531C151.379 61.1406 150.832 61.2344 150.199 61.2344C149.395 61.2344 148.664 61.0742 148.008 60.7539C147.359 60.4258 146.844 59.9766 146.461 59.4062C146.086 58.8281 145.898 58.1719 145.898 57.4375C145.898 56.7734 146.023 56.1836 146.273 55.668C146.523 55.1523 146.891 54.7188 147.375 54.3672C147.867 54.0078 148.48 53.7383 149.215 53.5586C149.949 53.3711 150.801 53.2773 151.77 53.2773H153.727ZM162.844 43V61H159.457V43H162.844ZM178.5 53.5117H174.117L174.094 51.0977H177.773C178.422 51.0977 178.953 51.0156 179.367 50.8516C179.781 50.6797 180.09 50.4336 180.293 50.1133C180.504 49.7852 180.609 49.3867 180.609 48.918C180.609 48.3867 180.508 47.957 180.305 47.6289C180.109 47.3008 179.801 47.0625 179.379 46.9141C178.965 46.7656 178.43 46.6914 177.773 46.6914H175.336V61H171.82V43.9375H177.773C178.766 43.9375 179.652 44.0312 180.434 44.2188C181.223 44.4062 181.891 44.6914 182.438 45.0742C182.984 45.457 183.402 45.9414 183.691 46.5273C183.98 47.1055 184.125 47.793 184.125 48.5898C184.125 49.293 183.965 49.9414 183.645 50.5352C183.332 51.1289 182.836 51.6133 182.156 51.9883C181.484 52.3633 180.605 52.5703 179.52 52.6094L178.5 53.5117ZM178.348 61H173.156L174.527 58.2578H178.348C178.965 58.2578 179.469 58.1602 179.859 57.9648C180.25 57.7617 180.539 57.4883 180.727 57.1445C180.914 56.8008 181.008 56.4062 181.008 55.9609C181.008 55.4609 180.922 55.0273 180.75 54.6602C180.586 54.293 180.32 54.0117 179.953 53.8164C179.586 53.6133 179.102 53.5117 178.5 53.5117H175.113L175.137 51.0977H179.355L180.164 52.0469C181.203 52.0312 182.039 52.2148 182.672 52.5977C183.312 52.9727 183.777 53.4609 184.066 54.0625C184.363 54.6641 184.512 55.3086 184.512 55.9961C184.512 57.0898 184.273 58.0117 183.797 58.7617C183.32 59.5039 182.621 60.0625 181.699 60.4375C180.785 60.8125 179.668 61 178.348 61ZM190.312 51.0859V61H186.938V48.3203H190.113L190.312 51.0859ZM194.133 48.2383L194.074 51.3672C193.91 51.3438 193.711 51.3242 193.477 51.3086C193.25 51.2852 193.043 51.2734 192.855 51.2734C192.379 51.2734 191.965 51.3359 191.613 51.4609C191.27 51.5781 190.98 51.7539 190.746 51.9883C190.52 52.2227 190.348 52.5078 190.23 52.8438C190.121 53.1797 190.059 53.5625 190.043 53.9922L189.363 53.7812C189.363 52.9609 189.445 52.207 189.609 51.5195C189.773 50.8242 190.012 50.2188 190.324 49.7031C190.645 49.1875 191.035 48.7891 191.496 48.5078C191.957 48.2266 192.484 48.0859 193.078 48.0859C193.266 48.0859 193.457 48.1016 193.652 48.1328C193.848 48.1562 194.008 48.1914 194.133 48.2383ZM201.328 61.2344C200.344 61.2344 199.461 61.0781 198.68 60.7656C197.898 60.4453 197.234 60.0039 196.688 59.4414C196.148 58.8789 195.734 58.2266 195.445 57.4844C195.156 56.7344 195.012 55.9375 195.012 55.0938V54.625C195.012 53.6641 195.148 52.7852 195.422 51.9883C195.695 51.1914 196.086 50.5 196.594 49.9141C197.109 49.3281 197.734 48.8789 198.469 48.5664C199.203 48.2461 200.031 48.0859 200.953 48.0859C201.852 48.0859 202.648 48.2344 203.344 48.5312C204.039 48.8281 204.621 49.25 205.09 49.7969C205.566 50.3438 205.926 51 206.168 51.7656C206.41 52.5234 206.531 53.3672 206.531 54.2969V55.7031H196.453V53.4531H203.215V53.1953C203.215 52.7266 203.129 52.3086 202.957 51.9414C202.793 51.5664 202.543 51.2695 202.207 51.0508C201.871 50.832 201.441 50.7227 200.918 50.7227C200.473 50.7227 200.09 50.8203 199.77 51.0156C199.449 51.2109 199.188 51.4844 198.984 51.8359C198.789 52.1875 198.641 52.6016 198.539 53.0781C198.445 53.5469 198.398 54.0625 198.398 54.625V55.0938C198.398 55.6016 198.469 56.0703 198.609 56.5C198.758 56.9297 198.965 57.3008 199.23 57.6133C199.504 57.9258 199.832 58.168 200.215 58.3398C200.605 58.5117 201.047 58.5977 201.539 58.5977C202.148 58.5977 202.715 58.4805 203.238 58.2461C203.77 58.0039 204.227 57.6406 204.609 57.1562L206.25 58.9375C205.984 59.3203 205.621 59.6875 205.16 60.0391C204.707 60.3906 204.16 60.6797 203.52 60.9062C202.879 61.125 202.148 61.2344 201.328 61.2344ZM215.297 58.1406V52.4922C215.297 52.0859 215.23 51.7383 215.098 51.4492C214.965 51.1523 214.758 50.9219 214.477 50.7578C214.203 50.5938 213.848 50.5117 213.41 50.5117C213.035 50.5117 212.711 50.5781 212.438 50.7109C212.164 50.8359 211.953 51.0195 211.805 51.2617C211.656 51.4961 211.582 51.7734 211.582 52.0938H208.207C208.207 51.5547 208.332 51.043 208.582 50.5586C208.832 50.0742 209.195 49.6484 209.672 49.2812C210.148 48.9062 210.715 48.6133 211.371 48.4023C212.035 48.1914 212.777 48.0859 213.598 48.0859C214.582 48.0859 215.457 48.25 216.223 48.5781C216.988 48.9062 217.59 49.3984 218.027 50.0547C218.473 50.7109 218.695 51.5312 218.695 52.5156V57.9414C218.695 58.6367 218.738 59.207 218.824 59.6523C218.91 60.0898 219.035 60.4727 219.199 60.8008V61H215.789C215.625 60.6562 215.5 60.2266 215.414 59.7109C215.336 59.1875 215.297 58.6641 215.297 58.1406ZM215.742 53.2773L215.766 55.1875H213.879C213.434 55.1875 213.047 55.2383 212.719 55.3398C212.391 55.4414 212.121 55.5859 211.91 55.7734C211.699 55.9531 211.543 56.1641 211.441 56.4062C211.348 56.6484 211.301 56.9141 211.301 57.2031C211.301 57.4922 211.367 57.7539 211.5 57.9883C211.633 58.2148 211.824 58.3945 212.074 58.5273C212.324 58.6523 212.617 58.7148 212.953 58.7148C213.461 58.7148 213.902 58.6133 214.277 58.4102C214.652 58.207 214.941 57.957 215.145 57.6602C215.355 57.3633 215.465 57.082 215.473 56.8164L216.363 58.2461C216.238 58.5664 216.066 58.8984 215.848 59.2422C215.637 59.5859 215.367 59.9102 215.039 60.2148C214.711 60.5117 214.316 60.7578 213.855 60.9531C213.395 61.1406 212.848 61.2344 212.215 61.2344C211.41 61.2344 210.68 61.0742 210.023 60.7539C209.375 60.4258 208.859 59.9766 208.477 59.4062C208.102 58.8281 207.914 58.1719 207.914 57.4375C207.914 56.7734 208.039 56.1836 208.289 55.668C208.539 55.1523 208.906 54.7188 209.391 54.3672C209.883 54.0078 210.496 53.7383 211.23 53.5586C211.965 53.3711 212.816 53.2773 213.785 53.2773H215.742ZM227.508 48.3203V50.7109H220.125V48.3203H227.508ZM221.953 45.1914H225.328V57.1797C225.328 57.5469 225.375 57.8281 225.469 58.0234C225.57 58.2188 225.719 58.3555 225.914 58.4336C226.109 58.5039 226.355 58.5391 226.652 58.5391C226.863 58.5391 227.051 58.5312 227.215 58.5156C227.387 58.4922 227.531 58.4688 227.648 58.4453L227.66 60.9297C227.371 61.0234 227.059 61.0977 226.723 61.1523C226.387 61.207 226.016 61.2344 225.609 61.2344C224.867 61.2344 224.219 61.1133 223.664 60.8711C223.117 60.6211 222.695 60.2227 222.398 59.6758C222.102 59.1289 221.953 58.4102 221.953 57.5195V45.1914ZM232.723 43V61H229.348V43H232.723ZM232.242 54.2148H231.316C231.324 53.332 231.441 52.5195 231.668 51.7773C231.895 51.0273 232.219 50.3789 232.641 49.832C233.062 49.2773 233.566 48.8477 234.152 48.543C234.746 48.2383 235.402 48.0859 236.121 48.0859C236.746 48.0859 237.312 48.1758 237.82 48.3555C238.336 48.5273 238.777 48.8086 239.145 49.1992C239.52 49.582 239.809 50.0859 240.012 50.7109C240.215 51.3359 240.316 52.0938 240.316 52.9844V61H236.918V52.9609C236.918 52.3984 236.836 51.957 236.672 51.6367C236.516 51.3086 236.285 51.0781 235.98 50.9453C235.684 50.8047 235.316 50.7344 234.879 50.7344C234.395 50.7344 233.98 50.8242 233.637 51.0039C233.301 51.1836 233.031 51.4336 232.828 51.7539C232.625 52.0664 232.477 52.4336 232.383 52.8555C232.289 53.2773 232.242 53.7305 232.242 54.2148Z" fill="#888888"/>
<path d="M104.344 84.875V119H96.1406V84.875H104.344ZM117.727 99.0078V119H109.828V93.6406H117.234L117.727 99.0078ZM116.766 105.453L114.961 105.5C114.961 103.719 115.172 102.078 115.594 100.578C116.016 99.0781 116.641 97.7734 117.469 96.6641C118.297 95.5547 119.312 94.6953 120.516 94.0859C121.734 93.4766 123.141 93.1719 124.734 93.1719C125.844 93.1719 126.852 93.3438 127.758 93.6875C128.664 94.0156 129.445 94.5391 130.102 95.2578C130.758 95.9609 131.258 96.8828 131.602 98.0234C131.961 99.1484 132.141 100.5 132.141 102.078V119H124.242V103.086C124.242 102.008 124.117 101.195 123.867 100.648C123.633 100.102 123.289 99.7344 122.836 99.5469C122.383 99.3594 121.828 99.2656 121.172 99.2656C120.484 99.2656 119.867 99.4219 119.32 99.7344C118.773 100.047 118.305 100.484 117.914 101.047C117.539 101.594 117.25 102.242 117.047 102.992C116.859 103.742 116.766 104.562 116.766 105.453ZM131.25 105.453L129.047 105.5C129.047 103.719 129.242 102.078 129.633 100.578C130.039 99.0781 130.641 97.7734 131.438 96.6641C132.25 95.5547 133.258 94.6953 134.461 94.0859C135.664 93.4766 137.062 93.1719 138.656 93.1719C139.812 93.1719 140.875 93.3438 141.844 93.6875C142.812 94.0312 143.648 94.5859 144.352 95.3516C145.055 96.1172 145.602 97.1328 145.992 98.3984C146.383 99.6484 146.578 101.195 146.578 103.039V119H138.656V103.039C138.656 101.992 138.531 101.203 138.281 100.672C138.047 100.125 137.703 99.7578 137.25 99.5703C136.797 99.3672 136.258 99.2656 135.633 99.2656C134.883 99.2656 134.234 99.4219 133.688 99.7344C133.141 100.047 132.68 100.484 132.305 101.047C131.945 101.594 131.68 102.242 131.508 102.992C131.336 103.742 131.25 104.562 131.25 105.453ZM159.07 98.5156V128.75H151.172V93.6406H158.531L159.07 98.5156ZM174.633 106.016V106.508C174.633 108.352 174.422 110.062 174 111.641C173.578 113.219 172.953 114.594 172.125 115.766C171.297 116.938 170.266 117.852 169.031 118.508C167.812 119.148 166.398 119.469 164.789 119.469C163.273 119.469 161.969 119.133 160.875 118.461C159.781 117.789 158.867 116.859 158.133 115.672C157.398 114.484 156.805 113.125 156.352 111.594C155.898 110.062 155.539 108.445 155.273 106.742V106.109C155.539 104.281 155.898 102.586 156.352 101.023C156.805 99.4453 157.398 98.0703 158.133 96.8984C158.867 95.7266 159.773 94.8125 160.852 94.1562C161.945 93.5 163.25 93.1719 164.766 93.1719C166.375 93.1719 167.789 93.4766 169.008 94.0859C170.242 94.6953 171.273 95.5703 172.102 96.7109C172.945 97.8359 173.578 99.1875 174 100.766C174.422 102.344 174.633 104.094 174.633 106.016ZM166.734 106.508V106.016C166.734 105.031 166.664 104.133 166.523 103.32C166.383 102.492 166.156 101.773 165.844 101.164C165.547 100.555 165.148 100.086 164.648 99.7578C164.148 99.4297 163.531 99.2656 162.797 99.2656C161.953 99.2656 161.242 99.3984 160.664 99.6641C160.102 99.9141 159.648 100.305 159.305 100.836C158.977 101.352 158.742 102 158.602 102.781C158.477 103.547 158.422 104.445 158.438 105.477V107.398C158.406 108.586 158.523 109.633 158.789 110.539C159.055 111.43 159.516 112.125 160.172 112.625C160.828 113.125 161.719 113.375 162.844 113.375C163.594 113.375 164.219 113.203 164.719 112.859C165.219 112.5 165.617 112.008 165.914 111.383C166.211 110.742 166.422 110.008 166.547 109.18C166.672 108.352 166.734 107.461 166.734 106.508ZM186.492 83V119H178.57V83H186.492ZM203.648 119.469C201.586 119.469 199.742 119.148 198.117 118.508C196.492 117.852 195.117 116.953 193.992 115.812C192.883 114.672 192.031 113.359 191.438 111.875C190.859 110.391 190.57 108.82 190.57 107.164V106.273C190.57 104.414 190.828 102.695 191.344 101.117C191.859 99.5234 192.625 98.1328 193.641 96.9453C194.656 95.7578 195.93 94.8359 197.461 94.1797C198.992 93.5078 200.773 93.1719 202.805 93.1719C204.602 93.1719 206.211 93.4609 207.633 94.0391C209.055 94.6172 210.258 95.4453 211.242 96.5234C212.242 97.6016 213 98.9062 213.516 100.438C214.047 101.969 214.312 103.688 214.312 105.594V108.805H193.594V103.859H206.602V103.25C206.617 102.406 206.469 101.688 206.156 101.094C205.859 100.5 205.422 100.047 204.844 99.7344C204.266 99.4219 203.562 99.2656 202.734 99.2656C201.875 99.2656 201.164 99.4531 200.602 99.8281C200.055 100.203 199.625 100.719 199.312 101.375C199.016 102.016 198.805 102.758 198.68 103.602C198.555 104.445 198.492 105.336 198.492 106.273V107.164C198.492 108.102 198.617 108.953 198.867 109.719C199.133 110.484 199.508 111.141 199.992 111.688C200.492 112.219 201.086 112.633 201.773 112.93C202.477 113.227 203.273 113.375 204.164 113.375C205.242 113.375 206.305 113.172 207.352 112.766C208.398 112.359 209.297 111.688 210.047 110.75L213.633 115.016C213.117 115.75 212.383 116.461 211.43 117.148C210.492 117.836 209.367 118.398 208.055 118.836C206.742 119.258 205.273 119.469 203.648 119.469ZM225.492 99.0078V119H217.594V93.6406H225L225.492 99.0078ZM224.531 105.453L222.727 105.5C222.727 103.719 222.938 102.078 223.359 100.578C223.781 99.0781 224.406 97.7734 225.234 96.6641C226.062 95.5547 227.078 94.6953 228.281 94.0859C229.5 93.4766 230.906 93.1719 232.5 93.1719C233.609 93.1719 234.617 93.3438 235.523 93.6875C236.43 94.0156 237.211 94.5391 237.867 95.2578C238.523 95.9609 239.023 96.8828 239.367 98.0234C239.727 99.1484 239.906 100.5 239.906 102.078V119H232.008V103.086C232.008 102.008 231.883 101.195 231.633 100.648C231.398 100.102 231.055 99.7344 230.602 99.5469C230.148 99.3594 229.594 99.2656 228.938 99.2656C228.25 99.2656 227.633 99.4219 227.086 99.7344C226.539 100.047 226.07 100.484 225.68 101.047C225.305 101.594 225.016 102.242 224.812 102.992C224.625 103.742 224.531 104.562 224.531 105.453ZM239.016 105.453L236.812 105.5C236.812 103.719 237.008 102.078 237.398 100.578C237.805 99.0781 238.406 97.7734 239.203 96.6641C240.016 95.5547 241.023 94.6953 242.227 94.0859C243.43 93.4766 244.828 93.1719 246.422 93.1719C247.578 93.1719 248.641 93.3438 249.609 93.6875C250.578 94.0312 251.414 94.5859 252.117 95.3516C252.82 96.1172 253.367 97.1328 253.758 98.3984C254.148 99.6484 254.344 101.195 254.344 103.039V119H246.422V103.039C246.422 101.992 246.297 101.203 246.047 100.672C245.812 100.125 245.469 99.7578 245.016 99.5703C244.562 99.3672 244.023 99.2656 243.398 99.2656C242.648 99.2656 242 99.4219 241.453 99.7344C240.906 100.047 240.445 100.484 240.07 101.047C239.711 101.594 239.445 102.242 239.273 102.992C239.102 103.742 239.016 104.562 239.016 105.453ZM271.148 119.469C269.086 119.469 267.242 119.148 265.617 118.508C263.992 117.852 262.617 116.953 261.492 115.812C260.383 114.672 259.531 113.359 258.938 111.875C258.359 110.391 258.07 108.82 258.07 107.164V106.273C258.07 104.414 258.328 102.695 258.844 101.117C259.359 99.5234 260.125 98.1328 261.141 96.9453C262.156 95.7578 263.43 94.8359 264.961 94.1797C266.492 93.5078 268.273 93.1719 270.305 93.1719C272.102 93.1719 273.711 93.4609 275.133 94.0391C276.555 94.6172 277.758 95.4453 278.742 96.5234C279.742 97.6016 280.5 98.9062 281.016 100.438C281.547 101.969 281.812 103.688 281.812 105.594V108.805H261.094V103.859H274.102V103.25C274.117 102.406 273.969 101.688 273.656 101.094C273.359 100.5 272.922 100.047 272.344 99.7344C271.766 99.4219 271.062 99.2656 270.234 99.2656C269.375 99.2656 268.664 99.4531 268.102 99.8281C267.555 100.203 267.125 100.719 266.812 101.375C266.516 102.016 266.305 102.758 266.18 103.602C266.055 104.445 265.992 105.336 265.992 106.273V107.164C265.992 108.102 266.117 108.953 266.367 109.719C266.633 110.484 267.008 111.141 267.492 111.688C267.992 112.219 268.586 112.633 269.273 112.93C269.977 113.227 270.773 113.375 271.664 113.375C272.742 113.375 273.805 113.172 274.852 112.766C275.898 112.359 276.797 111.688 277.547 110.75L281.133 115.016C280.617 115.75 279.883 116.461 278.93 117.148C277.992 117.836 276.867 118.398 275.555 118.836C274.242 119.258 272.773 119.469 271.148 119.469ZM292.781 99.0547V119H284.883V93.6406H292.289L292.781 99.0547ZM291.844 105.453L289.992 105.5C289.992 103.562 290.227 101.836 290.695 100.32C291.164 98.7891 291.828 97.4922 292.688 96.4297C293.547 95.3672 294.57 94.5625 295.758 94.0156C296.961 93.4531 298.297 93.1719 299.766 93.1719C300.938 93.1719 302.008 93.3438 302.977 93.6875C303.961 94.0312 304.805 94.5859 305.508 95.3516C306.227 96.1172 306.773 97.1328 307.148 98.3984C307.539 99.6484 307.734 101.195 307.734 103.039V119H299.789V103.016C299.789 102 299.648 101.227 299.367 100.695C299.086 100.148 298.68 99.7734 298.148 99.5703C297.617 99.3672 296.969 99.2656 296.203 99.2656C295.391 99.2656 294.703 99.4219 294.141 99.7344C293.578 100.047 293.125 100.484 292.781 101.047C292.453 101.594 292.211 102.242 292.055 102.992C291.914 103.742 291.844 104.562 291.844 105.453ZM325.477 93.6406V99.125H310.195V93.6406H325.477ZM313.406 87.3359H321.305V110.727C321.305 111.398 321.383 111.922 321.539 112.297C321.695 112.656 321.961 112.914 322.336 113.07C322.727 113.211 323.242 113.281 323.883 113.281C324.336 113.281 324.711 113.273 325.008 113.258C325.305 113.227 325.586 113.188 325.852 113.141V118.789C325.18 119.008 324.477 119.172 323.742 119.281C323.008 119.406 322.227 119.469 321.398 119.469C319.711 119.469 318.266 119.203 317.062 118.672C315.875 118.141 314.969 117.305 314.344 116.164C313.719 115.023 313.406 113.539 313.406 111.711V87.3359ZM341.789 112.625V102.172C341.789 101.453 341.688 100.836 341.484 100.32C341.281 99.8047 340.961 99.4062 340.523 99.125C340.086 98.8281 339.5 98.6797 338.766 98.6797C338.172 98.6797 337.664 98.7812 337.242 98.9844C336.82 99.1875 336.5 99.4922 336.281 99.8984C336.062 100.305 335.953 100.82 335.953 101.445H328.055C328.055 100.273 328.312 99.1875 328.828 98.1875C329.359 97.1719 330.109 96.2891 331.078 95.5391C332.062 94.7891 333.234 94.2109 334.594 93.8047C335.969 93.3828 337.5 93.1719 339.188 93.1719C341.203 93.1719 343 93.5078 344.578 94.1797C346.172 94.8516 347.43 95.8594 348.352 97.2031C349.273 98.5312 349.734 100.203 349.734 102.219V112.602C349.734 114.258 349.828 115.516 350.016 116.375C350.203 117.219 350.469 117.961 350.812 118.602V119H342.891C342.516 118.219 342.234 117.266 342.047 116.141C341.875 115 341.789 113.828 341.789 112.625ZM342.75 103.508L342.797 107.727H339.305C338.57 107.727 337.945 107.828 337.43 108.031C336.93 108.234 336.523 108.516 336.211 108.875C335.914 109.219 335.695 109.609 335.555 110.047C335.43 110.484 335.367 110.945 335.367 111.43C335.367 111.898 335.477 112.32 335.695 112.695C335.93 113.055 336.242 113.336 336.633 113.539C337.023 113.742 337.461 113.844 337.945 113.844C338.82 113.844 339.562 113.68 340.172 113.352C340.797 113.008 341.273 112.594 341.602 112.109C341.93 111.625 342.094 111.172 342.094 110.75L343.828 113.984C343.516 114.609 343.156 115.242 342.75 115.883C342.359 116.523 341.867 117.117 341.273 117.664C340.695 118.195 339.984 118.633 339.141 118.977C338.297 119.305 337.273 119.469 336.07 119.469C334.508 119.469 333.07 119.148 331.758 118.508C330.461 117.867 329.422 116.977 328.641 115.836C327.859 114.68 327.469 113.352 327.469 111.852C327.469 110.539 327.703 109.367 328.172 108.336C328.656 107.305 329.383 106.43 330.352 105.711C331.32 104.992 332.555 104.445 334.055 104.07C335.555 103.695 337.32 103.508 339.352 103.508H342.75ZM367.477 93.6406V99.125H352.195V93.6406H367.477ZM355.406 87.3359H363.305V110.727C363.305 111.398 363.383 111.922 363.539 112.297C363.695 112.656 363.961 112.914 364.336 113.07C364.727 113.211 365.242 113.281 365.883 113.281C366.336 113.281 366.711 113.273 367.008 113.258C367.305 113.227 367.586 113.188 367.852 113.141V118.789C367.18 119.008 366.477 119.172 365.742 119.281C365.008 119.406 364.227 119.469 363.398 119.469C361.711 119.469 360.266 119.203 359.062 118.672C357.875 118.141 356.969 117.305 356.344 116.164C355.719 115.023 355.406 113.539 355.406 111.711V87.3359ZM378.961 93.6406V119H371.039V93.6406H378.961ZM370.57 87.1016C370.57 85.9766 370.977 85.0547 371.789 84.3359C372.602 83.6172 373.656 83.2578 374.953 83.2578C376.25 83.2578 377.305 83.6172 378.117 84.3359C378.93 85.0547 379.336 85.9766 379.336 87.1016C379.336 88.2266 378.93 89.1484 378.117 89.8672C377.305 90.5859 376.25 90.9453 374.953 90.9453C373.656 90.9453 372.602 90.5859 371.789 89.8672C370.977 89.1484 370.57 88.2266 370.57 87.1016ZM382.852 106.578V106.086C382.852 104.227 383.117 102.516 383.648 100.953C384.18 99.375 384.961 98.0078 385.992 96.8516C387.023 95.6953 388.297 94.7969 389.812 94.1562C391.328 93.5 393.078 93.1719 395.062 93.1719C397.062 93.1719 398.82 93.5 400.336 94.1562C401.867 94.7969 403.148 95.6953 404.18 96.8516C405.211 98.0078 405.992 99.375 406.523 100.953C407.055 102.516 407.32 104.227 407.32 106.086V106.578C407.32 108.422 407.055 110.133 406.523 111.711C405.992 113.273 405.211 114.641 404.18 115.812C403.148 116.969 401.875 117.867 400.359 118.508C398.844 119.148 397.094 119.469 395.109 119.469C393.125 119.469 391.367 119.148 389.836 118.508C388.305 117.867 387.023 116.969 385.992 115.812C384.961 114.641 384.18 113.273 383.648 111.711C383.117 110.133 382.852 108.422 382.852 106.578ZM390.75 106.086V106.578C390.75 107.531 390.82 108.422 390.961 109.25C391.102 110.078 391.336 110.805 391.664 111.43C391.992 112.039 392.438 112.516 393 112.859C393.562 113.203 394.266 113.375 395.109 113.375C395.938 113.375 396.625 113.203 397.172 112.859C397.734 112.516 398.18 112.039 398.508 111.43C398.836 110.805 399.07 110.078 399.211 109.25C399.352 108.422 399.422 107.531 399.422 106.578V106.086C399.422 105.164 399.352 104.297 399.211 103.484C399.07 102.656 398.836 101.93 398.508 101.305C398.18 100.664 397.734 100.164 397.172 99.8047C396.609 99.4453 395.906 99.2656 395.062 99.2656C394.234 99.2656 393.539 99.4453 392.977 99.8047C392.43 100.164 391.992 100.664 391.664 101.305C391.336 101.93 391.102 102.656 390.961 103.484C390.82 104.297 390.75 105.164 390.75 106.086ZM418.594 99.0547V119H410.695V93.6406H418.102L418.594 99.0547ZM417.656 105.453L415.805 105.5C415.805 103.562 416.039 101.836 416.508 100.32C416.977 98.7891 417.641 97.4922 418.5 96.4297C419.359 95.3672 420.383 94.5625 421.57 94.0156C422.773 93.4531 424.109 93.1719 425.578 93.1719C426.75 93.1719 427.82 93.3438 428.789 93.6875C429.773 94.0312 430.617 94.5859 431.32 95.3516C432.039 96.1172 432.586 97.1328 432.961 98.3984C433.352 99.6484 433.547 101.195 433.547 103.039V119H425.602V103.016C425.602 102 425.461 101.227 425.18 100.695C424.898 100.148 424.492 99.7734 423.961 99.5703C423.43 99.3672 422.781 99.2656 422.016 99.2656C421.203 99.2656 420.516 99.4219 419.953 99.7344C419.391 100.047 418.938 100.484 418.594 101.047C418.266 101.594 418.023 102.242 417.867 102.992C417.727 103.742 417.656 104.562 417.656 105.453Z" fill="black"/>
<path d="M1134 0H1348C1356.28 0 1363 6.71573 1363 15V148C1363 156.284 1356.28 163 1348 163H1134V0Z" fill="#C9001C"/>
<path d="M1281 46.5H1216L1213.5 49V114L1216 116.5H1281L1283.5 114V49L1281 46.5ZM1278.5 111.5H1233.5V101.5H1245C1246.5 104.5 1250 106.5 1253.5 106.5C1259 106.5 1263.5 102 1263.5 96.5C1263.5 91 1259 86.5 1253.5 86.5C1248 86.5 1243.5 91 1243.5 96.5H1228.5V111.5H1218.5V51.5H1228.5V63C1225.5 64.5 1223.5 68 1223.5 71.5C1223.5 77 1228 81.5 1233.5 81.5C1239 81.5 1243.5 77 1243.5 71.5H1253.5C1253.5 77 1258 81.5 1263.5 81.5C1269 81.5 1273.5 77 1273.5 71.5C1273.5 66 1269 61.5 1263.5 61.5C1260 61.5 1256.5 63.5 1255 66.5H1242C1240.5 63.5 1237 61.5 1233.5 61.5V51.5H1278.5V111.5ZM1248.5 96.5C1248.5 93.5 1250.5 91.5 1253.5 91.5C1256.5 91.5 1258.5 93.5 1258.5 96.5C1258.5 99.5 1256.5 101.5 1253.5 101.5C1250.5 101.5 1248.5 99.5 1248.5 96.5ZM1233.5 66.5C1236.5 66.5 1238.5 68.5 1238.5 71.5C1238.5 74.5 1236.5 76.5 1233.5 76.5C1230.5 76.5 1228.5 74.5 1228.5 71.5C1228.5 68.5 1230.5 66.5 1233.5 66.5ZM1263.5 66.5C1266.5 66.5 1268.5 68.5 1268.5 71.5C1268.5 74.5 1266.5 76.5 1263.5 76.5C1260.5 76.5 1258.5 74.5 1258.5 71.5C1258.5 68.5 1260.5 66.5 1263.5 66.5Z" fill="white"/>
</svg>
