<svg width="1363" height="163" viewBox="0 0 1363 163" fill="none" xmlns="http://www.w3.org/2000/svg">
<path d="M0 15C0 6.71573 6.71573 0 15 0H37V163H15C6.71573 163 0 156.284 0 148V15Z" fill="#424242"/>
<rect width="1097" height="163" transform="translate(37)" fill="#F0F0F0"/>
<path d="M101.906 53.9219L94.3945 51.2383V48.0859L104.602 52.375V54.6367L101.906 53.9219ZM94.3945 56.1719L101.918 53.4297L104.602 52.7852V55.0352L94.3945 59.3242V56.1719ZM116.414 43.9375V61H112.898V43.9375H116.414ZM123.211 51.2266V53.9688H115.453V51.2266H123.211ZM124.031 43.9375V46.6914H115.453V43.9375H124.031ZM132.305 58.1406V52.4922C132.305 52.0859 132.238 51.7383 132.105 51.4492C131.973 51.1523 131.766 50.9219 131.484 50.7578C131.211 50.5938 130.855 50.5117 130.418 50.5117C130.043 50.5117 129.719 50.5781 129.445 50.7109C129.172 50.8359 128.961 51.0195 128.812 51.2617C128.664 51.4961 128.59 51.7734 128.59 52.0938H125.215C125.215 51.5547 125.34 51.043 125.59 50.5586C125.84 50.0742 126.203 49.6484 126.68 49.2812C127.156 48.9062 127.723 48.6133 128.379 48.4023C129.043 48.1914 129.785 48.0859 130.605 48.0859C131.59 48.0859 132.465 48.25 133.23 48.5781C133.996 48.9062 134.598 49.3984 135.035 50.0547C135.48 50.7109 135.703 51.5312 135.703 52.5156V57.9414C135.703 58.6367 135.746 59.207 135.832 59.6523C135.918 60.0898 136.043 60.4727 136.207 60.8008V61H132.797C132.633 60.6562 132.508 60.2266 132.422 59.7109C132.344 59.1875 132.305 58.6641 132.305 58.1406ZM132.75 53.2773L132.773 55.1875H130.887C130.441 55.1875 130.055 55.2383 129.727 55.3398C129.398 55.4414 129.129 55.5859 128.918 55.7734C128.707 55.9531 128.551 56.1641 128.449 56.4062C128.355 56.6484 128.309 56.9141 128.309 57.2031C128.309 57.4922 128.375 57.7539 128.508 57.9883C128.641 58.2148 128.832 58.3945 129.082 58.5273C129.332 58.6523 129.625 58.7148 129.961 58.7148C130.469 58.7148 130.91 58.6133 131.285 58.4102C131.66 58.207 131.949 57.957 132.152 57.6602C132.363 57.3633 132.473 57.082 132.48 56.8164L133.371 58.2461C133.246 58.5664 133.074 58.8984 132.855 59.2422C132.645 59.5859 132.375 59.9102 132.047 60.2148C131.719 60.5117 131.324 60.7578 130.863 60.9531C130.402 61.1406 129.855 61.2344 129.223 61.2344C128.418 61.2344 127.688 61.0742 127.031 60.7539C126.383 60.4258 125.867 59.9766 125.484 59.4062C125.109 58.8281 124.922 58.1719 124.922 57.4375C124.922 56.7734 125.047 56.1836 125.297 55.668C125.547 55.1523 125.914 54.7188 126.398 54.3672C126.891 54.0078 127.504 53.7383 128.238 53.5586C128.973 53.3711 129.824 53.2773 130.793 53.2773H132.75ZM144.516 48.3203V50.7109H137.133V48.3203H144.516ZM138.961 45.1914H142.336V57.1797C142.336 57.5469 142.383 57.8281 142.477 58.0234C142.578 58.2188 142.727 58.3555 142.922 58.4336C143.117 58.5039 143.363 58.5391 143.66 58.5391C143.871 58.5391 144.059 58.5312 144.223 58.5156C144.395 58.4922 144.539 58.4688 144.656 58.4453L144.668 60.9297C144.379 61.0234 144.066 61.0977 143.73 61.1523C143.395 61.207 143.023 61.2344 142.617 61.2344C141.875 61.2344 141.227 61.1133 140.672 60.8711C140.125 60.6211 139.703 60.2227 139.406 59.6758C139.109 59.1289 138.961 58.4102 138.961 57.5195V45.1914ZM153.281 58.1406V52.4922C153.281 52.0859 153.215 51.7383 153.082 51.4492C152.949 51.1523 152.742 50.9219 152.461 50.7578C152.188 50.5938 151.832 50.5117 151.395 50.5117C151.02 50.5117 150.695 50.5781 150.422 50.7109C150.148 50.8359 149.938 51.0195 149.789 51.2617C149.641 51.4961 149.566 51.7734 149.566 52.0938H146.191C146.191 51.5547 146.316 51.043 146.566 50.5586C146.816 50.0742 147.18 49.6484 147.656 49.2812C148.133 48.9062 148.699 48.6133 149.355 48.4023C150.02 48.1914 150.762 48.0859 151.582 48.0859C152.566 48.0859 153.441 48.25 154.207 48.5781C154.973 48.9062 155.574 49.3984 156.012 50.0547C156.457 50.7109 156.68 51.5312 156.68 52.5156V57.9414C156.68 58.6367 156.723 59.207 156.809 59.6523C156.895 60.0898 157.02 60.4727 157.184 60.8008V61H153.773C153.609 60.6562 153.484 60.2266 153.398 59.7109C153.32 59.1875 153.281 58.6641 153.281 58.1406ZM153.727 53.2773L153.75 55.1875H151.863C151.418 55.1875 151.031 55.2383 150.703 55.3398C150.375 55.4414 150.105 55.5859 149.895 55.7734C149.684 55.9531 149.527 56.1641 149.426 56.4062C149.332 56.6484 149.285 56.9141 149.285 57.2031C149.285 57.4922 149.352 57.7539 149.484 57.9883C149.617 58.2148 149.809 58.3945 150.059 58.5273C150.309 58.6523 150.602 58.7148 150.938 58.7148C151.445 58.7148 151.887 58.6133 152.262 58.4102C152.637 58.207 152.926 57.957 153.129 57.6602C153.34 57.3633 153.449 57.082 153.457 56.8164L154.348 58.2461C154.223 58.5664 154.051 58.8984 153.832 59.2422C153.621 59.5859 153.352 59.9102 153.023 60.2148C152.695 60.5117 152.301 60.7578 151.84 60.9531C151.379 61.1406 150.832 61.2344 150.199 61.2344C149.395 61.2344 148.664 61.0742 148.008 60.7539C147.359 60.4258 146.844 59.9766 146.461 59.4062C146.086 58.8281 145.898 58.1719 145.898 57.4375C145.898 56.7734 146.023 56.1836 146.273 55.668C146.523 55.1523 146.891 54.7188 147.375 54.3672C147.867 54.0078 148.48 53.7383 149.215 53.5586C149.949 53.3711 150.801 53.2773 151.77 53.2773H153.727ZM162.844 43V61H159.457V43H162.844ZM178.5 53.5117H174.117L174.094 51.0977H177.773C178.422 51.0977 178.953 51.0156 179.367 50.8516C179.781 50.6797 180.09 50.4336 180.293 50.1133C180.504 49.7852 180.609 49.3867 180.609 48.918C180.609 48.3867 180.508 47.957 180.305 47.6289C180.109 47.3008 179.801 47.0625 179.379 46.9141C178.965 46.7656 178.43 46.6914 177.773 46.6914H175.336V61H171.82V43.9375H177.773C178.766 43.9375 179.652 44.0312 180.434 44.2188C181.223 44.4062 181.891 44.6914 182.438 45.0742C182.984 45.457 183.402 45.9414 183.691 46.5273C183.98 47.1055 184.125 47.793 184.125 48.5898C184.125 49.293 183.965 49.9414 183.645 50.5352C183.332 51.1289 182.836 51.6133 182.156 51.9883C181.484 52.3633 180.605 52.5703 179.52 52.6094L178.5 53.5117ZM178.348 61H173.156L174.527 58.2578H178.348C178.965 58.2578 179.469 58.1602 179.859 57.9648C180.25 57.7617 180.539 57.4883 180.727 57.1445C180.914 56.8008 181.008 56.4062 181.008 55.9609C181.008 55.4609 180.922 55.0273 180.75 54.6602C180.586 54.293 180.32 54.0117 179.953 53.8164C179.586 53.6133 179.102 53.5117 178.5 53.5117H175.113L175.137 51.0977H179.355L180.164 52.0469C181.203 52.0312 182.039 52.2148 182.672 52.5977C183.312 52.9727 183.777 53.4609 184.066 54.0625C184.363 54.6641 184.512 55.3086 184.512 55.9961C184.512 57.0898 184.273 58.0117 183.797 58.7617C183.32 59.5039 182.621 60.0625 181.699 60.4375C180.785 60.8125 179.668 61 178.348 61ZM190.312 51.0859V61H186.938V48.3203H190.113L190.312 51.0859ZM194.133 48.2383L194.074 51.3672C193.91 51.3438 193.711 51.3242 193.477 51.3086C193.25 51.2852 193.043 51.2734 192.855 51.2734C192.379 51.2734 191.965 51.3359 191.613 51.4609C191.27 51.5781 190.98 51.7539 190.746 51.9883C190.52 52.2227 190.348 52.5078 190.23 52.8438C190.121 53.1797 190.059 53.5625 190.043 53.9922L189.363 53.7812C189.363 52.9609 189.445 52.207 189.609 51.5195C189.773 50.8242 190.012 50.2188 190.324 49.7031C190.645 49.1875 191.035 48.7891 191.496 48.5078C191.957 48.2266 192.484 48.0859 193.078 48.0859C193.266 48.0859 193.457 48.1016 193.652 48.1328C193.848 48.1562 194.008 48.1914 194.133 48.2383ZM201.328 61.2344C200.344 61.2344 199.461 61.0781 198.68 60.7656C197.898 60.4453 197.234 60.0039 196.688 59.4414C196.148 58.8789 195.734 58.2266 195.445 57.4844C195.156 56.7344 195.012 55.9375 195.012 55.0938V54.625C195.012 53.6641 195.148 52.7852 195.422 51.9883C195.695 51.1914 196.086 50.5 196.594 49.9141C197.109 49.3281 197.734 48.8789 198.469 48.5664C199.203 48.2461 200.031 48.0859 200.953 48.0859C201.852 48.0859 202.648 48.2344 203.344 48.5312C204.039 48.8281 204.621 49.25 205.09 49.7969C205.566 50.3438 205.926 51 206.168 51.7656C206.41 52.5234 206.531 53.3672 206.531 54.2969V55.7031H196.453V53.4531H203.215V53.1953C203.215 52.7266 203.129 52.3086 202.957 51.9414C202.793 51.5664 202.543 51.2695 202.207 51.0508C201.871 50.832 201.441 50.7227 200.918 50.7227C200.473 50.7227 200.09 50.8203 199.77 51.0156C199.449 51.2109 199.188 51.4844 198.984 51.8359C198.789 52.1875 198.641 52.6016 198.539 53.0781C198.445 53.5469 198.398 54.0625 198.398 54.625V55.0938C198.398 55.6016 198.469 56.0703 198.609 56.5C198.758 56.9297 198.965 57.3008 199.23 57.6133C199.504 57.9258 199.832 58.168 200.215 58.3398C200.605 58.5117 201.047 58.5977 201.539 58.5977C202.148 58.5977 202.715 58.4805 203.238 58.2461C203.77 58.0039 204.227 57.6406 204.609 57.1562L206.25 58.9375C205.984 59.3203 205.621 59.6875 205.16 60.0391C204.707 60.3906 204.16 60.6797 203.52 60.9062C202.879 61.125 202.148 61.2344 201.328 61.2344ZM215.297 58.1406V52.4922C215.297 52.0859 215.23 51.7383 215.098 51.4492C214.965 51.1523 214.758 50.9219 214.477 50.7578C214.203 50.5938 213.848 50.5117 213.41 50.5117C213.035 50.5117 212.711 50.5781 212.438 50.7109C212.164 50.8359 211.953 51.0195 211.805 51.2617C211.656 51.4961 211.582 51.7734 211.582 52.0938H208.207C208.207 51.5547 208.332 51.043 208.582 50.5586C208.832 50.0742 209.195 49.6484 209.672 49.2812C210.148 48.9062 210.715 48.6133 211.371 48.4023C212.035 48.1914 212.777 48.0859 213.598 48.0859C214.582 48.0859 215.457 48.25 216.223 48.5781C216.988 48.9062 217.59 49.3984 218.027 50.0547C218.473 50.7109 218.695 51.5312 218.695 52.5156V57.9414C218.695 58.6367 218.738 59.207 218.824 59.6523C218.91 60.0898 219.035 60.4727 219.199 60.8008V61H215.789C215.625 60.6562 215.5 60.2266 215.414 59.7109C215.336 59.1875 215.297 58.6641 215.297 58.1406ZM215.742 53.2773L215.766 55.1875H213.879C213.434 55.1875 213.047 55.2383 212.719 55.3398C212.391 55.4414 212.121 55.5859 211.91 55.7734C211.699 55.9531 211.543 56.1641 211.441 56.4062C211.348 56.6484 211.301 56.9141 211.301 57.2031C211.301 57.4922 211.367 57.7539 211.5 57.9883C211.633 58.2148 211.824 58.3945 212.074 58.5273C212.324 58.6523 212.617 58.7148 212.953 58.7148C213.461 58.7148 213.902 58.6133 214.277 58.4102C214.652 58.207 214.941 57.957 215.145 57.6602C215.355 57.3633 215.465 57.082 215.473 56.8164L216.363 58.2461C216.238 58.5664 216.066 58.8984 215.848 59.2422C215.637 59.5859 215.367 59.9102 215.039 60.2148C214.711 60.5117 214.316 60.7578 213.855 60.9531C213.395 61.1406 212.848 61.2344 212.215 61.2344C211.41 61.2344 210.68 61.0742 210.023 60.7539C209.375 60.4258 208.859 59.9766 208.477 59.4062C208.102 58.8281 207.914 58.1719 207.914 57.4375C207.914 56.7734 208.039 56.1836 208.289 55.668C208.539 55.1523 208.906 54.7188 209.391 54.3672C209.883 54.0078 210.496 53.7383 211.23 53.5586C211.965 53.3711 212.816 53.2773 213.785 53.2773H215.742ZM227.508 48.3203V50.7109H220.125V48.3203H227.508ZM221.953 45.1914H225.328V57.1797C225.328 57.5469 225.375 57.8281 225.469 58.0234C225.57 58.2188 225.719 58.3555 225.914 58.4336C226.109 58.5039 226.355 58.5391 226.652 58.5391C226.863 58.5391 227.051 58.5312 227.215 58.5156C227.387 58.4922 227.531 58.4688 227.648 58.4453L227.66 60.9297C227.371 61.0234 227.059 61.0977 226.723 61.1523C226.387 61.207 226.016 61.2344 225.609 61.2344C224.867 61.2344 224.219 61.1133 223.664 60.8711C223.117 60.6211 222.695 60.2227 222.398 59.6758C222.102 59.1289 221.953 58.4102 221.953 57.5195V45.1914ZM232.723 43V61H229.348V43H232.723ZM232.242 54.2148H231.316C231.324 53.332 231.441 52.5195 231.668 51.7773C231.895 51.0273 232.219 50.3789 232.641 49.832C233.062 49.2773 233.566 48.8477 234.152 48.543C234.746 48.2383 235.402 48.0859 236.121 48.0859C236.746 48.0859 237.312 48.1758 237.82 48.3555C238.336 48.5273 238.777 48.8086 239.145 49.1992C239.52 49.582 239.809 50.0859 240.012 50.7109C240.215 51.3359 240.316 52.0938 240.316 52.9844V61H236.918V52.9609C236.918 52.3984 236.836 51.957 236.672 51.6367C236.516 51.3086 236.285 51.0781 235.98 50.9453C235.684 50.8047 235.316 50.7344 234.879 50.7344C234.395 50.7344 233.98 50.8242 233.637 51.0039C233.301 51.1836 233.031 51.4336 232.828 51.7539C232.625 52.0664 232.477 52.4336 232.383 52.8555C232.289 53.2773 232.242 53.7305 232.242 54.2148Z" fill="#888888"/>
<path d="M109.219 107.422H100.734V101.07H109.219C110.375 101.07 111.312 100.875 112.031 100.484C112.75 100.094 113.273 99.5547 113.602 98.8672C113.945 98.1641 114.117 97.375 114.117 96.5C114.117 95.5625 113.945 94.6953 113.602 93.8984C113.273 93.1016 112.75 92.4609 112.031 91.9766C111.312 91.4766 110.375 91.2266 109.219 91.2266H103.828V119H95.6016V84.875H109.219C111.953 84.875 114.305 85.375 116.273 86.375C118.258 87.375 119.781 88.75 120.844 90.5C121.906 92.2344 122.438 94.2188 122.438 96.4531C122.438 98.6562 121.906 100.578 120.844 102.219C119.781 103.859 118.258 105.141 116.273 106.062C114.305 106.969 111.953 107.422 109.219 107.422ZM134.461 99.9219V119H126.562V93.6406H133.945L134.461 99.9219ZM141.961 93.4531L141.82 100.789C141.508 100.758 141.086 100.719 140.555 100.672C140.023 100.625 139.578 100.602 139.219 100.602C138.297 100.602 137.5 100.711 136.828 100.93C136.172 101.133 135.625 101.445 135.188 101.867C134.766 102.273 134.453 102.789 134.25 103.414C134.062 104.039 133.977 104.766 133.992 105.594L132.562 104.656C132.562 102.953 132.727 101.406 133.055 100.016C133.398 98.6094 133.883 97.3984 134.508 96.3828C135.133 95.3516 135.891 94.5625 136.781 94.0156C137.672 93.4531 138.672 93.1719 139.781 93.1719C140.172 93.1719 140.555 93.1953 140.93 93.2422C141.32 93.2891 141.664 93.3594 141.961 93.4531ZM142.852 106.578V106.086C142.852 104.227 143.117 102.516 143.648 100.953C144.18 99.375 144.961 98.0078 145.992 96.8516C147.023 95.6953 148.297 94.7969 149.812 94.1562C151.328 93.5 153.078 93.1719 155.062 93.1719C157.062 93.1719 158.82 93.5 160.336 94.1562C161.867 94.7969 163.148 95.6953 164.18 96.8516C165.211 98.0078 165.992 99.375 166.523 100.953C167.055 102.516 167.32 104.227 167.32 106.086V106.578C167.32 108.422 167.055 110.133 166.523 111.711C165.992 113.273 165.211 114.641 164.18 115.812C163.148 116.969 161.875 117.867 160.359 118.508C158.844 119.148 157.094 119.469 155.109 119.469C153.125 119.469 151.367 119.148 149.836 118.508C148.305 117.867 147.023 116.969 145.992 115.812C144.961 114.641 144.18 113.273 143.648 111.711C143.117 110.133 142.852 108.422 142.852 106.578ZM150.75 106.086V106.578C150.75 107.531 150.82 108.422 150.961 109.25C151.102 110.078 151.336 110.805 151.664 111.43C151.992 112.039 152.438 112.516 153 112.859C153.562 113.203 154.266 113.375 155.109 113.375C155.938 113.375 156.625 113.203 157.172 112.859C157.734 112.516 158.18 112.039 158.508 111.43C158.836 110.805 159.07 110.078 159.211 109.25C159.352 108.422 159.422 107.531 159.422 106.578V106.086C159.422 105.164 159.352 104.297 159.211 103.484C159.07 102.656 158.836 101.93 158.508 101.305C158.18 100.664 157.734 100.164 157.172 99.8047C156.609 99.4453 155.906 99.2656 155.062 99.2656C154.234 99.2656 153.539 99.4453 152.977 99.8047C152.43 100.164 151.992 100.664 151.664 101.305C151.336 101.93 151.102 102.656 150.961 103.484C150.82 104.297 150.75 105.164 150.75 106.086ZM171.422 93.6406H179.344V119.82C179.344 121.852 178.953 123.562 178.172 124.953C177.391 126.359 176.273 127.422 174.82 128.141C173.367 128.875 171.633 129.242 169.617 129.242C168.945 129.242 168.328 129.211 167.766 129.148C167.188 129.102 166.555 129 165.867 128.844V122.867C166.273 122.93 166.648 122.977 166.992 123.008C167.336 123.055 167.711 123.078 168.117 123.078C168.836 123.078 169.438 122.961 169.922 122.727C170.406 122.492 170.773 122.133 171.023 121.648C171.289 121.164 171.422 120.555 171.422 119.82V93.6406ZM170.836 87.1016C170.836 85.9766 171.242 85.0547 172.055 84.3359C172.867 83.6172 173.922 83.2578 175.219 83.2578C176.516 83.2578 177.57 83.6172 178.383 84.3359C179.195 85.0547 179.602 85.9766 179.602 87.1016C179.602 88.2266 179.195 89.1484 178.383 89.8672C177.57 90.5859 176.516 90.9453 175.219 90.9453C173.922 90.9453 172.867 90.5859 172.055 89.8672C171.242 89.1484 170.836 88.2266 170.836 87.1016ZM196.102 119.469C194.039 119.469 192.195 119.148 190.57 118.508C188.945 117.852 187.57 116.953 186.445 115.812C185.336 114.672 184.484 113.359 183.891 111.875C183.312 110.391 183.023 108.82 183.023 107.164V106.273C183.023 104.414 183.281 102.695 183.797 101.117C184.312 99.5234 185.078 98.1328 186.094 96.9453C187.109 95.7578 188.383 94.8359 189.914 94.1797C191.445 93.5078 193.227 93.1719 195.258 93.1719C197.055 93.1719 198.664 93.4609 200.086 94.0391C201.508 94.6172 202.711 95.4453 203.695 96.5234C204.695 97.6016 205.453 98.9062 205.969 100.438C206.5 101.969 206.766 103.688 206.766 105.594V108.805H186.047V103.859H199.055V103.25C199.07 102.406 198.922 101.688 198.609 101.094C198.312 100.5 197.875 100.047 197.297 99.7344C196.719 99.4219 196.016 99.2656 195.188 99.2656C194.328 99.2656 193.617 99.4531 193.055 99.8281C192.508 100.203 192.078 100.719 191.766 101.375C191.469 102.016 191.258 102.758 191.133 103.602C191.008 104.445 190.945 105.336 190.945 106.273V107.164C190.945 108.102 191.07 108.953 191.32 109.719C191.586 110.484 191.961 111.141 192.445 111.688C192.945 112.219 193.539 112.633 194.227 112.93C194.93 113.227 195.727 113.375 196.617 113.375C197.695 113.375 198.758 113.172 199.805 112.766C200.852 112.359 201.75 111.688 202.5 110.75L206.086 115.016C205.57 115.75 204.836 116.461 203.883 117.148C202.945 117.836 201.82 118.398 200.508 118.836C199.195 119.258 197.727 119.469 196.102 119.469ZM220.688 113.375C221.422 113.375 222.047 113.242 222.562 112.977C223.094 112.695 223.492 112.305 223.758 111.805C224.039 111.289 224.172 110.672 224.156 109.953H231.586C231.602 111.859 231.133 113.531 230.18 114.969C229.242 116.391 227.961 117.5 226.336 118.297C224.727 119.078 222.906 119.469 220.875 119.469C218.891 119.469 217.156 119.148 215.672 118.508C214.188 117.852 212.945 116.945 211.945 115.789C210.961 114.617 210.219 113.25 209.719 111.688C209.234 110.125 208.992 108.43 208.992 106.602V106.062C208.992 104.234 209.234 102.539 209.719 100.977C210.219 99.3984 210.961 98.0312 211.945 96.875C212.945 95.7031 214.18 94.7969 215.648 94.1562C217.133 93.5 218.859 93.1719 220.828 93.1719C222.938 93.1719 224.797 93.5703 226.406 94.3672C228.031 95.1641 229.305 96.3203 230.227 97.8359C231.148 99.3516 231.602 101.188 231.586 103.344H224.156C224.172 102.578 224.055 101.891 223.805 101.281C223.555 100.672 223.164 100.188 222.633 99.8281C222.117 99.4531 221.453 99.2656 220.641 99.2656C219.828 99.2656 219.172 99.4453 218.672 99.8047C218.172 100.164 217.789 100.664 217.523 101.305C217.273 101.93 217.102 102.648 217.008 103.461C216.93 104.273 216.891 105.141 216.891 106.062V106.602C216.891 107.539 216.93 108.422 217.008 109.25C217.102 110.062 217.281 110.781 217.547 111.406C217.812 112.016 218.195 112.5 218.695 112.859C219.195 113.203 219.859 113.375 220.688 113.375ZM248.32 93.6406V99.125H233.039V93.6406H248.32ZM236.25 87.3359H244.148V110.727C244.148 111.398 244.227 111.922 244.383 112.297C244.539 112.656 244.805 112.914 245.18 113.07C245.57 113.211 246.086 113.281 246.727 113.281C247.18 113.281 247.555 113.273 247.852 113.258C248.148 113.227 248.43 113.188 248.695 113.141V118.789C248.023 119.008 247.32 119.172 246.586 119.281C245.852 119.406 245.07 119.469 244.242 119.469C242.555 119.469 241.109 119.203 239.906 118.672C238.719 118.141 237.812 117.305 237.188 116.164C236.562 115.023 236.25 113.539 236.25 111.711V87.3359ZM277.406 107.422H268.922V101.07H277.406C278.562 101.07 279.5 100.875 280.219 100.484C280.938 100.094 281.461 99.5547 281.789 98.8672C282.133 98.1641 282.305 97.375 282.305 96.5C282.305 95.5625 282.133 94.6953 281.789 93.8984C281.461 93.1016 280.938 92.4609 280.219 91.9766C279.5 91.4766 278.562 91.2266 277.406 91.2266H272.016V119H263.789V84.875H277.406C280.141 84.875 282.492 85.375 284.461 86.375C286.445 87.375 287.969 88.75 289.031 90.5C290.094 92.2344 290.625 94.2188 290.625 96.4531C290.625 98.6562 290.094 100.578 289.031 102.219C287.969 103.859 286.445 105.141 284.461 106.062C282.492 106.969 280.141 107.422 277.406 107.422ZM302.414 83V119H294.516V83H302.414ZM301.477 105.453L299.625 105.5C299.625 103.719 299.844 102.078 300.281 100.578C300.719 99.0781 301.344 97.7734 302.156 96.6641C302.969 95.5547 303.945 94.6953 305.086 94.0859C306.227 93.4766 307.492 93.1719 308.883 93.1719C310.133 93.1719 311.273 93.3516 312.305 93.7109C313.352 94.0703 314.25 94.6484 315 95.4453C315.766 96.2422 316.352 97.2812 316.758 98.5625C317.18 99.8438 317.391 101.406 317.391 103.25V119H309.445V103.203C309.445 102.172 309.297 101.375 309 100.812C308.719 100.234 308.312 99.8359 307.781 99.6172C307.25 99.3828 306.602 99.2656 305.836 99.2656C304.914 99.2656 304.164 99.4219 303.586 99.7344C303.008 100.047 302.562 100.484 302.25 101.047C301.953 101.594 301.75 102.242 301.641 102.992C301.531 103.742 301.477 104.562 301.477 105.453ZM330.117 93.6406V119H322.195V93.6406H330.117ZM321.727 87.1016C321.727 85.9766 322.133 85.0547 322.945 84.3359C323.758 83.6172 324.812 83.2578 326.109 83.2578C327.406 83.2578 328.461 83.6172 329.273 84.3359C330.086 85.0547 330.492 85.9766 330.492 87.1016C330.492 88.2266 330.086 89.1484 329.273 89.8672C328.461 90.5859 327.406 90.9453 326.109 90.9453C324.812 90.9453 323.758 90.5859 322.945 89.8672C322.133 89.1484 321.727 88.2266 321.727 87.1016ZM343.336 83V119H335.414V83H343.336ZM347.227 106.578V106.086C347.227 104.227 347.492 102.516 348.023 100.953C348.555 99.375 349.336 98.0078 350.367 96.8516C351.398 95.6953 352.672 94.7969 354.188 94.1562C355.703 93.5 357.453 93.1719 359.438 93.1719C361.438 93.1719 363.195 93.5 364.711 94.1562C366.242 94.7969 367.523 95.6953 368.555 96.8516C369.586 98.0078 370.367 99.375 370.898 100.953C371.43 102.516 371.695 104.227 371.695 106.086V106.578C371.695 108.422 371.43 110.133 370.898 111.711C370.367 113.273 369.586 114.641 368.555 115.812C367.523 116.969 366.25 117.867 364.734 118.508C363.219 119.148 361.469 119.469 359.484 119.469C357.5 119.469 355.742 119.148 354.211 118.508C352.68 117.867 351.398 116.969 350.367 115.812C349.336 114.641 348.555 113.273 348.023 111.711C347.492 110.133 347.227 108.422 347.227 106.578ZM355.125 106.086V106.578C355.125 107.531 355.195 108.422 355.336 109.25C355.477 110.078 355.711 110.805 356.039 111.43C356.367 112.039 356.812 112.516 357.375 112.859C357.938 113.203 358.641 113.375 359.484 113.375C360.312 113.375 361 113.203 361.547 112.859C362.109 112.516 362.555 112.039 362.883 111.43C363.211 110.805 363.445 110.078 363.586 109.25C363.727 108.422 363.797 107.531 363.797 106.578V106.086C363.797 105.164 363.727 104.297 363.586 103.484C363.445 102.656 363.211 101.93 362.883 101.305C362.555 100.664 362.109 100.164 361.547 99.8047C360.984 99.4453 360.281 99.2656 359.438 99.2656C358.609 99.2656 357.914 99.4453 357.352 99.8047C356.805 100.164 356.367 100.664 356.039 101.305C355.711 101.93 355.477 102.656 355.336 103.484C355.195 104.297 355.125 105.164 355.125 106.086ZM388.5 111.875C388.5 111.438 388.352 111.062 388.055 110.75C387.773 110.422 387.273 110.125 386.555 109.859C385.836 109.578 384.828 109.297 383.531 109.016C382.297 108.75 381.133 108.398 380.039 107.961C378.961 107.523 378.016 106.992 377.203 106.367C376.391 105.742 375.75 105 375.281 104.141C374.828 103.281 374.602 102.297 374.602 101.188C374.602 100.109 374.828 99.0938 375.281 98.1406C375.75 97.1719 376.43 96.3203 377.32 95.5859C378.227 94.8359 379.328 94.25 380.625 93.8281C381.922 93.3906 383.398 93.1719 385.055 93.1719C387.336 93.1719 389.305 93.5234 390.961 94.2266C392.617 94.9141 393.891 95.8828 394.781 97.1328C395.688 98.3672 396.141 99.7969 396.141 101.422H388.242C388.242 100.781 388.133 100.234 387.914 99.7812C387.711 99.3281 387.375 98.9844 386.906 98.75C386.438 98.5 385.812 98.375 385.031 98.375C384.484 98.375 383.984 98.4766 383.531 98.6797C383.094 98.8828 382.742 99.1641 382.477 99.5234C382.211 99.8828 382.078 100.305 382.078 100.789C382.078 101.133 382.156 101.445 382.312 101.727C382.484 101.992 382.742 102.242 383.086 102.477C383.43 102.695 383.867 102.898 384.398 103.086C384.93 103.258 385.57 103.414 386.32 103.555C388.023 103.867 389.617 104.312 391.102 104.891C392.586 105.469 393.789 106.289 394.711 107.352C395.648 108.414 396.117 109.844 396.117 111.641C396.117 112.766 395.859 113.805 395.344 114.758C394.828 115.695 394.086 116.523 393.117 117.242C392.148 117.945 390.984 118.492 389.625 118.883C388.266 119.273 386.734 119.469 385.031 119.469C382.609 119.469 380.562 119.039 378.891 118.18C377.219 117.305 375.953 116.211 375.094 114.898C374.25 113.57 373.828 112.227 373.828 110.867H381.188C381.219 111.648 381.406 112.289 381.75 112.789C382.109 113.289 382.586 113.656 383.18 113.891C383.773 114.125 384.461 114.242 385.242 114.242C385.961 114.242 386.555 114.141 387.023 113.938C387.508 113.734 387.875 113.461 388.125 113.117C388.375 112.758 388.5 112.344 388.5 111.875ZM398.836 106.578V106.086C398.836 104.227 399.102 102.516 399.633 100.953C400.164 99.375 400.945 98.0078 401.977 96.8516C403.008 95.6953 404.281 94.7969 405.797 94.1562C407.312 93.5 409.062 93.1719 411.047 93.1719C413.047 93.1719 414.805 93.5 416.32 94.1562C417.852 94.7969 419.133 95.6953 420.164 96.8516C421.195 98.0078 421.977 99.375 422.508 100.953C423.039 102.516 423.305 104.227 423.305 106.086V106.578C423.305 108.422 423.039 110.133 422.508 111.711C421.977 113.273 421.195 114.641 420.164 115.812C419.133 116.969 417.859 117.867 416.344 118.508C414.828 119.148 413.078 119.469 411.094 119.469C409.109 119.469 407.352 119.148 405.82 118.508C404.289 117.867 403.008 116.969 401.977 115.812C400.945 114.641 400.164 113.273 399.633 111.711C399.102 110.133 398.836 108.422 398.836 106.578ZM406.734 106.086V106.578C406.734 107.531 406.805 108.422 406.945 109.25C407.086 110.078 407.32 110.805 407.648 111.43C407.977 112.039 408.422 112.516 408.984 112.859C409.547 113.203 410.25 113.375 411.094 113.375C411.922 113.375 412.609 113.203 413.156 112.859C413.719 112.516 414.164 112.039 414.492 111.43C414.82 110.805 415.055 110.078 415.195 109.25C415.336 108.422 415.406 107.531 415.406 106.578V106.086C415.406 105.164 415.336 104.297 415.195 103.484C415.055 102.656 414.82 101.93 414.492 101.305C414.164 100.664 413.719 100.164 413.156 99.8047C412.594 99.4453 411.891 99.2656 411.047 99.2656C410.219 99.2656 409.523 99.4453 408.961 99.8047C408.414 100.164 407.977 100.664 407.648 101.305C407.32 101.93 407.086 102.656 406.945 103.484C406.805 104.297 406.734 105.164 406.734 106.086ZM434.789 98.5156V128.75H426.891V93.6406H434.25L434.789 98.5156ZM450.352 106.016V106.508C450.352 108.352 450.141 110.062 449.719 111.641C449.297 113.219 448.672 114.594 447.844 115.766C447.016 116.938 445.984 117.852 444.75 118.508C443.531 119.148 442.117 119.469 440.508 119.469C438.992 119.469 437.688 119.133 436.594 118.461C435.5 117.789 434.586 116.859 433.852 115.672C433.117 114.484 432.523 113.125 432.07 111.594C431.617 110.062 431.258 108.445 430.992 106.742V106.109C431.258 104.281 431.617 102.586 432.07 101.023C432.523 99.4453 433.117 98.0703 433.852 96.8984C434.586 95.7266 435.492 94.8125 436.57 94.1562C437.664 93.5 438.969 93.1719 440.484 93.1719C442.094 93.1719 443.508 93.4766 444.727 94.0859C445.961 94.6953 446.992 95.5703 447.82 96.7109C448.664 97.8359 449.297 99.1875 449.719 100.766C450.141 102.344 450.352 104.094 450.352 106.016ZM442.453 106.508V106.016C442.453 105.031 442.383 104.133 442.242 103.32C442.102 102.492 441.875 101.773 441.562 101.164C441.266 100.555 440.867 100.086 440.367 99.7578C439.867 99.4297 439.25 99.2656 438.516 99.2656C437.672 99.2656 436.961 99.3984 436.383 99.6641C435.82 99.9141 435.367 100.305 435.023 100.836C434.695 101.352 434.461 102 434.32 102.781C434.195 103.547 434.141 104.445 434.156 105.477V107.398C434.125 108.586 434.242 109.633 434.508 110.539C434.773 111.43 435.234 112.125 435.891 112.625C436.547 113.125 437.438 113.375 438.562 113.375C439.312 113.375 439.938 113.203 440.438 112.859C440.938 112.5 441.336 112.008 441.633 111.383C441.93 110.742 442.141 110.008 442.266 109.18C442.391 108.352 442.453 107.461 442.453 106.508ZM461.602 83V119H453.703V83H461.602ZM460.664 105.453L458.812 105.5C458.812 103.719 459.031 102.078 459.469 100.578C459.906 99.0781 460.531 97.7734 461.344 96.6641C462.156 95.5547 463.133 94.6953 464.273 94.0859C465.414 93.4766 466.68 93.1719 468.07 93.1719C469.32 93.1719 470.461 93.3516 471.492 93.7109C472.539 94.0703 473.438 94.6484 474.188 95.4453C474.953 96.2422 475.539 97.2812 475.945 98.5625C476.367 99.8438 476.578 101.406 476.578 103.25V119H468.633V103.203C468.633 102.172 468.484 101.375 468.188 100.812C467.906 100.234 467.5 99.8359 466.969 99.6172C466.438 99.3828 465.789 99.2656 465.023 99.2656C464.102 99.2656 463.352 99.4219 462.773 99.7344C462.195 100.047 461.75 100.484 461.438 101.047C461.141 101.594 460.938 102.242 460.828 102.992C460.719 103.742 460.664 104.562 460.664 105.453ZM488.742 116.023L495.305 93.6406H503.789L493.594 122.773C493.375 123.414 493.086 124.102 492.727 124.836C492.367 125.586 491.875 126.297 491.25 126.969C490.625 127.641 489.82 128.188 488.836 128.609C487.867 129.031 486.664 129.242 485.227 129.242C484.461 129.242 483.898 129.203 483.539 129.125C483.195 129.062 482.664 128.945 481.945 128.773V123.125C482.148 123.125 482.32 123.125 482.461 123.125C482.617 123.125 482.789 123.125 482.977 123.125C483.82 123.125 484.492 123.039 484.992 122.867C485.508 122.695 485.898 122.445 486.164 122.117C486.445 121.789 486.664 121.391 486.82 120.922L488.742 116.023ZM487.078 93.6406L492.07 111.383L492.938 119.75H487.641L478.617 93.6406H487.078Z" fill="black"/>
<path d="M1134 0H1348C1356.28 0 1363 6.71573 1363 15V148C1363 156.284 1356.28 163 1348 163H1134V0Z" fill="#C9001C"/>
<path d="M1234.26 103.786H1262.74V109.357H1234.26V103.786ZM1239.96 114.929H1257.04V120.5H1239.96V114.929ZM1248.5 42.5C1240.95 42.5 1233.71 45.4349 1228.37 50.6592C1223.03 55.8834 1220.03 62.969 1220.03 70.3571C1219.84 74.4057 1220.63 78.4412 1222.34 82.1315C1224.05 85.8219 1226.64 89.0616 1229.88 91.5843C1232.73 94.175 1234.26 95.6514 1234.26 98.2143H1239.96C1239.96 93.0886 1236.8 90.2193 1233.72 87.4614C1231.06 85.4676 1228.94 82.8658 1227.55 79.8838C1226.15 76.9019 1225.53 73.6308 1225.72 70.3571C1225.72 64.4466 1228.12 58.7781 1232.39 54.5988C1236.67 50.4194 1242.46 48.0714 1248.5 48.0714C1254.54 48.0714 1260.33 50.4194 1264.61 54.5988C1268.88 58.7781 1271.28 64.4466 1271.28 70.3571C1271.47 73.6333 1270.84 76.9059 1269.44 79.888C1268.04 82.8701 1265.92 85.4706 1263.25 87.4614C1260.2 90.2471 1257.04 93.0329 1257.04 98.2143H1262.74C1262.74 95.6514 1264.25 94.175 1267.12 91.5564C1270.36 89.0381 1272.94 85.8031 1274.66 82.1176C1276.37 78.4321 1277.16 74.4014 1276.97 70.3571C1276.97 66.6989 1276.24 63.0765 1274.81 59.6967C1273.37 56.3169 1271.28 53.2459 1268.63 50.6592C1265.99 48.0724 1262.85 46.0205 1259.4 44.6205C1255.94 43.2205 1252.24 42.5 1248.5 42.5Z" fill="white"/>
</svg>
