<svg width="1363" height="167" viewBox="0 0 1363 167" fill="none" xmlns="http://www.w3.org/2000/svg">
<rect width="1363" height="167" rx="15" fill="#F0F0F0"/>
<path d="M0 15C0 6.71573 6.71573 0 15 0H37V167H15C6.71573 167 0 160.284 0 152V15Z" fill="#424241"/>
<path d="M100.906 50.9219L93.3945 48.2383V45.0859L103.602 49.375V51.6367L100.906 50.9219ZM93.3945 53.1719L100.918 50.4297L103.602 49.7852V52.0352L93.3945 56.3242V53.1719ZM120.781 53.5352C120.781 53.2305 120.734 52.957 120.641 52.7148C120.555 52.4648 120.391 52.2383 120.148 52.0352C119.906 51.8242 119.566 51.6172 119.129 51.4141C118.691 51.2109 118.125 51 117.43 50.7812C116.656 50.5312 115.922 50.25 115.227 49.9375C114.539 49.625 113.93 49.2617 113.398 48.8477C112.875 48.4258 112.461 47.9375 112.156 47.3828C111.859 46.8281 111.711 46.1836 111.711 45.4492C111.711 44.7383 111.867 44.0938 112.18 43.5156C112.492 42.9297 112.93 42.4297 113.492 42.0156C114.055 41.5938 114.719 41.2695 115.484 41.043C116.258 40.8164 117.105 40.7031 118.027 40.7031C119.285 40.7031 120.383 40.9297 121.32 41.3828C122.258 41.8359 122.984 42.457 123.5 43.2461C124.023 44.0352 124.285 44.9375 124.285 45.9531H120.793C120.793 45.4531 120.688 45.0156 120.477 44.6406C120.273 44.2578 119.961 43.957 119.539 43.7383C119.125 43.5195 118.602 43.4102 117.969 43.4102C117.359 43.4102 116.852 43.5039 116.445 43.6914C116.039 43.8711 115.734 44.1172 115.531 44.4297C115.328 44.7344 115.227 45.0781 115.227 45.4609C115.227 45.75 115.297 46.0117 115.438 46.2461C115.586 46.4805 115.805 46.6992 116.094 46.9023C116.383 47.1055 116.738 47.2969 117.16 47.4766C117.582 47.6562 118.07 47.832 118.625 48.0039C119.555 48.2852 120.371 48.6016 121.074 48.9531C121.785 49.3047 122.379 49.6992 122.855 50.1367C123.332 50.5742 123.691 51.0703 123.934 51.625C124.176 52.1797 124.297 52.8086 124.297 53.5117C124.297 54.2539 124.152 54.918 123.863 55.5039C123.574 56.0898 123.156 56.5859 122.609 56.9922C122.062 57.3984 121.41 57.707 120.652 57.918C119.895 58.1289 119.047 58.2344 118.109 58.2344C117.266 58.2344 116.434 58.125 115.613 57.9062C114.793 57.6797 114.047 57.3398 113.375 56.8867C112.711 56.4336 112.18 55.8555 111.781 55.1523C111.383 54.4492 111.184 53.6172 111.184 52.6562H114.711C114.711 53.1875 114.793 53.6367 114.957 54.0039C115.121 54.3711 115.352 54.668 115.648 54.8945C115.953 55.1211 116.312 55.2852 116.727 55.3867C117.148 55.4883 117.609 55.5391 118.109 55.5391C118.719 55.5391 119.219 55.4531 119.609 55.2812C120.008 55.1094 120.301 54.8711 120.488 54.5664C120.684 54.2617 120.781 53.918 120.781 53.5352ZM125.938 51.7891V51.543C125.938 50.6133 126.07 49.7578 126.336 48.9766C126.602 48.1875 126.988 47.5039 127.496 46.9258C128.004 46.3477 128.629 45.8984 129.371 45.5781C130.113 45.25 130.965 45.0859 131.926 45.0859C132.887 45.0859 133.742 45.25 134.492 45.5781C135.242 45.8984 135.871 46.3477 136.379 46.9258C136.895 47.5039 137.285 48.1875 137.551 48.9766C137.816 49.7578 137.949 50.6133 137.949 51.543V51.7891C137.949 52.7109 137.816 53.5664 137.551 54.3555C137.285 55.1367 136.895 55.8203 136.379 56.4062C135.871 56.9844 135.246 57.4336 134.504 57.7539C133.762 58.0742 132.91 58.2344 131.949 58.2344C130.988 58.2344 130.133 58.0742 129.383 57.7539C128.641 57.4336 128.012 56.9844 127.496 56.4062C126.988 55.8203 126.602 55.1367 126.336 54.3555C126.07 53.5664 125.938 52.7109 125.938 51.7891ZM129.312 51.543V51.7891C129.312 52.3203 129.359 52.8164 129.453 53.2773C129.547 53.7383 129.695 54.1445 129.898 54.4961C130.109 54.8398 130.383 55.1094 130.719 55.3047C131.055 55.5 131.465 55.5977 131.949 55.5977C132.418 55.5977 132.82 55.5 133.156 55.3047C133.492 55.1094 133.762 54.8398 133.965 54.4961C134.168 54.1445 134.316 53.7383 134.41 53.2773C134.512 52.8164 134.562 52.3203 134.562 51.7891V51.543C134.562 51.0273 134.512 50.543 134.41 50.0898C134.316 49.6289 134.164 49.2227 133.953 48.8711C133.75 48.5117 133.48 48.2305 133.145 48.0273C132.809 47.8242 132.402 47.7227 131.926 47.7227C131.449 47.7227 131.043 47.8242 130.707 48.0273C130.379 48.2305 130.109 48.5117 129.898 48.8711C129.695 49.2227 129.547 49.6289 129.453 50.0898C129.359 50.543 129.312 51.0273 129.312 51.543ZM143.586 40V58H140.199V40H143.586ZM153.219 55.1406V49.4922C153.219 49.0859 153.152 48.7383 153.02 48.4492C152.887 48.1523 152.68 47.9219 152.398 47.7578C152.125 47.5938 151.77 47.5117 151.332 47.5117C150.957 47.5117 150.633 47.5781 150.359 47.7109C150.086 47.8359 149.875 48.0195 149.727 48.2617C149.578 48.4961 149.504 48.7734 149.504 49.0938H146.129C146.129 48.5547 146.254 48.043 146.504 47.5586C146.754 47.0742 147.117 46.6484 147.594 46.2812C148.07 45.9062 148.637 45.6133 149.293 45.4023C149.957 45.1914 150.699 45.0859 151.52 45.0859C152.504 45.0859 153.379 45.25 154.145 45.5781C154.91 45.9062 155.512 46.3984 155.949 47.0547C156.395 47.7109 156.617 48.5312 156.617 49.5156V54.9414C156.617 55.6367 156.66 56.207 156.746 56.6523C156.832 57.0898 156.957 57.4727 157.121 57.8008V58H153.711C153.547 57.6562 153.422 57.2266 153.336 56.7109C153.258 56.1875 153.219 55.6641 153.219 55.1406ZM153.664 50.2773L153.688 52.1875H151.801C151.355 52.1875 150.969 52.2383 150.641 52.3398C150.312 52.4414 150.043 52.5859 149.832 52.7734C149.621 52.9531 149.465 53.1641 149.363 53.4062C149.27 53.6484 149.223 53.9141 149.223 54.2031C149.223 54.4922 149.289 54.7539 149.422 54.9883C149.555 55.2148 149.746 55.3945 149.996 55.5273C150.246 55.6523 150.539 55.7148 150.875 55.7148C151.383 55.7148 151.824 55.6133 152.199 55.4102C152.574 55.207 152.863 54.957 153.066 54.6602C153.277 54.3633 153.387 54.082 153.395 53.8164L154.285 55.2461C154.16 55.5664 153.988 55.8984 153.77 56.2422C153.559 56.5859 153.289 56.9102 152.961 57.2148C152.633 57.5117 152.238 57.7578 151.777 57.9531C151.316 58.1406 150.77 58.2344 150.137 58.2344C149.332 58.2344 148.602 58.0742 147.945 57.7539C147.297 57.4258 146.781 56.9766 146.398 56.4062C146.023 55.8281 145.836 55.1719 145.836 54.4375C145.836 53.7734 145.961 53.1836 146.211 52.668C146.461 52.1523 146.828 51.7188 147.312 51.3672C147.805 51.0078 148.418 50.7383 149.152 50.5586C149.887 50.3711 150.738 50.2773 151.707 50.2773H153.664ZM162.594 48.0859V58H159.219V45.3203H162.395L162.594 48.0859ZM166.414 45.2383L166.355 48.3672C166.191 48.3438 165.992 48.3242 165.758 48.3086C165.531 48.2852 165.324 48.2734 165.137 48.2734C164.66 48.2734 164.246 48.3359 163.895 48.4609C163.551 48.5781 163.262 48.7539 163.027 48.9883C162.801 49.2227 162.629 49.5078 162.512 49.8438C162.402 50.1797 162.34 50.5625 162.324 50.9922L161.645 50.7812C161.645 49.9609 161.727 49.207 161.891 48.5195C162.055 47.8242 162.293 47.2188 162.605 46.7031C162.926 46.1875 163.316 45.7891 163.777 45.5078C164.238 45.2266 164.766 45.0859 165.359 45.0859C165.547 45.0859 165.738 45.1016 165.934 45.1328C166.129 45.1562 166.289 45.1914 166.414 45.2383ZM167.117 51.7891V51.543C167.117 50.6133 167.25 49.7578 167.516 48.9766C167.781 48.1875 168.168 47.5039 168.676 46.9258C169.184 46.3477 169.809 45.8984 170.551 45.5781C171.293 45.25 172.145 45.0859 173.105 45.0859C174.066 45.0859 174.922 45.25 175.672 45.5781C176.422 45.8984 177.051 46.3477 177.559 46.9258C178.074 47.5039 178.465 48.1875 178.73 48.9766C178.996 49.7578 179.129 50.6133 179.129 51.543V51.7891C179.129 52.7109 178.996 53.5664 178.73 54.3555C178.465 55.1367 178.074 55.8203 177.559 56.4062C177.051 56.9844 176.426 57.4336 175.684 57.7539C174.941 58.0742 174.09 58.2344 173.129 58.2344C172.168 58.2344 171.312 58.0742 170.562 57.7539C169.82 57.4336 169.191 56.9844 168.676 56.4062C168.168 55.8203 167.781 55.1367 167.516 54.3555C167.25 53.5664 167.117 52.7109 167.117 51.7891ZM170.492 51.543V51.7891C170.492 52.3203 170.539 52.8164 170.633 53.2773C170.727 53.7383 170.875 54.1445 171.078 54.4961C171.289 54.8398 171.562 55.1094 171.898 55.3047C172.234 55.5 172.645 55.5977 173.129 55.5977C173.598 55.5977 174 55.5 174.336 55.3047C174.672 55.1094 174.941 54.8398 175.145 54.4961C175.348 54.1445 175.496 53.7383 175.59 53.2773C175.691 52.8164 175.742 52.3203 175.742 51.7891V51.543C175.742 51.0273 175.691 50.543 175.59 50.0898C175.496 49.6289 175.344 49.2227 175.133 48.8711C174.93 48.5117 174.66 48.2305 174.324 48.0273C173.988 47.8242 173.582 47.7227 173.105 47.7227C172.629 47.7227 172.223 47.8242 171.887 48.0273C171.559 48.2305 171.289 48.5117 171.078 48.8711C170.875 49.2227 170.727 49.6289 170.633 50.0898C170.539 50.543 170.492 51.0273 170.492 51.543Z" fill="#888888"/>
<path d="M115.994 98.708V104.641H99.5806V98.708H115.994ZM102.151 86.0078V118H94.439V86.0078H102.151ZM121.18 86.0078V118H113.489V86.0078H121.18ZM124.805 106.354V105.893C124.805 104.15 125.054 102.546 125.552 101.081C126.05 99.6016 126.783 98.3198 127.75 97.2358C128.716 96.1519 129.91 95.3096 131.331 94.709C132.752 94.0938 134.393 93.7861 136.253 93.7861C138.128 93.7861 139.776 94.0938 141.197 94.709C142.632 95.3096 143.833 96.1519 144.8 97.2358C145.767 98.3198 146.5 99.6016 146.998 101.081C147.496 102.546 147.745 104.15 147.745 105.893V106.354C147.745 108.083 147.496 109.687 146.998 111.167C146.5 112.631 145.767 113.913 144.8 115.012C143.833 116.096 142.64 116.938 141.219 117.539C139.798 118.139 138.157 118.439 136.297 118.439C134.437 118.439 132.789 118.139 131.353 117.539C129.917 116.938 128.716 116.096 127.75 115.012C126.783 113.913 126.05 112.631 125.552 111.167C125.054 109.687 124.805 108.083 124.805 106.354ZM132.21 105.893V106.354C132.21 107.248 132.276 108.083 132.408 108.859C132.54 109.636 132.759 110.317 133.067 110.903C133.375 111.474 133.792 111.921 134.319 112.243C134.847 112.565 135.506 112.727 136.297 112.727C137.073 112.727 137.718 112.565 138.23 112.243C138.758 111.921 139.175 111.474 139.483 110.903C139.791 110.317 140.01 109.636 140.142 108.859C140.274 108.083 140.34 107.248 140.34 106.354V105.893C140.34 105.029 140.274 104.216 140.142 103.454C140.01 102.678 139.791 101.997 139.483 101.411C139.175 100.81 138.758 100.341 138.23 100.004C137.703 99.6675 137.044 99.499 136.253 99.499C135.477 99.499 134.825 99.6675 134.297 100.004C133.785 100.341 133.375 100.81 133.067 101.411C132.759 101.997 132.54 102.678 132.408 103.454C132.276 104.216 132.21 105.029 132.21 105.893ZM158.27 110.925L162.664 94.2256H167.3L165.652 102.597L161.302 118H157.588L158.27 110.925ZM156.534 94.2256L159.258 110.793L159.566 118H155.062L149.437 94.2256H156.534ZM171.211 110.441L173.958 94.2256H181.055L175.474 118H170.97L171.211 110.441ZM167.828 94.2256L172.266 110.881L172.947 118H169.19L164.927 102.641L163.345 94.2256H167.828ZM209.466 86.0078V118H201.753V86.0078H209.466ZM219.09 86.0078V91.9624H192.349V86.0078H219.09ZM216.475 106.354V105.893C216.475 104.15 216.724 102.546 217.222 101.081C217.72 99.6016 218.453 98.3198 219.419 97.2358C220.386 96.1519 221.58 95.3096 223.001 94.709C224.422 94.0938 226.062 93.7861 227.923 93.7861C229.798 93.7861 231.446 94.0938 232.867 94.709C234.302 95.3096 235.503 96.1519 236.47 97.2358C237.437 98.3198 238.169 99.6016 238.667 101.081C239.166 102.546 239.415 104.15 239.415 105.893V106.354C239.415 108.083 239.166 109.687 238.667 111.167C238.169 112.631 237.437 113.913 236.47 115.012C235.503 116.096 234.31 116.938 232.889 117.539C231.468 118.139 229.827 118.439 227.967 118.439C226.106 118.439 224.458 118.139 223.023 117.539C221.587 116.938 220.386 116.096 219.419 115.012C218.453 113.913 217.72 112.631 217.222 111.167C216.724 109.687 216.475 108.083 216.475 106.354ZM223.88 105.893V106.354C223.88 107.248 223.946 108.083 224.078 108.859C224.209 109.636 224.429 110.317 224.737 110.903C225.044 111.474 225.462 111.921 225.989 112.243C226.517 112.565 227.176 112.727 227.967 112.727C228.743 112.727 229.388 112.565 229.9 112.243C230.428 111.921 230.845 111.474 231.153 110.903C231.46 110.317 231.68 109.636 231.812 108.859C231.944 108.083 232.01 107.248 232.01 106.354V105.893C232.01 105.029 231.944 104.216 231.812 103.454C231.68 102.678 231.46 101.997 231.153 101.411C230.845 100.81 230.428 100.341 229.9 100.004C229.373 99.6675 228.714 99.499 227.923 99.499C227.146 99.499 226.495 99.6675 225.967 100.004C225.455 100.341 225.044 100.81 224.737 101.411C224.429 101.997 224.209 102.678 224.078 103.454C223.946 104.216 223.88 105.029 223.88 105.893ZM254.268 86.0078H266.858C269.319 86.0078 271.458 86.374 273.274 87.1064C275.091 87.8389 276.49 88.9229 277.471 90.3584C278.467 91.7939 278.965 93.5664 278.965 95.6758C278.965 97.5068 278.68 99.0376 278.108 100.268C277.537 101.499 276.739 102.517 275.713 103.322C274.703 104.113 273.523 104.765 272.176 105.278L269.649 106.706H259.08L259.036 100.751H266.858C267.84 100.751 268.653 100.576 269.297 100.224C269.942 99.8726 270.425 99.3745 270.748 98.73C271.084 98.0708 271.253 97.2871 271.253 96.3789C271.253 95.4561 271.084 94.665 270.748 94.0059C270.411 93.3467 269.913 92.8413 269.253 92.4897C268.609 92.1382 267.811 91.9624 266.858 91.9624H261.98V118H254.268V86.0078ZM271.78 118L264.705 103.85L272.879 103.806L280.042 117.67V118H271.78ZM297.159 112.221V94.2256H304.585V118H297.642L297.159 112.221ZM297.862 107.387L299.795 107.343C299.795 108.94 299.605 110.419 299.224 111.782C298.843 113.129 298.279 114.301 297.532 115.297C296.8 116.293 295.892 117.07 294.808 117.626C293.738 118.168 292.5 118.439 291.094 118.439C289.922 118.439 288.846 118.278 287.864 117.956C286.897 117.619 286.062 117.099 285.359 116.396C284.656 115.678 284.107 114.763 283.711 113.649C283.331 112.521 283.14 111.174 283.14 109.606V94.2256H290.545V109.65C290.545 110.178 290.611 110.632 290.743 111.013C290.875 111.394 291.065 111.716 291.314 111.979C291.563 112.229 291.871 112.419 292.237 112.551C292.618 112.668 293.05 112.727 293.533 112.727C294.646 112.727 295.518 112.492 296.148 112.023C296.778 111.555 297.217 110.917 297.466 110.112C297.73 109.306 297.862 108.398 297.862 107.387ZM315.945 99.3013V118H308.541V94.2256H315.484L315.945 99.3013ZM315.066 105.3L313.331 105.344C313.331 103.527 313.55 101.909 313.99 100.488C314.429 99.0522 315.052 97.8364 315.857 96.8403C316.663 95.8442 317.623 95.0898 318.736 94.5771C319.864 94.0498 321.116 93.7861 322.493 93.7861C323.592 93.7861 324.595 93.9473 325.503 94.2695C326.426 94.5918 327.217 95.1118 327.876 95.8296C328.55 96.5474 329.063 97.4995 329.415 98.686C329.781 99.8579 329.964 101.308 329.964 103.037V118H322.515V103.015C322.515 102.062 322.383 101.337 322.12 100.839C321.856 100.327 321.475 99.9751 320.977 99.7847C320.479 99.5942 319.871 99.499 319.153 99.499C318.392 99.499 317.747 99.6455 317.22 99.9385C316.692 100.231 316.268 100.642 315.945 101.169C315.638 101.682 315.411 102.29 315.264 102.993C315.132 103.696 315.066 104.465 315.066 105.3ZM345.85 107.871H339.544C339.544 106.582 339.632 105.446 339.808 104.465C339.998 103.469 340.32 102.575 340.774 101.784C341.229 100.993 341.844 100.261 342.62 99.5869C343.309 99.0156 343.902 98.4663 344.4 97.939C344.898 97.4116 345.279 96.877 345.542 96.335C345.806 95.793 345.938 95.2144 345.938 94.5991C345.938 93.8374 345.828 93.2148 345.608 92.7314C345.403 92.248 345.088 91.8892 344.664 91.6548C344.253 91.4058 343.733 91.2812 343.104 91.2812C342.591 91.2812 342.107 91.4058 341.653 91.6548C341.214 91.9038 340.855 92.292 340.577 92.8193C340.298 93.332 340.145 94.0132 340.115 94.8628H332.667C332.71 92.6802 333.194 90.9077 334.117 89.5454C335.054 88.1685 336.299 87.165 337.852 86.5352C339.419 85.8906 341.17 85.5684 343.104 85.5684C345.242 85.5684 347.081 85.8979 348.619 86.5571C350.157 87.2163 351.336 88.1978 352.156 89.5015C352.977 90.7905 353.387 92.3799 353.387 94.2695C353.387 95.5293 353.145 96.6279 352.662 97.5654C352.193 98.4883 351.556 99.3525 350.75 100.158C349.959 100.949 349.073 101.799 348.091 102.707C347.242 103.454 346.663 104.216 346.355 104.992C346.048 105.754 345.879 106.713 345.85 107.871ZM338.643 114.55C338.643 113.496 339.024 112.617 339.786 111.914C340.547 111.196 341.536 110.837 342.752 110.837C343.968 110.837 344.957 111.196 345.718 111.914C346.48 112.617 346.861 113.496 346.861 114.55C346.861 115.605 346.48 116.491 345.718 117.209C344.957 117.912 343.968 118.264 342.752 118.264C341.536 118.264 340.547 117.912 339.786 117.209C339.024 116.491 338.643 115.605 338.643 114.55Z" fill="#424241"/>
<path d="M1363 15C1363 6.71573 1356.28 0 1348 0H1134V167H1348C1356.28 167 1363 160.284 1363 152V15Z" fill="#F09A2A"/>
<path d="M1260.77 81.3079C1263.96 81.3079 1267.09 82.2553 1269.74 84.0303C1272.4 85.8053 1274.47 88.3282 1275.69 91.2799C1276.92 94.2316 1277.24 97.4796 1276.61 100.613C1275.99 103.747 1274.45 106.625 1272.19 108.884C1269.93 111.143 1267.05 112.682 1263.92 113.305C1260.79 113.928 1257.54 113.608 1254.59 112.386C1251.64 111.163 1249.11 109.093 1247.34 106.436C1245.56 103.78 1244.62 100.657 1244.62 97.4617C1244.62 93.1774 1246.32 89.0686 1249.35 86.0392C1252.38 83.0098 1256.48 81.3079 1260.77 81.3079ZM1260.77 75.9233C1256.51 75.9233 1252.35 77.1865 1248.8 79.5532C1245.26 81.9198 1242.5 85.2837 1240.87 89.2193C1239.24 93.1549 1238.81 97.4856 1239.64 101.664C1240.48 105.842 1242.53 109.679 1245.54 112.692C1248.55 115.704 1252.39 117.755 1256.57 118.586C1260.75 119.417 1265.08 118.991 1269.01 117.361C1272.95 115.73 1276.31 112.97 1278.68 109.428C1281.04 105.886 1282.31 101.722 1282.31 97.4617C1282.31 91.7493 1280.04 86.271 1276 82.2317C1271.96 78.1925 1266.48 75.9233 1260.77 75.9233Z" fill="white"/>
<path d="M1274.23 49H1220.38C1218.96 49 1217.59 49.5673 1216.58 50.5771C1215.57 51.5869 1215 52.9565 1215 54.3846V108.231C1215 109.659 1215.57 111.028 1216.58 112.038C1217.59 113.048 1218.96 113.615 1220.38 113.615H1231.15V108.231H1220.38V70.5384H1279.62V54.3846C1279.62 52.9565 1279.05 51.5869 1278.04 50.5771C1277.03 49.5673 1275.66 49 1274.23 49ZM1220.38 65.1538V54.3846H1274.23V65.1538H1220.38Z" fill="white"/>
<path d="M1255.38 89.3849V105.539L1268.85 97.4618L1255.38 89.3849Z" fill="white"/>
</svg>
