<svg width="1363" height="167" viewBox="0 0 1363 167" fill="none" xmlns="http://www.w3.org/2000/svg">
<rect width="1363" height="167" rx="15" fill="#F0F0F0"/>
<path d="M0 15C0 6.71573 6.71573 0 15 0H37V167H15C6.71573 167 0 160.284 0 152V15Z" fill="#424241"/>
<path d="M100.906 50.9219L93.3945 48.2383V45.0859L103.602 49.375V51.6367L100.906 50.9219ZM93.3945 53.1719L100.918 50.4297L103.602 49.7852V52.0352L93.3945 56.3242V53.1719ZM120.781 53.5352C120.781 53.2305 120.734 52.957 120.641 52.7148C120.555 52.4648 120.391 52.2383 120.148 52.0352C119.906 51.8242 119.566 51.6172 119.129 51.4141C118.691 51.2109 118.125 51 117.43 50.7812C116.656 50.5312 115.922 50.25 115.227 49.9375C114.539 49.625 113.93 49.2617 113.398 48.8477C112.875 48.4258 112.461 47.9375 112.156 47.3828C111.859 46.8281 111.711 46.1836 111.711 45.4492C111.711 44.7383 111.867 44.0938 112.18 43.5156C112.492 42.9297 112.93 42.4297 113.492 42.0156C114.055 41.5938 114.719 41.2695 115.484 41.043C116.258 40.8164 117.105 40.7031 118.027 40.7031C119.285 40.7031 120.383 40.9297 121.32 41.3828C122.258 41.8359 122.984 42.457 123.5 43.2461C124.023 44.0352 124.285 44.9375 124.285 45.9531H120.793C120.793 45.4531 120.688 45.0156 120.477 44.6406C120.273 44.2578 119.961 43.957 119.539 43.7383C119.125 43.5195 118.602 43.4102 117.969 43.4102C117.359 43.4102 116.852 43.5039 116.445 43.6914C116.039 43.8711 115.734 44.1172 115.531 44.4297C115.328 44.7344 115.227 45.0781 115.227 45.4609C115.227 45.75 115.297 46.0117 115.438 46.2461C115.586 46.4805 115.805 46.6992 116.094 46.9023C116.383 47.1055 116.738 47.2969 117.16 47.4766C117.582 47.6562 118.07 47.832 118.625 48.0039C119.555 48.2852 120.371 48.6016 121.074 48.9531C121.785 49.3047 122.379 49.6992 122.855 50.1367C123.332 50.5742 123.691 51.0703 123.934 51.625C124.176 52.1797 124.297 52.8086 124.297 53.5117C124.297 54.2539 124.152 54.918 123.863 55.5039C123.574 56.0898 123.156 56.5859 122.609 56.9922C122.062 57.3984 121.41 57.707 120.652 57.918C119.895 58.1289 119.047 58.2344 118.109 58.2344C117.266 58.2344 116.434 58.125 115.613 57.9062C114.793 57.6797 114.047 57.3398 113.375 56.8867C112.711 56.4336 112.18 55.8555 111.781 55.1523C111.383 54.4492 111.184 53.6172 111.184 52.6562H114.711C114.711 53.1875 114.793 53.6367 114.957 54.0039C115.121 54.3711 115.352 54.668 115.648 54.8945C115.953 55.1211 116.312 55.2852 116.727 55.3867C117.148 55.4883 117.609 55.5391 118.109 55.5391C118.719 55.5391 119.219 55.4531 119.609 55.2812C120.008 55.1094 120.301 54.8711 120.488 54.5664C120.684 54.2617 120.781 53.918 120.781 53.5352ZM125.938 51.7891V51.543C125.938 50.6133 126.07 49.7578 126.336 48.9766C126.602 48.1875 126.988 47.5039 127.496 46.9258C128.004 46.3477 128.629 45.8984 129.371 45.5781C130.113 45.25 130.965 45.0859 131.926 45.0859C132.887 45.0859 133.742 45.25 134.492 45.5781C135.242 45.8984 135.871 46.3477 136.379 46.9258C136.895 47.5039 137.285 48.1875 137.551 48.9766C137.816 49.7578 137.949 50.6133 137.949 51.543V51.7891C137.949 52.7109 137.816 53.5664 137.551 54.3555C137.285 55.1367 136.895 55.8203 136.379 56.4062C135.871 56.9844 135.246 57.4336 134.504 57.7539C133.762 58.0742 132.91 58.2344 131.949 58.2344C130.988 58.2344 130.133 58.0742 129.383 57.7539C128.641 57.4336 128.012 56.9844 127.496 56.4062C126.988 55.8203 126.602 55.1367 126.336 54.3555C126.07 53.5664 125.938 52.7109 125.938 51.7891ZM129.312 51.543V51.7891C129.312 52.3203 129.359 52.8164 129.453 53.2773C129.547 53.7383 129.695 54.1445 129.898 54.4961C130.109 54.8398 130.383 55.1094 130.719 55.3047C131.055 55.5 131.465 55.5977 131.949 55.5977C132.418 55.5977 132.82 55.5 133.156 55.3047C133.492 55.1094 133.762 54.8398 133.965 54.4961C134.168 54.1445 134.316 53.7383 134.41 53.2773C134.512 52.8164 134.562 52.3203 134.562 51.7891V51.543C134.562 51.0273 134.512 50.543 134.41 50.0898C134.316 49.6289 134.164 49.2227 133.953 48.8711C133.75 48.5117 133.48 48.2305 133.145 48.0273C132.809 47.8242 132.402 47.7227 131.926 47.7227C131.449 47.7227 131.043 47.8242 130.707 48.0273C130.379 48.2305 130.109 48.5117 129.898 48.8711C129.695 49.2227 129.547 49.6289 129.453 50.0898C129.359 50.543 129.312 51.0273 129.312 51.543ZM143.586 40V58H140.199V40H143.586ZM153.219 55.1406V49.4922C153.219 49.0859 153.152 48.7383 153.02 48.4492C152.887 48.1523 152.68 47.9219 152.398 47.7578C152.125 47.5938 151.77 47.5117 151.332 47.5117C150.957 47.5117 150.633 47.5781 150.359 47.7109C150.086 47.8359 149.875 48.0195 149.727 48.2617C149.578 48.4961 149.504 48.7734 149.504 49.0938H146.129C146.129 48.5547 146.254 48.043 146.504 47.5586C146.754 47.0742 147.117 46.6484 147.594 46.2812C148.07 45.9062 148.637 45.6133 149.293 45.4023C149.957 45.1914 150.699 45.0859 151.52 45.0859C152.504 45.0859 153.379 45.25 154.145 45.5781C154.91 45.9062 155.512 46.3984 155.949 47.0547C156.395 47.7109 156.617 48.5312 156.617 49.5156V54.9414C156.617 55.6367 156.66 56.207 156.746 56.6523C156.832 57.0898 156.957 57.4727 157.121 57.8008V58H153.711C153.547 57.6562 153.422 57.2266 153.336 56.7109C153.258 56.1875 153.219 55.6641 153.219 55.1406ZM153.664 50.2773L153.688 52.1875H151.801C151.355 52.1875 150.969 52.2383 150.641 52.3398C150.312 52.4414 150.043 52.5859 149.832 52.7734C149.621 52.9531 149.465 53.1641 149.363 53.4062C149.27 53.6484 149.223 53.9141 149.223 54.2031C149.223 54.4922 149.289 54.7539 149.422 54.9883C149.555 55.2148 149.746 55.3945 149.996 55.5273C150.246 55.6523 150.539 55.7148 150.875 55.7148C151.383 55.7148 151.824 55.6133 152.199 55.4102C152.574 55.207 152.863 54.957 153.066 54.6602C153.277 54.3633 153.387 54.082 153.395 53.8164L154.285 55.2461C154.16 55.5664 153.988 55.8984 153.77 56.2422C153.559 56.5859 153.289 56.9102 152.961 57.2148C152.633 57.5117 152.238 57.7578 151.777 57.9531C151.316 58.1406 150.77 58.2344 150.137 58.2344C149.332 58.2344 148.602 58.0742 147.945 57.7539C147.297 57.4258 146.781 56.9766 146.398 56.4062C146.023 55.8281 145.836 55.1719 145.836 54.4375C145.836 53.7734 145.961 53.1836 146.211 52.668C146.461 52.1523 146.828 51.7188 147.312 51.3672C147.805 51.0078 148.418 50.7383 149.152 50.5586C149.887 50.3711 150.738 50.2773 151.707 50.2773H153.664ZM162.594 48.0859V58H159.219V45.3203H162.395L162.594 48.0859ZM166.414 45.2383L166.355 48.3672C166.191 48.3438 165.992 48.3242 165.758 48.3086C165.531 48.2852 165.324 48.2734 165.137 48.2734C164.66 48.2734 164.246 48.3359 163.895 48.4609C163.551 48.5781 163.262 48.7539 163.027 48.9883C162.801 49.2227 162.629 49.5078 162.512 49.8438C162.402 50.1797 162.34 50.5625 162.324 50.9922L161.645 50.7812C161.645 49.9609 161.727 49.207 161.891 48.5195C162.055 47.8242 162.293 47.2188 162.605 46.7031C162.926 46.1875 163.316 45.7891 163.777 45.5078C164.238 45.2266 164.766 45.0859 165.359 45.0859C165.547 45.0859 165.738 45.1016 165.934 45.1328C166.129 45.1562 166.289 45.1914 166.414 45.2383ZM167.117 51.7891V51.543C167.117 50.6133 167.25 49.7578 167.516 48.9766C167.781 48.1875 168.168 47.5039 168.676 46.9258C169.184 46.3477 169.809 45.8984 170.551 45.5781C171.293 45.25 172.145 45.0859 173.105 45.0859C174.066 45.0859 174.922 45.25 175.672 45.5781C176.422 45.8984 177.051 46.3477 177.559 46.9258C178.074 47.5039 178.465 48.1875 178.73 48.9766C178.996 49.7578 179.129 50.6133 179.129 51.543V51.7891C179.129 52.7109 178.996 53.5664 178.73 54.3555C178.465 55.1367 178.074 55.8203 177.559 56.4062C177.051 56.9844 176.426 57.4336 175.684 57.7539C174.941 58.0742 174.09 58.2344 173.129 58.2344C172.168 58.2344 171.312 58.0742 170.562 57.7539C169.82 57.4336 169.191 56.9844 168.676 56.4062C168.168 55.8203 167.781 55.1367 167.516 54.3555C167.25 53.5664 167.117 52.7109 167.117 51.7891ZM170.492 51.543V51.7891C170.492 52.3203 170.539 52.8164 170.633 53.2773C170.727 53.7383 170.875 54.1445 171.078 54.4961C171.289 54.8398 171.562 55.1094 171.898 55.3047C172.234 55.5 172.645 55.5977 173.129 55.5977C173.598 55.5977 174 55.5 174.336 55.3047C174.672 55.1094 174.941 54.8398 175.145 54.4961C175.348 54.1445 175.496 53.7383 175.59 53.2773C175.691 52.8164 175.742 52.3203 175.742 51.7891V51.543C175.742 51.0273 175.691 50.543 175.59 50.0898C175.496 49.6289 175.344 49.2227 175.133 48.8711C174.93 48.5117 174.66 48.2305 174.324 48.0273C173.988 47.8242 173.582 47.7227 173.105 47.7227C172.629 47.7227 172.223 47.8242 171.887 48.0273C171.559 48.2305 171.289 48.5117 171.078 48.8711C170.875 49.2227 170.727 49.6289 170.633 50.0898C170.539 50.543 170.492 51.0273 170.492 51.543Z" fill="#888888"/>
<path d="M107.205 107.146H99.251V101.191H107.205C108.289 101.191 109.168 101.008 109.842 100.642C110.516 100.275 111.006 99.77 111.314 99.1255C111.636 98.4663 111.797 97.7266 111.797 96.9062C111.797 96.0273 111.636 95.2144 111.314 94.4673C111.006 93.7202 110.516 93.1196 109.842 92.6655C109.168 92.1968 108.289 91.9624 107.205 91.9624H102.151V118H94.439V86.0078H107.205C109.769 86.0078 111.973 86.4766 113.819 87.4141C115.679 88.3516 117.107 89.6406 118.104 91.2812C119.1 92.9072 119.598 94.7676 119.598 96.8623C119.598 98.9277 119.1 100.729 118.104 102.268C117.107 103.806 115.679 105.007 113.819 105.871C111.973 106.721 109.769 107.146 107.205 107.146ZM130.87 100.114V118H123.465V94.2256H130.386L130.87 100.114ZM137.901 94.0498L137.769 100.927C137.476 100.898 137.081 100.861 136.583 100.817C136.084 100.773 135.667 100.751 135.33 100.751C134.466 100.751 133.719 100.854 133.089 101.059C132.474 101.25 131.961 101.542 131.551 101.938C131.155 102.319 130.862 102.802 130.672 103.388C130.496 103.974 130.416 104.655 130.43 105.432L129.09 104.553C129.09 102.956 129.244 101.506 129.551 100.202C129.874 98.8838 130.328 97.7485 130.914 96.7964C131.5 95.8296 132.21 95.0898 133.045 94.5771C133.88 94.0498 134.817 93.7861 135.857 93.7861C136.224 93.7861 136.583 93.8081 136.934 93.8521C137.3 93.896 137.623 93.9619 137.901 94.0498ZM138.736 106.354V105.893C138.736 104.15 138.985 102.546 139.483 101.081C139.981 99.6016 140.713 98.3198 141.68 97.2358C142.647 96.1519 143.841 95.3096 145.262 94.709C146.683 94.0938 148.323 93.7861 150.184 93.7861C152.059 93.7861 153.707 94.0938 155.127 94.709C156.563 95.3096 157.764 96.1519 158.731 97.2358C159.698 98.3198 160.43 99.6016 160.928 101.081C161.426 102.546 161.675 104.15 161.675 105.893V106.354C161.675 108.083 161.426 109.687 160.928 111.167C160.43 112.631 159.698 113.913 158.731 115.012C157.764 116.096 156.57 116.938 155.149 117.539C153.729 118.139 152.088 118.439 150.228 118.439C148.367 118.439 146.719 118.139 145.284 117.539C143.848 116.938 142.647 116.096 141.68 115.012C140.713 113.913 139.981 112.631 139.483 111.167C138.985 109.687 138.736 108.083 138.736 106.354ZM146.141 105.893V106.354C146.141 107.248 146.207 108.083 146.338 108.859C146.47 109.636 146.69 110.317 146.998 110.903C147.305 111.474 147.723 111.921 148.25 112.243C148.777 112.565 149.437 112.727 150.228 112.727C151.004 112.727 151.648 112.565 152.161 112.243C152.688 111.921 153.106 111.474 153.414 110.903C153.721 110.317 153.941 109.636 154.073 108.859C154.205 108.083 154.271 107.248 154.271 106.354V105.893C154.271 105.029 154.205 104.216 154.073 103.454C153.941 102.678 153.721 101.997 153.414 101.411C153.106 100.81 152.688 100.341 152.161 100.004C151.634 99.6675 150.975 99.499 150.184 99.499C149.407 99.499 148.755 99.6675 148.228 100.004C147.715 100.341 147.305 100.81 146.998 101.411C146.69 101.997 146.47 102.678 146.338 103.454C146.207 104.216 146.141 105.029 146.141 105.893ZM165.521 94.2256H172.947V118.769C172.947 120.673 172.581 122.277 171.849 123.581C171.116 124.899 170.069 125.896 168.707 126.569C167.344 127.258 165.718 127.602 163.829 127.602C163.199 127.602 162.62 127.573 162.093 127.514C161.551 127.47 160.958 127.375 160.313 127.229V121.625C160.694 121.684 161.045 121.728 161.368 121.757C161.69 121.801 162.042 121.823 162.422 121.823C163.096 121.823 163.66 121.713 164.114 121.494C164.568 121.274 164.913 120.937 165.147 120.483C165.396 120.029 165.521 119.458 165.521 118.769V94.2256ZM164.971 88.0952C164.971 87.0405 165.352 86.1763 166.114 85.5024C166.875 84.8286 167.864 84.4917 169.08 84.4917C170.296 84.4917 171.285 84.8286 172.046 85.5024C172.808 86.1763 173.189 87.0405 173.189 88.0952C173.189 89.1499 172.808 90.0142 172.046 90.688C171.285 91.3618 170.296 91.6987 169.08 91.6987C167.864 91.6987 166.875 91.3618 166.114 90.688C165.352 90.0142 164.971 89.1499 164.971 88.0952ZM188.658 118.439C186.724 118.439 184.996 118.139 183.472 117.539C181.949 116.923 180.66 116.081 179.605 115.012C178.565 113.942 177.767 112.712 177.21 111.32C176.668 109.929 176.397 108.457 176.397 106.904V106.069C176.397 104.326 176.639 102.714 177.122 101.235C177.605 99.7407 178.323 98.437 179.275 97.3237C180.228 96.2104 181.421 95.3462 182.857 94.731C184.292 94.1011 185.962 93.7861 187.867 93.7861C189.551 93.7861 191.06 94.0571 192.393 94.5991C193.726 95.1411 194.854 95.9175 195.777 96.9282C196.714 97.939 197.425 99.1621 197.908 100.598C198.406 102.033 198.655 103.645 198.655 105.432V108.442H179.231V103.806H191.426V103.234C191.441 102.443 191.302 101.77 191.009 101.213C190.73 100.656 190.32 100.231 189.778 99.9385C189.236 99.6455 188.577 99.499 187.801 99.499C186.995 99.499 186.329 99.6748 185.801 100.026C185.289 100.378 184.886 100.861 184.593 101.477C184.314 102.077 184.117 102.773 184 103.564C183.882 104.355 183.824 105.19 183.824 106.069V106.904C183.824 107.783 183.941 108.581 184.175 109.299C184.424 110.017 184.776 110.632 185.23 111.145C185.699 111.643 186.255 112.031 186.9 112.309C187.559 112.587 188.306 112.727 189.141 112.727C190.152 112.727 191.148 112.536 192.129 112.155C193.111 111.774 193.953 111.145 194.656 110.266L198.018 114.265C197.535 114.953 196.846 115.62 195.953 116.264C195.074 116.909 194.019 117.436 192.789 117.846C191.558 118.242 190.181 118.439 188.658 118.439ZM211.707 112.727C212.396 112.727 212.981 112.602 213.465 112.353C213.963 112.089 214.336 111.723 214.585 111.254C214.849 110.771 214.974 110.192 214.959 109.519H221.924C221.939 111.306 221.5 112.873 220.606 114.221C219.727 115.554 218.526 116.594 217.002 117.341C215.494 118.073 213.787 118.439 211.883 118.439C210.022 118.439 208.396 118.139 207.005 117.539C205.613 116.923 204.449 116.074 203.511 114.99C202.588 113.891 201.893 112.609 201.424 111.145C200.97 109.68 200.743 108.09 200.743 106.376V105.871C200.743 104.157 200.97 102.568 201.424 101.103C201.893 99.6235 202.588 98.3418 203.511 97.2578C204.449 96.1592 205.606 95.3096 206.983 94.709C208.375 94.0938 209.993 93.7861 211.839 93.7861C213.816 93.7861 215.56 94.1597 217.068 94.9067C218.592 95.6538 219.786 96.7378 220.65 98.1587C221.514 99.5796 221.939 101.301 221.924 103.322H214.959C214.974 102.604 214.864 101.96 214.629 101.389C214.395 100.817 214.029 100.363 213.531 100.026C213.047 99.6748 212.425 99.499 211.663 99.499C210.901 99.499 210.286 99.6675 209.817 100.004C209.349 100.341 208.99 100.81 208.741 101.411C208.506 101.997 208.345 102.67 208.257 103.432C208.184 104.194 208.147 105.007 208.147 105.871V106.376C208.147 107.255 208.184 108.083 208.257 108.859C208.345 109.621 208.514 110.295 208.763 110.881C209.012 111.452 209.371 111.906 209.839 112.243C210.308 112.565 210.931 112.727 211.707 112.727ZM237.613 94.2256V99.3672H223.287V94.2256H237.613ZM226.297 88.3149H233.702V110.244C233.702 110.874 233.775 111.364 233.921 111.716C234.068 112.053 234.317 112.294 234.668 112.441C235.035 112.573 235.518 112.639 236.119 112.639C236.543 112.639 236.895 112.631 237.173 112.617C237.452 112.587 237.715 112.551 237.964 112.507V117.802C237.334 118.007 236.675 118.161 235.987 118.264C235.298 118.381 234.566 118.439 233.79 118.439C232.208 118.439 230.853 118.19 229.725 117.692C228.611 117.194 227.762 116.411 227.176 115.341C226.59 114.272 226.297 112.88 226.297 111.167V88.3149ZM264.881 107.146H256.927V101.191H264.881C265.965 101.191 266.844 101.008 267.518 100.642C268.191 100.275 268.682 99.77 268.99 99.1255C269.312 98.4663 269.473 97.7266 269.473 96.9062C269.473 96.0273 269.312 95.2144 268.99 94.4673C268.682 93.7202 268.191 93.1196 267.518 92.6655C266.844 92.1968 265.965 91.9624 264.881 91.9624H259.827V118H252.115V86.0078H264.881C267.444 86.0078 269.649 86.4766 271.495 87.4141C273.355 88.3516 274.783 89.6406 275.779 91.2812C276.775 92.9072 277.273 94.7676 277.273 96.8623C277.273 98.9277 276.775 100.729 275.779 102.268C274.783 103.806 273.355 105.007 271.495 105.871C269.649 106.721 267.444 107.146 264.881 107.146ZM288.326 84.25V118H280.921V84.25H288.326ZM287.447 105.3L285.711 105.344C285.711 103.674 285.916 102.136 286.326 100.729C286.736 99.3232 287.322 98.1001 288.084 97.0601C288.846 96.02 289.761 95.2144 290.831 94.6431C291.9 94.0718 293.086 93.7861 294.39 93.7861C295.562 93.7861 296.631 93.9546 297.598 94.2915C298.58 94.6284 299.422 95.1704 300.125 95.9175C300.843 96.6646 301.392 97.6387 301.773 98.8398C302.168 100.041 302.366 101.506 302.366 103.234V118H294.917V103.19C294.917 102.224 294.778 101.477 294.5 100.949C294.236 100.407 293.855 100.034 293.357 99.8286C292.859 99.6089 292.251 99.499 291.534 99.499C290.669 99.499 289.966 99.6455 289.424 99.9385C288.882 100.231 288.465 100.642 288.172 101.169C287.894 101.682 287.703 102.29 287.601 102.993C287.498 103.696 287.447 104.465 287.447 105.3ZM314.297 94.2256V118H306.871V94.2256H314.297ZM306.431 88.0952C306.431 87.0405 306.812 86.1763 307.574 85.5024C308.335 84.8286 309.324 84.4917 310.54 84.4917C311.756 84.4917 312.745 84.8286 313.506 85.5024C314.268 86.1763 314.649 87.0405 314.649 88.0952C314.649 89.1499 314.268 90.0142 313.506 90.688C312.745 91.3618 311.756 91.6987 310.54 91.6987C309.324 91.6987 308.335 91.3618 307.574 90.688C306.812 90.0142 306.431 89.1499 306.431 88.0952ZM326.69 84.25V118H319.263V84.25H326.69ZM330.337 106.354V105.893C330.337 104.15 330.586 102.546 331.084 101.081C331.583 99.6016 332.315 98.3198 333.282 97.2358C334.249 96.1519 335.442 95.3096 336.863 94.709C338.284 94.0938 339.925 93.7861 341.785 93.7861C343.66 93.7861 345.308 94.0938 346.729 94.709C348.165 95.3096 349.366 96.1519 350.333 97.2358C351.299 98.3198 352.032 99.6016 352.53 101.081C353.028 102.546 353.277 104.15 353.277 105.893V106.354C353.277 108.083 353.028 109.687 352.53 111.167C352.032 112.631 351.299 113.913 350.333 115.012C349.366 116.096 348.172 116.938 346.751 117.539C345.33 118.139 343.689 118.439 341.829 118.439C339.969 118.439 338.321 118.139 336.885 117.539C335.45 116.938 334.249 116.096 333.282 115.012C332.315 113.913 331.583 112.631 331.084 111.167C330.586 109.687 330.337 108.083 330.337 106.354ZM337.742 105.893V106.354C337.742 107.248 337.808 108.083 337.94 108.859C338.072 109.636 338.292 110.317 338.599 110.903C338.907 111.474 339.324 111.921 339.852 112.243C340.379 112.565 341.038 112.727 341.829 112.727C342.605 112.727 343.25 112.565 343.763 112.243C344.29 111.921 344.708 111.474 345.015 110.903C345.323 110.317 345.542 109.636 345.674 108.859C345.806 108.083 345.872 107.248 345.872 106.354V105.893C345.872 105.029 345.806 104.216 345.674 103.454C345.542 102.678 345.323 101.997 345.015 101.411C344.708 100.81 344.29 100.341 343.763 100.004C343.235 99.6675 342.576 99.499 341.785 99.499C341.009 99.499 340.357 99.6675 339.83 100.004C339.317 100.341 338.907 100.81 338.599 101.411C338.292 101.997 338.072 102.678 337.94 103.454C337.808 104.216 337.742 105.029 337.742 105.893ZM369.031 111.32C369.031 110.91 368.892 110.559 368.614 110.266C368.35 109.958 367.881 109.68 367.208 109.431C366.534 109.167 365.589 108.903 364.373 108.64C363.216 108.391 362.125 108.061 361.099 107.651C360.088 107.241 359.202 106.743 358.44 106.157C357.679 105.571 357.078 104.875 356.639 104.069C356.214 103.264 356.001 102.341 356.001 101.301C356.001 100.29 356.214 99.3379 356.639 98.4443C357.078 97.5361 357.715 96.7378 358.55 96.0493C359.4 95.3462 360.433 94.7969 361.648 94.4014C362.864 93.9912 364.249 93.7861 365.801 93.7861C367.94 93.7861 369.786 94.1157 371.338 94.7749C372.891 95.4194 374.085 96.3276 374.92 97.4995C375.77 98.6567 376.194 99.9971 376.194 101.521H368.79C368.79 100.92 368.687 100.407 368.482 99.9824C368.292 99.5576 367.977 99.2354 367.537 99.0156C367.098 98.7812 366.512 98.6641 365.779 98.6641C365.267 98.6641 364.798 98.7593 364.373 98.9497C363.963 99.1401 363.633 99.4038 363.384 99.7407C363.135 100.078 363.011 100.473 363.011 100.927C363.011 101.25 363.084 101.542 363.23 101.806C363.392 102.055 363.633 102.29 363.956 102.509C364.278 102.714 364.688 102.905 365.186 103.081C365.684 103.242 366.285 103.388 366.988 103.52C368.584 103.813 370.079 104.23 371.47 104.772C372.862 105.314 373.99 106.083 374.854 107.08C375.733 108.076 376.172 109.416 376.172 111.101C376.172 112.155 375.931 113.129 375.447 114.023C374.964 114.902 374.268 115.678 373.36 116.352C372.452 117.011 371.36 117.524 370.086 117.89C368.812 118.256 367.376 118.439 365.779 118.439C363.509 118.439 361.59 118.037 360.022 117.231C358.455 116.411 357.269 115.385 356.463 114.155C355.672 112.91 355.276 111.65 355.276 110.375H362.176C362.205 111.108 362.381 111.708 362.703 112.177C363.04 112.646 363.487 112.99 364.043 113.21C364.6 113.43 365.245 113.54 365.977 113.54C366.651 113.54 367.208 113.444 367.647 113.254C368.101 113.063 368.445 112.807 368.68 112.485C368.914 112.148 369.031 111.76 369.031 111.32ZM378.721 106.354V105.893C378.721 104.15 378.97 102.546 379.468 101.081C379.966 99.6016 380.699 98.3198 381.666 97.2358C382.632 96.1519 383.826 95.3096 385.247 94.709C386.668 94.0938 388.309 93.7861 390.169 93.7861C392.044 93.7861 393.692 94.0938 395.113 94.709C396.548 95.3096 397.75 96.1519 398.716 97.2358C399.683 98.3198 400.416 99.6016 400.914 101.081C401.412 102.546 401.661 104.15 401.661 105.893V106.354C401.661 108.083 401.412 109.687 400.914 111.167C400.416 112.631 399.683 113.913 398.716 115.012C397.75 116.096 396.556 116.938 395.135 117.539C393.714 118.139 392.073 118.439 390.213 118.439C388.353 118.439 386.705 118.139 385.269 117.539C383.833 116.938 382.632 116.096 381.666 115.012C380.699 113.913 379.966 112.631 379.468 111.167C378.97 109.687 378.721 108.083 378.721 106.354ZM386.126 105.893V106.354C386.126 107.248 386.192 108.083 386.324 108.859C386.456 109.636 386.675 110.317 386.983 110.903C387.291 111.474 387.708 111.921 388.235 112.243C388.763 112.565 389.422 112.727 390.213 112.727C390.989 112.727 391.634 112.565 392.146 112.243C392.674 111.921 393.091 111.474 393.399 110.903C393.707 110.317 393.926 109.636 394.058 108.859C394.19 108.083 394.256 107.248 394.256 106.354V105.893C394.256 105.029 394.19 104.216 394.058 103.454C393.926 102.678 393.707 101.997 393.399 101.411C393.091 100.81 392.674 100.341 392.146 100.004C391.619 99.6675 390.96 99.499 390.169 99.499C389.393 99.499 388.741 99.6675 388.213 100.004C387.701 100.341 387.291 100.81 386.983 101.411C386.675 101.997 386.456 102.678 386.324 103.454C386.192 104.216 386.126 105.029 386.126 105.893ZM412.427 98.7959V127.141H405.022V94.2256H411.922L412.427 98.7959ZM427.017 105.827V106.289C427.017 108.017 426.819 109.621 426.424 111.101C426.028 112.58 425.442 113.869 424.666 114.968C423.89 116.066 422.923 116.923 421.766 117.539C420.623 118.139 419.297 118.439 417.789 118.439C416.368 118.439 415.145 118.125 414.119 117.495C413.094 116.865 412.237 115.993 411.548 114.88C410.86 113.767 410.303 112.492 409.878 111.057C409.454 109.621 409.117 108.105 408.868 106.508V105.915C409.117 104.201 409.454 102.612 409.878 101.147C410.303 99.6675 410.86 98.3784 411.548 97.2798C412.237 96.1812 413.086 95.3242 414.097 94.709C415.123 94.0938 416.346 93.7861 417.767 93.7861C419.275 93.7861 420.601 94.0718 421.744 94.6431C422.901 95.2144 423.868 96.0347 424.644 97.104C425.435 98.1587 426.028 99.4258 426.424 100.905C426.819 102.385 427.017 104.025 427.017 105.827ZM419.612 106.289V105.827C419.612 104.904 419.546 104.062 419.415 103.3C419.283 102.524 419.07 101.85 418.777 101.279C418.499 100.708 418.125 100.268 417.657 99.9604C417.188 99.6528 416.609 99.499 415.921 99.499C415.13 99.499 414.463 99.6235 413.921 99.8726C413.394 100.107 412.969 100.473 412.647 100.971C412.339 101.455 412.12 102.062 411.988 102.795C411.871 103.513 411.819 104.355 411.834 105.322V107.124C411.805 108.237 411.915 109.218 412.164 110.068C412.413 110.903 412.845 111.555 413.46 112.023C414.075 112.492 414.91 112.727 415.965 112.727C416.668 112.727 417.254 112.565 417.723 112.243C418.191 111.906 418.565 111.445 418.843 110.859C419.122 110.258 419.319 109.57 419.437 108.793C419.554 108.017 419.612 107.182 419.612 106.289ZM437.564 84.25V118H430.159V84.25H437.564ZM436.685 105.3L434.949 105.344C434.949 103.674 435.154 102.136 435.564 100.729C435.975 99.3232 436.561 98.1001 437.322 97.0601C438.084 96.02 439 95.2144 440.069 94.6431C441.138 94.0718 442.325 93.7861 443.628 93.7861C444.8 93.7861 445.87 93.9546 446.836 94.2915C447.818 94.6284 448.66 95.1704 449.363 95.9175C450.081 96.6646 450.63 97.6387 451.011 98.8398C451.407 100.041 451.604 101.506 451.604 103.234V118H444.156V103.19C444.156 102.224 444.017 101.477 443.738 100.949C443.475 100.407 443.094 100.034 442.596 99.8286C442.098 99.6089 441.49 99.499 440.772 99.499C439.908 99.499 439.205 99.6455 438.663 99.9385C438.121 100.231 437.703 100.642 437.41 101.169C437.132 101.682 436.941 102.29 436.839 102.993C436.736 103.696 436.685 104.465 436.685 105.3ZM463.008 115.209L469.161 94.2256H477.115L467.557 121.538C467.352 122.138 467.081 122.783 466.744 123.471C466.407 124.174 465.945 124.841 465.359 125.471C464.773 126.101 464.019 126.613 463.096 127.009C462.188 127.404 461.06 127.602 459.712 127.602C458.995 127.602 458.467 127.565 458.13 127.492C457.808 127.434 457.31 127.324 456.636 127.163V121.867C456.827 121.867 456.988 121.867 457.12 121.867C457.266 121.867 457.427 121.867 457.603 121.867C458.394 121.867 459.024 121.787 459.493 121.625C459.976 121.464 460.342 121.23 460.591 120.922C460.855 120.615 461.06 120.241 461.207 119.802L463.008 115.209ZM461.448 94.2256L466.128 110.859L466.941 118.703H461.976L453.516 94.2256H461.448Z" fill="#424241"/>
<path d="M1363 15C1363 6.71573 1356.28 0 1348 0H1134V167H1348C1356.28 167 1363 160.284 1363 152V15Z" fill="#F09A2A"/>
<path d="M1234.26 106.286H1262.74V111.857H1234.26V106.286ZM1239.96 117.429H1257.04V123H1239.96V117.429ZM1248.5 45C1240.95 45 1233.71 47.9349 1228.37 53.1592C1223.03 58.3834 1220.03 65.469 1220.03 72.8571C1219.84 76.9057 1220.63 80.9412 1222.34 84.6315C1224.05 88.3219 1226.64 91.5616 1229.88 94.0843C1232.73 96.675 1234.26 98.1514 1234.26 100.714H1239.96C1239.96 95.5886 1236.8 92.7193 1233.72 89.9614C1231.06 87.9676 1228.94 85.3658 1227.55 82.3838C1226.15 79.4019 1225.53 76.1308 1225.72 72.8571C1225.72 66.9466 1228.12 61.2781 1232.39 57.0988C1236.67 52.9194 1242.46 50.5714 1248.5 50.5714C1254.54 50.5714 1260.33 52.9194 1264.61 57.0988C1268.88 61.2781 1271.28 66.9466 1271.28 72.8571C1271.47 76.1333 1270.84 79.4059 1269.44 82.388C1268.04 85.3701 1265.92 87.9706 1263.25 89.9614C1260.2 92.7471 1257.04 95.5329 1257.04 100.714H1262.74C1262.74 98.1514 1264.25 96.675 1267.12 94.0564C1270.36 91.5381 1272.94 88.3031 1274.66 84.6176C1276.37 80.9321 1277.16 76.9014 1276.97 72.8571C1276.97 69.1989 1276.24 65.5765 1274.81 62.1967C1273.37 58.8169 1271.28 55.7459 1268.63 53.1592C1265.99 50.5724 1262.85 48.5205 1259.4 47.1205C1255.94 45.7205 1252.24 45 1248.5 45Z" fill="white"/>
</svg>
