<svg width="1363" height="163" viewBox="0 0 1363 163" fill="none" xmlns="http://www.w3.org/2000/svg">
<path d="M0 15C0 6.71573 6.71573 0 15 0H37V163H15C6.71573 163 0 156.284 0 148V15Z" fill="#C9001C"/>
<rect width="1097" height="163" transform="translate(37)" fill="#F0F0F0"/>
<path d="M101.906 53.9219L94.3945 51.2383V48.0859L104.602 52.375V54.6367L101.906 53.9219ZM94.3945 56.1719L101.918 53.4297L104.602 52.7852V55.0352L94.3945 59.3242V56.1719ZM116.414 43.9375V61H112.898V43.9375H116.414ZM123.211 51.2266V53.9688H115.453V51.2266H123.211ZM124.031 43.9375V46.6914H115.453V43.9375H124.031ZM132.305 58.1406V52.4922C132.305 52.0859 132.238 51.7383 132.105 51.4492C131.973 51.1523 131.766 50.9219 131.484 50.7578C131.211 50.5938 130.855 50.5117 130.418 50.5117C130.043 50.5117 129.719 50.5781 129.445 50.7109C129.172 50.8359 128.961 51.0195 128.812 51.2617C128.664 51.4961 128.59 51.7734 128.59 52.0938H125.215C125.215 51.5547 125.34 51.043 125.59 50.5586C125.84 50.0742 126.203 49.6484 126.68 49.2812C127.156 48.9062 127.723 48.6133 128.379 48.4023C129.043 48.1914 129.785 48.0859 130.605 48.0859C131.59 48.0859 132.465 48.25 133.23 48.5781C133.996 48.9062 134.598 49.3984 135.035 50.0547C135.48 50.7109 135.703 51.5312 135.703 52.5156V57.9414C135.703 58.6367 135.746 59.207 135.832 59.6523C135.918 60.0898 136.043 60.4727 136.207 60.8008V61H132.797C132.633 60.6562 132.508 60.2266 132.422 59.7109C132.344 59.1875 132.305 58.6641 132.305 58.1406ZM132.75 53.2773L132.773 55.1875H130.887C130.441 55.1875 130.055 55.2383 129.727 55.3398C129.398 55.4414 129.129 55.5859 128.918 55.7734C128.707 55.9531 128.551 56.1641 128.449 56.4062C128.355 56.6484 128.309 56.9141 128.309 57.2031C128.309 57.4922 128.375 57.7539 128.508 57.9883C128.641 58.2148 128.832 58.3945 129.082 58.5273C129.332 58.6523 129.625 58.7148 129.961 58.7148C130.469 58.7148 130.91 58.6133 131.285 58.4102C131.66 58.207 131.949 57.957 132.152 57.6602C132.363 57.3633 132.473 57.082 132.48 56.8164L133.371 58.2461C133.246 58.5664 133.074 58.8984 132.855 59.2422C132.645 59.5859 132.375 59.9102 132.047 60.2148C131.719 60.5117 131.324 60.7578 130.863 60.9531C130.402 61.1406 129.855 61.2344 129.223 61.2344C128.418 61.2344 127.688 61.0742 127.031 60.7539C126.383 60.4258 125.867 59.9766 125.484 59.4062C125.109 58.8281 124.922 58.1719 124.922 57.4375C124.922 56.7734 125.047 56.1836 125.297 55.668C125.547 55.1523 125.914 54.7188 126.398 54.3672C126.891 54.0078 127.504 53.7383 128.238 53.5586C128.973 53.3711 129.824 53.2773 130.793 53.2773H132.75ZM144.516 48.3203V50.7109H137.133V48.3203H144.516ZM138.961 45.1914H142.336V57.1797C142.336 57.5469 142.383 57.8281 142.477 58.0234C142.578 58.2188 142.727 58.3555 142.922 58.4336C143.117 58.5039 143.363 58.5391 143.66 58.5391C143.871 58.5391 144.059 58.5312 144.223 58.5156C144.395 58.4922 144.539 58.4688 144.656 58.4453L144.668 60.9297C144.379 61.0234 144.066 61.0977 143.73 61.1523C143.395 61.207 143.023 61.2344 142.617 61.2344C141.875 61.2344 141.227 61.1133 140.672 60.8711C140.125 60.6211 139.703 60.2227 139.406 59.6758C139.109 59.1289 138.961 58.4102 138.961 57.5195V45.1914ZM153.281 58.1406V52.4922C153.281 52.0859 153.215 51.7383 153.082 51.4492C152.949 51.1523 152.742 50.9219 152.461 50.7578C152.188 50.5938 151.832 50.5117 151.395 50.5117C151.02 50.5117 150.695 50.5781 150.422 50.7109C150.148 50.8359 149.938 51.0195 149.789 51.2617C149.641 51.4961 149.566 51.7734 149.566 52.0938H146.191C146.191 51.5547 146.316 51.043 146.566 50.5586C146.816 50.0742 147.18 49.6484 147.656 49.2812C148.133 48.9062 148.699 48.6133 149.355 48.4023C150.02 48.1914 150.762 48.0859 151.582 48.0859C152.566 48.0859 153.441 48.25 154.207 48.5781C154.973 48.9062 155.574 49.3984 156.012 50.0547C156.457 50.7109 156.68 51.5312 156.68 52.5156V57.9414C156.68 58.6367 156.723 59.207 156.809 59.6523C156.895 60.0898 157.02 60.4727 157.184 60.8008V61H153.773C153.609 60.6562 153.484 60.2266 153.398 59.7109C153.32 59.1875 153.281 58.6641 153.281 58.1406ZM153.727 53.2773L153.75 55.1875H151.863C151.418 55.1875 151.031 55.2383 150.703 55.3398C150.375 55.4414 150.105 55.5859 149.895 55.7734C149.684 55.9531 149.527 56.1641 149.426 56.4062C149.332 56.6484 149.285 56.9141 149.285 57.2031C149.285 57.4922 149.352 57.7539 149.484 57.9883C149.617 58.2148 149.809 58.3945 150.059 58.5273C150.309 58.6523 150.602 58.7148 150.938 58.7148C151.445 58.7148 151.887 58.6133 152.262 58.4102C152.637 58.207 152.926 57.957 153.129 57.6602C153.34 57.3633 153.449 57.082 153.457 56.8164L154.348 58.2461C154.223 58.5664 154.051 58.8984 153.832 59.2422C153.621 59.5859 153.352 59.9102 153.023 60.2148C152.695 60.5117 152.301 60.7578 151.84 60.9531C151.379 61.1406 150.832 61.2344 150.199 61.2344C149.395 61.2344 148.664 61.0742 148.008 60.7539C147.359 60.4258 146.844 59.9766 146.461 59.4062C146.086 58.8281 145.898 58.1719 145.898 57.4375C145.898 56.7734 146.023 56.1836 146.273 55.668C146.523 55.1523 146.891 54.7188 147.375 54.3672C147.867 54.0078 148.48 53.7383 149.215 53.5586C149.949 53.3711 150.801 53.2773 151.77 53.2773H153.727ZM162.844 43V61H159.457V43H162.844ZM178.5 53.5117H174.117L174.094 51.0977H177.773C178.422 51.0977 178.953 51.0156 179.367 50.8516C179.781 50.6797 180.09 50.4336 180.293 50.1133C180.504 49.7852 180.609 49.3867 180.609 48.918C180.609 48.3867 180.508 47.957 180.305 47.6289C180.109 47.3008 179.801 47.0625 179.379 46.9141C178.965 46.7656 178.43 46.6914 177.773 46.6914H175.336V61H171.82V43.9375H177.773C178.766 43.9375 179.652 44.0312 180.434 44.2188C181.223 44.4062 181.891 44.6914 182.438 45.0742C182.984 45.457 183.402 45.9414 183.691 46.5273C183.98 47.1055 184.125 47.793 184.125 48.5898C184.125 49.293 183.965 49.9414 183.645 50.5352C183.332 51.1289 182.836 51.6133 182.156 51.9883C181.484 52.3633 180.605 52.5703 179.52 52.6094L178.5 53.5117ZM178.348 61H173.156L174.527 58.2578H178.348C178.965 58.2578 179.469 58.1602 179.859 57.9648C180.25 57.7617 180.539 57.4883 180.727 57.1445C180.914 56.8008 181.008 56.4062 181.008 55.9609C181.008 55.4609 180.922 55.0273 180.75 54.6602C180.586 54.293 180.32 54.0117 179.953 53.8164C179.586 53.6133 179.102 53.5117 178.5 53.5117H175.113L175.137 51.0977H179.355L180.164 52.0469C181.203 52.0312 182.039 52.2148 182.672 52.5977C183.312 52.9727 183.777 53.4609 184.066 54.0625C184.363 54.6641 184.512 55.3086 184.512 55.9961C184.512 57.0898 184.273 58.0117 183.797 58.7617C183.32 59.5039 182.621 60.0625 181.699 60.4375C180.785 60.8125 179.668 61 178.348 61ZM190.312 51.0859V61H186.938V48.3203H190.113L190.312 51.0859ZM194.133 48.2383L194.074 51.3672C193.91 51.3438 193.711 51.3242 193.477 51.3086C193.25 51.2852 193.043 51.2734 192.855 51.2734C192.379 51.2734 191.965 51.3359 191.613 51.4609C191.27 51.5781 190.98 51.7539 190.746 51.9883C190.52 52.2227 190.348 52.5078 190.23 52.8438C190.121 53.1797 190.059 53.5625 190.043 53.9922L189.363 53.7812C189.363 52.9609 189.445 52.207 189.609 51.5195C189.773 50.8242 190.012 50.2188 190.324 49.7031C190.645 49.1875 191.035 48.7891 191.496 48.5078C191.957 48.2266 192.484 48.0859 193.078 48.0859C193.266 48.0859 193.457 48.1016 193.652 48.1328C193.848 48.1562 194.008 48.1914 194.133 48.2383ZM201.328 61.2344C200.344 61.2344 199.461 61.0781 198.68 60.7656C197.898 60.4453 197.234 60.0039 196.688 59.4414C196.148 58.8789 195.734 58.2266 195.445 57.4844C195.156 56.7344 195.012 55.9375 195.012 55.0938V54.625C195.012 53.6641 195.148 52.7852 195.422 51.9883C195.695 51.1914 196.086 50.5 196.594 49.9141C197.109 49.3281 197.734 48.8789 198.469 48.5664C199.203 48.2461 200.031 48.0859 200.953 48.0859C201.852 48.0859 202.648 48.2344 203.344 48.5312C204.039 48.8281 204.621 49.25 205.09 49.7969C205.566 50.3438 205.926 51 206.168 51.7656C206.41 52.5234 206.531 53.3672 206.531 54.2969V55.7031H196.453V53.4531H203.215V53.1953C203.215 52.7266 203.129 52.3086 202.957 51.9414C202.793 51.5664 202.543 51.2695 202.207 51.0508C201.871 50.832 201.441 50.7227 200.918 50.7227C200.473 50.7227 200.09 50.8203 199.77 51.0156C199.449 51.2109 199.188 51.4844 198.984 51.8359C198.789 52.1875 198.641 52.6016 198.539 53.0781C198.445 53.5469 198.398 54.0625 198.398 54.625V55.0938C198.398 55.6016 198.469 56.0703 198.609 56.5C198.758 56.9297 198.965 57.3008 199.23 57.6133C199.504 57.9258 199.832 58.168 200.215 58.3398C200.605 58.5117 201.047 58.5977 201.539 58.5977C202.148 58.5977 202.715 58.4805 203.238 58.2461C203.77 58.0039 204.227 57.6406 204.609 57.1562L206.25 58.9375C205.984 59.3203 205.621 59.6875 205.16 60.0391C204.707 60.3906 204.16 60.6797 203.52 60.9062C202.879 61.125 202.148 61.2344 201.328 61.2344ZM215.297 58.1406V52.4922C215.297 52.0859 215.23 51.7383 215.098 51.4492C214.965 51.1523 214.758 50.9219 214.477 50.7578C214.203 50.5938 213.848 50.5117 213.41 50.5117C213.035 50.5117 212.711 50.5781 212.438 50.7109C212.164 50.8359 211.953 51.0195 211.805 51.2617C211.656 51.4961 211.582 51.7734 211.582 52.0938H208.207C208.207 51.5547 208.332 51.043 208.582 50.5586C208.832 50.0742 209.195 49.6484 209.672 49.2812C210.148 48.9062 210.715 48.6133 211.371 48.4023C212.035 48.1914 212.777 48.0859 213.598 48.0859C214.582 48.0859 215.457 48.25 216.223 48.5781C216.988 48.9062 217.59 49.3984 218.027 50.0547C218.473 50.7109 218.695 51.5312 218.695 52.5156V57.9414C218.695 58.6367 218.738 59.207 218.824 59.6523C218.91 60.0898 219.035 60.4727 219.199 60.8008V61H215.789C215.625 60.6562 215.5 60.2266 215.414 59.7109C215.336 59.1875 215.297 58.6641 215.297 58.1406ZM215.742 53.2773L215.766 55.1875H213.879C213.434 55.1875 213.047 55.2383 212.719 55.3398C212.391 55.4414 212.121 55.5859 211.91 55.7734C211.699 55.9531 211.543 56.1641 211.441 56.4062C211.348 56.6484 211.301 56.9141 211.301 57.2031C211.301 57.4922 211.367 57.7539 211.5 57.9883C211.633 58.2148 211.824 58.3945 212.074 58.5273C212.324 58.6523 212.617 58.7148 212.953 58.7148C213.461 58.7148 213.902 58.6133 214.277 58.4102C214.652 58.207 214.941 57.957 215.145 57.6602C215.355 57.3633 215.465 57.082 215.473 56.8164L216.363 58.2461C216.238 58.5664 216.066 58.8984 215.848 59.2422C215.637 59.5859 215.367 59.9102 215.039 60.2148C214.711 60.5117 214.316 60.7578 213.855 60.9531C213.395 61.1406 212.848 61.2344 212.215 61.2344C211.41 61.2344 210.68 61.0742 210.023 60.7539C209.375 60.4258 208.859 59.9766 208.477 59.4062C208.102 58.8281 207.914 58.1719 207.914 57.4375C207.914 56.7734 208.039 56.1836 208.289 55.668C208.539 55.1523 208.906 54.7188 209.391 54.3672C209.883 54.0078 210.496 53.7383 211.23 53.5586C211.965 53.3711 212.816 53.2773 213.785 53.2773H215.742ZM227.508 48.3203V50.7109H220.125V48.3203H227.508ZM221.953 45.1914H225.328V57.1797C225.328 57.5469 225.375 57.8281 225.469 58.0234C225.57 58.2188 225.719 58.3555 225.914 58.4336C226.109 58.5039 226.355 58.5391 226.652 58.5391C226.863 58.5391 227.051 58.5312 227.215 58.5156C227.387 58.4922 227.531 58.4688 227.648 58.4453L227.66 60.9297C227.371 61.0234 227.059 61.0977 226.723 61.1523C226.387 61.207 226.016 61.2344 225.609 61.2344C224.867 61.2344 224.219 61.1133 223.664 60.8711C223.117 60.6211 222.695 60.2227 222.398 59.6758C222.102 59.1289 221.953 58.4102 221.953 57.5195V45.1914ZM232.723 43V61H229.348V43H232.723ZM232.242 54.2148H231.316C231.324 53.332 231.441 52.5195 231.668 51.7773C231.895 51.0273 232.219 50.3789 232.641 49.832C233.062 49.2773 233.566 48.8477 234.152 48.543C234.746 48.2383 235.402 48.0859 236.121 48.0859C236.746 48.0859 237.312 48.1758 237.82 48.3555C238.336 48.5273 238.777 48.8086 239.145 49.1992C239.52 49.582 239.809 50.0859 240.012 50.7109C240.215 51.3359 240.316 52.0938 240.316 52.9844V61H236.918V52.9609C236.918 52.3984 236.836 51.957 236.672 51.6367C236.516 51.3086 236.285 51.0781 235.98 50.9453C235.684 50.8047 235.316 50.7344 234.879 50.7344C234.395 50.7344 233.98 50.8242 233.637 51.0039C233.301 51.1836 233.031 51.4336 232.828 51.7539C232.625 52.0664 232.477 52.4336 232.383 52.8555C232.289 53.2773 232.242 53.7305 232.242 54.2148Z" fill="#888888"/>
<path d="M106.688 119H99.1172L99.1641 112.672H106.688C108.25 112.672 109.57 112.297 110.648 111.547C111.742 110.797 112.57 109.68 113.133 108.195C113.711 106.695 114 104.852 114 102.664V101.188C114 99.5469 113.836 98.1094 113.508 96.875C113.195 95.625 112.727 94.5859 112.102 93.7578C111.477 92.9141 110.695 92.2812 109.758 91.8594C108.836 91.4375 107.773 91.2266 106.57 91.2266H98.9766V84.875H106.57C108.883 84.875 111 85.2734 112.922 86.0703C114.859 86.8516 116.531 87.9766 117.938 89.4453C119.359 90.8984 120.453 92.625 121.219 94.625C122 96.6094 122.391 98.8125 122.391 101.234V102.664C122.391 105.07 122 107.273 121.219 109.273C120.453 111.273 119.367 113 117.961 114.453C116.555 115.906 114.891 117.031 112.969 117.828C111.062 118.609 108.969 119 106.688 119ZM103.828 84.875V119H95.6016V84.875H103.828ZM138.586 119.469C136.523 119.469 134.68 119.148 133.055 118.508C131.43 117.852 130.055 116.953 128.93 115.812C127.82 114.672 126.969 113.359 126.375 111.875C125.797 110.391 125.508 108.82 125.508 107.164V106.273C125.508 104.414 125.766 102.695 126.281 101.117C126.797 99.5234 127.562 98.1328 128.578 96.9453C129.594 95.7578 130.867 94.8359 132.398 94.1797C133.93 93.5078 135.711 93.1719 137.742 93.1719C139.539 93.1719 141.148 93.4609 142.57 94.0391C143.992 94.6172 145.195 95.4453 146.18 96.5234C147.18 97.6016 147.938 98.9062 148.453 100.438C148.984 101.969 149.25 103.688 149.25 105.594V108.805H128.531V103.859H141.539V103.25C141.555 102.406 141.406 101.688 141.094 101.094C140.797 100.5 140.359 100.047 139.781 99.7344C139.203 99.4219 138.5 99.2656 137.672 99.2656C136.812 99.2656 136.102 99.4531 135.539 99.8281C134.992 100.203 134.562 100.719 134.25 101.375C133.953 102.016 133.742 102.758 133.617 103.602C133.492 104.445 133.43 105.336 133.43 106.273V107.164C133.43 108.102 133.555 108.953 133.805 109.719C134.07 110.484 134.445 111.141 134.93 111.688C135.43 112.219 136.023 112.633 136.711 112.93C137.414 113.227 138.211 113.375 139.102 113.375C140.18 113.375 141.242 113.172 142.289 112.766C143.336 112.359 144.234 111.688 144.984 110.75L148.57 115.016C148.055 115.75 147.32 116.461 146.367 117.148C145.43 117.836 144.305 118.398 142.992 118.836C141.68 119.258 140.211 119.469 138.586 119.469ZM160.43 99.0078V119H152.531V93.6406H159.938L160.43 99.0078ZM159.469 105.453L157.664 105.5C157.664 103.719 157.875 102.078 158.297 100.578C158.719 99.0781 159.344 97.7734 160.172 96.6641C161 95.5547 162.016 94.6953 163.219 94.0859C164.438 93.4766 165.844 93.1719 167.438 93.1719C168.547 93.1719 169.555 93.3438 170.461 93.6875C171.367 94.0156 172.148 94.5391 172.805 95.2578C173.461 95.9609 173.961 96.8828 174.305 98.0234C174.664 99.1484 174.844 100.5 174.844 102.078V119H166.945V103.086C166.945 102.008 166.82 101.195 166.57 100.648C166.336 100.102 165.992 99.7344 165.539 99.5469C165.086 99.3594 164.531 99.2656 163.875 99.2656C163.188 99.2656 162.57 99.4219 162.023 99.7344C161.477 100.047 161.008 100.484 160.617 101.047C160.242 101.594 159.953 102.242 159.75 102.992C159.562 103.742 159.469 104.562 159.469 105.453ZM173.953 105.453L171.75 105.5C171.75 103.719 171.945 102.078 172.336 100.578C172.742 99.0781 173.344 97.7734 174.141 96.6641C174.953 95.5547 175.961 94.6953 177.164 94.0859C178.367 93.4766 179.766 93.1719 181.359 93.1719C182.516 93.1719 183.578 93.3438 184.547 93.6875C185.516 94.0312 186.352 94.5859 187.055 95.3516C187.758 96.1172 188.305 97.1328 188.695 98.3984C189.086 99.6484 189.281 101.195 189.281 103.039V119H181.359V103.039C181.359 101.992 181.234 101.203 180.984 100.672C180.75 100.125 180.406 99.7578 179.953 99.5703C179.5 99.3672 178.961 99.2656 178.336 99.2656C177.586 99.2656 176.938 99.4219 176.391 99.7344C175.844 100.047 175.383 100.484 175.008 101.047C174.648 101.594 174.383 102.242 174.211 102.992C174.039 103.742 173.953 104.562 173.953 105.453ZM192.82 106.578V106.086C192.82 104.227 193.086 102.516 193.617 100.953C194.148 99.375 194.93 98.0078 195.961 96.8516C196.992 95.6953 198.266 94.7969 199.781 94.1562C201.297 93.5 203.047 93.1719 205.031 93.1719C207.031 93.1719 208.789 93.5 210.305 94.1562C211.836 94.7969 213.117 95.6953 214.148 96.8516C215.18 98.0078 215.961 99.375 216.492 100.953C217.023 102.516 217.289 104.227 217.289 106.086V106.578C217.289 108.422 217.023 110.133 216.492 111.711C215.961 113.273 215.18 114.641 214.148 115.812C213.117 116.969 211.844 117.867 210.328 118.508C208.812 119.148 207.062 119.469 205.078 119.469C203.094 119.469 201.336 119.148 199.805 118.508C198.273 117.867 196.992 116.969 195.961 115.812C194.93 114.641 194.148 113.273 193.617 111.711C193.086 110.133 192.82 108.422 192.82 106.578ZM200.719 106.086V106.578C200.719 107.531 200.789 108.422 200.93 109.25C201.07 110.078 201.305 110.805 201.633 111.43C201.961 112.039 202.406 112.516 202.969 112.859C203.531 113.203 204.234 113.375 205.078 113.375C205.906 113.375 206.594 113.203 207.141 112.859C207.703 112.516 208.148 112.039 208.477 111.43C208.805 110.805 209.039 110.078 209.18 109.25C209.32 108.422 209.391 107.531 209.391 106.578V106.086C209.391 105.164 209.32 104.297 209.18 103.484C209.039 102.656 208.805 101.93 208.477 101.305C208.148 100.664 207.703 100.164 207.141 99.8047C206.578 99.4453 205.875 99.2656 205.031 99.2656C204.203 99.2656 203.508 99.4453 202.945 99.8047C202.398 100.164 201.961 100.664 201.633 101.305C201.305 101.93 201.07 102.656 200.93 103.484C200.789 104.297 200.719 105.164 200.719 106.086Z" fill="black"/>
<path d="M1134 0H1348C1356.28 0 1363 6.71573 1363 15V148C1363 156.284 1356.28 163 1348 163H1134V0Z" fill="#C9001C"/>
<path d="M1281 46.5H1216L1213.5 49V114L1216 116.5H1281L1283.5 114V49L1281 46.5ZM1278.5 111.5H1233.5V101.5H1245C1246.5 104.5 1250 106.5 1253.5 106.5C1259 106.5 1263.5 102 1263.5 96.5C1263.5 91 1259 86.5 1253.5 86.5C1248 86.5 1243.5 91 1243.5 96.5H1228.5V111.5H1218.5V51.5H1228.5V63C1225.5 64.5 1223.5 68 1223.5 71.5C1223.5 77 1228 81.5 1233.5 81.5C1239 81.5 1243.5 77 1243.5 71.5H1253.5C1253.5 77 1258 81.5 1263.5 81.5C1269 81.5 1273.5 77 1273.5 71.5C1273.5 66 1269 61.5 1263.5 61.5C1260 61.5 1256.5 63.5 1255 66.5H1242C1240.5 63.5 1237 61.5 1233.5 61.5V51.5H1278.5V111.5ZM1248.5 96.5C1248.5 93.5 1250.5 91.5 1253.5 91.5C1256.5 91.5 1258.5 93.5 1258.5 96.5C1258.5 99.5 1256.5 101.5 1253.5 101.5C1250.5 101.5 1248.5 99.5 1248.5 96.5ZM1233.5 66.5C1236.5 66.5 1238.5 68.5 1238.5 71.5C1238.5 74.5 1236.5 76.5 1233.5 76.5C1230.5 76.5 1228.5 74.5 1228.5 71.5C1228.5 68.5 1230.5 66.5 1233.5 66.5ZM1263.5 66.5C1266.5 66.5 1268.5 68.5 1268.5 71.5C1268.5 74.5 1266.5 76.5 1263.5 76.5C1260.5 76.5 1258.5 74.5 1258.5 71.5C1258.5 68.5 1260.5 66.5 1263.5 66.5Z" fill="white"/>
</svg>
