<svg width="1363" height="163" viewBox="0 0 1363 163" fill="none" xmlns="http://www.w3.org/2000/svg">
<path d="M0 15C0 6.71573 6.71573 0 15 0H37V163H15C6.71573 163 0 156.284 0 148V15Z" fill="#C9001C"/>
<rect width="1097" height="163" transform="translate(37)" fill="#F0F0F0"/>
<path d="M101.906 53.9219L94.3945 51.2383V48.0859L104.602 52.375V54.6367L101.906 53.9219ZM94.3945 56.1719L101.918 53.4297L104.602 52.7852V55.0352L94.3945 59.3242V56.1719ZM116.414 43.9375V61H112.898V43.9375H116.414ZM123.211 51.2266V53.9688H115.453V51.2266H123.211ZM124.031 43.9375V46.6914H115.453V43.9375H124.031ZM132.305 58.1406V52.4922C132.305 52.0859 132.238 51.7383 132.105 51.4492C131.973 51.1523 131.766 50.9219 131.484 50.7578C131.211 50.5938 130.855 50.5117 130.418 50.5117C130.043 50.5117 129.719 50.5781 129.445 50.7109C129.172 50.8359 128.961 51.0195 128.812 51.2617C128.664 51.4961 128.59 51.7734 128.59 52.0938H125.215C125.215 51.5547 125.34 51.043 125.59 50.5586C125.84 50.0742 126.203 49.6484 126.68 49.2812C127.156 48.9062 127.723 48.6133 128.379 48.4023C129.043 48.1914 129.785 48.0859 130.605 48.0859C131.59 48.0859 132.465 48.25 133.23 48.5781C133.996 48.9062 134.598 49.3984 135.035 50.0547C135.48 50.7109 135.703 51.5312 135.703 52.5156V57.9414C135.703 58.6367 135.746 59.207 135.832 59.6523C135.918 60.0898 136.043 60.4727 136.207 60.8008V61H132.797C132.633 60.6562 132.508 60.2266 132.422 59.7109C132.344 59.1875 132.305 58.6641 132.305 58.1406ZM132.75 53.2773L132.773 55.1875H130.887C130.441 55.1875 130.055 55.2383 129.727 55.3398C129.398 55.4414 129.129 55.5859 128.918 55.7734C128.707 55.9531 128.551 56.1641 128.449 56.4062C128.355 56.6484 128.309 56.9141 128.309 57.2031C128.309 57.4922 128.375 57.7539 128.508 57.9883C128.641 58.2148 128.832 58.3945 129.082 58.5273C129.332 58.6523 129.625 58.7148 129.961 58.7148C130.469 58.7148 130.91 58.6133 131.285 58.4102C131.66 58.207 131.949 57.957 132.152 57.6602C132.363 57.3633 132.473 57.082 132.48 56.8164L133.371 58.2461C133.246 58.5664 133.074 58.8984 132.855 59.2422C132.645 59.5859 132.375 59.9102 132.047 60.2148C131.719 60.5117 131.324 60.7578 130.863 60.9531C130.402 61.1406 129.855 61.2344 129.223 61.2344C128.418 61.2344 127.688 61.0742 127.031 60.7539C126.383 60.4258 125.867 59.9766 125.484 59.4062C125.109 58.8281 124.922 58.1719 124.922 57.4375C124.922 56.7734 125.047 56.1836 125.297 55.668C125.547 55.1523 125.914 54.7188 126.398 54.3672C126.891 54.0078 127.504 53.7383 128.238 53.5586C128.973 53.3711 129.824 53.2773 130.793 53.2773H132.75ZM144.516 48.3203V50.7109H137.133V48.3203H144.516ZM138.961 45.1914H142.336V57.1797C142.336 57.5469 142.383 57.8281 142.477 58.0234C142.578 58.2188 142.727 58.3555 142.922 58.4336C143.117 58.5039 143.363 58.5391 143.66 58.5391C143.871 58.5391 144.059 58.5312 144.223 58.5156C144.395 58.4922 144.539 58.4688 144.656 58.4453L144.668 60.9297C144.379 61.0234 144.066 61.0977 143.73 61.1523C143.395 61.207 143.023 61.2344 142.617 61.2344C141.875 61.2344 141.227 61.1133 140.672 60.8711C140.125 60.6211 139.703 60.2227 139.406 59.6758C139.109 59.1289 138.961 58.4102 138.961 57.5195V45.1914ZM153.281 58.1406V52.4922C153.281 52.0859 153.215 51.7383 153.082 51.4492C152.949 51.1523 152.742 50.9219 152.461 50.7578C152.188 50.5938 151.832 50.5117 151.395 50.5117C151.02 50.5117 150.695 50.5781 150.422 50.7109C150.148 50.8359 149.938 51.0195 149.789 51.2617C149.641 51.4961 149.566 51.7734 149.566 52.0938H146.191C146.191 51.5547 146.316 51.043 146.566 50.5586C146.816 50.0742 147.18 49.6484 147.656 49.2812C148.133 48.9062 148.699 48.6133 149.355 48.4023C150.02 48.1914 150.762 48.0859 151.582 48.0859C152.566 48.0859 153.441 48.25 154.207 48.5781C154.973 48.9062 155.574 49.3984 156.012 50.0547C156.457 50.7109 156.68 51.5312 156.68 52.5156V57.9414C156.68 58.6367 156.723 59.207 156.809 59.6523C156.895 60.0898 157.02 60.4727 157.184 60.8008V61H153.773C153.609 60.6562 153.484 60.2266 153.398 59.7109C153.32 59.1875 153.281 58.6641 153.281 58.1406ZM153.727 53.2773L153.75 55.1875H151.863C151.418 55.1875 151.031 55.2383 150.703 55.3398C150.375 55.4414 150.105 55.5859 149.895 55.7734C149.684 55.9531 149.527 56.1641 149.426 56.4062C149.332 56.6484 149.285 56.9141 149.285 57.2031C149.285 57.4922 149.352 57.7539 149.484 57.9883C149.617 58.2148 149.809 58.3945 150.059 58.5273C150.309 58.6523 150.602 58.7148 150.938 58.7148C151.445 58.7148 151.887 58.6133 152.262 58.4102C152.637 58.207 152.926 57.957 153.129 57.6602C153.34 57.3633 153.449 57.082 153.457 56.8164L154.348 58.2461C154.223 58.5664 154.051 58.8984 153.832 59.2422C153.621 59.5859 153.352 59.9102 153.023 60.2148C152.695 60.5117 152.301 60.7578 151.84 60.9531C151.379 61.1406 150.832 61.2344 150.199 61.2344C149.395 61.2344 148.664 61.0742 148.008 60.7539C147.359 60.4258 146.844 59.9766 146.461 59.4062C146.086 58.8281 145.898 58.1719 145.898 57.4375C145.898 56.7734 146.023 56.1836 146.273 55.668C146.523 55.1523 146.891 54.7188 147.375 54.3672C147.867 54.0078 148.48 53.7383 149.215 53.5586C149.949 53.3711 150.801 53.2773 151.77 53.2773H153.727ZM162.844 43V61H159.457V43H162.844ZM178.5 53.5117H174.117L174.094 51.0977H177.773C178.422 51.0977 178.953 51.0156 179.367 50.8516C179.781 50.6797 180.09 50.4336 180.293 50.1133C180.504 49.7852 180.609 49.3867 180.609 48.918C180.609 48.3867 180.508 47.957 180.305 47.6289C180.109 47.3008 179.801 47.0625 179.379 46.9141C178.965 46.7656 178.43 46.6914 177.773 46.6914H175.336V61H171.82V43.9375H177.773C178.766 43.9375 179.652 44.0312 180.434 44.2188C181.223 44.4062 181.891 44.6914 182.438 45.0742C182.984 45.457 183.402 45.9414 183.691 46.5273C183.98 47.1055 184.125 47.793 184.125 48.5898C184.125 49.293 183.965 49.9414 183.645 50.5352C183.332 51.1289 182.836 51.6133 182.156 51.9883C181.484 52.3633 180.605 52.5703 179.52 52.6094L178.5 53.5117ZM178.348 61H173.156L174.527 58.2578H178.348C178.965 58.2578 179.469 58.1602 179.859 57.9648C180.25 57.7617 180.539 57.4883 180.727 57.1445C180.914 56.8008 181.008 56.4062 181.008 55.9609C181.008 55.4609 180.922 55.0273 180.75 54.6602C180.586 54.293 180.32 54.0117 179.953 53.8164C179.586 53.6133 179.102 53.5117 178.5 53.5117H175.113L175.137 51.0977H179.355L180.164 52.0469C181.203 52.0312 182.039 52.2148 182.672 52.5977C183.312 52.9727 183.777 53.4609 184.066 54.0625C184.363 54.6641 184.512 55.3086 184.512 55.9961C184.512 57.0898 184.273 58.0117 183.797 58.7617C183.32 59.5039 182.621 60.0625 181.699 60.4375C180.785 60.8125 179.668 61 178.348 61ZM190.312 51.0859V61H186.938V48.3203H190.113L190.312 51.0859ZM194.133 48.2383L194.074 51.3672C193.91 51.3438 193.711 51.3242 193.477 51.3086C193.25 51.2852 193.043 51.2734 192.855 51.2734C192.379 51.2734 191.965 51.3359 191.613 51.4609C191.27 51.5781 190.98 51.7539 190.746 51.9883C190.52 52.2227 190.348 52.5078 190.23 52.8438C190.121 53.1797 190.059 53.5625 190.043 53.9922L189.363 53.7812C189.363 52.9609 189.445 52.207 189.609 51.5195C189.773 50.8242 190.012 50.2188 190.324 49.7031C190.645 49.1875 191.035 48.7891 191.496 48.5078C191.957 48.2266 192.484 48.0859 193.078 48.0859C193.266 48.0859 193.457 48.1016 193.652 48.1328C193.848 48.1562 194.008 48.1914 194.133 48.2383ZM201.328 61.2344C200.344 61.2344 199.461 61.0781 198.68 60.7656C197.898 60.4453 197.234 60.0039 196.688 59.4414C196.148 58.8789 195.734 58.2266 195.445 57.4844C195.156 56.7344 195.012 55.9375 195.012 55.0938V54.625C195.012 53.6641 195.148 52.7852 195.422 51.9883C195.695 51.1914 196.086 50.5 196.594 49.9141C197.109 49.3281 197.734 48.8789 198.469 48.5664C199.203 48.2461 200.031 48.0859 200.953 48.0859C201.852 48.0859 202.648 48.2344 203.344 48.5312C204.039 48.8281 204.621 49.25 205.09 49.7969C205.566 50.3438 205.926 51 206.168 51.7656C206.41 52.5234 206.531 53.3672 206.531 54.2969V55.7031H196.453V53.4531H203.215V53.1953C203.215 52.7266 203.129 52.3086 202.957 51.9414C202.793 51.5664 202.543 51.2695 202.207 51.0508C201.871 50.832 201.441 50.7227 200.918 50.7227C200.473 50.7227 200.09 50.8203 199.77 51.0156C199.449 51.2109 199.188 51.4844 198.984 51.8359C198.789 52.1875 198.641 52.6016 198.539 53.0781C198.445 53.5469 198.398 54.0625 198.398 54.625V55.0938C198.398 55.6016 198.469 56.0703 198.609 56.5C198.758 56.9297 198.965 57.3008 199.23 57.6133C199.504 57.9258 199.832 58.168 200.215 58.3398C200.605 58.5117 201.047 58.5977 201.539 58.5977C202.148 58.5977 202.715 58.4805 203.238 58.2461C203.77 58.0039 204.227 57.6406 204.609 57.1562L206.25 58.9375C205.984 59.3203 205.621 59.6875 205.16 60.0391C204.707 60.3906 204.16 60.6797 203.52 60.9062C202.879 61.125 202.148 61.2344 201.328 61.2344ZM215.297 58.1406V52.4922C215.297 52.0859 215.23 51.7383 215.098 51.4492C214.965 51.1523 214.758 50.9219 214.477 50.7578C214.203 50.5938 213.848 50.5117 213.41 50.5117C213.035 50.5117 212.711 50.5781 212.438 50.7109C212.164 50.8359 211.953 51.0195 211.805 51.2617C211.656 51.4961 211.582 51.7734 211.582 52.0938H208.207C208.207 51.5547 208.332 51.043 208.582 50.5586C208.832 50.0742 209.195 49.6484 209.672 49.2812C210.148 48.9062 210.715 48.6133 211.371 48.4023C212.035 48.1914 212.777 48.0859 213.598 48.0859C214.582 48.0859 215.457 48.25 216.223 48.5781C216.988 48.9062 217.59 49.3984 218.027 50.0547C218.473 50.7109 218.695 51.5312 218.695 52.5156V57.9414C218.695 58.6367 218.738 59.207 218.824 59.6523C218.91 60.0898 219.035 60.4727 219.199 60.8008V61H215.789C215.625 60.6562 215.5 60.2266 215.414 59.7109C215.336 59.1875 215.297 58.6641 215.297 58.1406ZM215.742 53.2773L215.766 55.1875H213.879C213.434 55.1875 213.047 55.2383 212.719 55.3398C212.391 55.4414 212.121 55.5859 211.91 55.7734C211.699 55.9531 211.543 56.1641 211.441 56.4062C211.348 56.6484 211.301 56.9141 211.301 57.2031C211.301 57.4922 211.367 57.7539 211.5 57.9883C211.633 58.2148 211.824 58.3945 212.074 58.5273C212.324 58.6523 212.617 58.7148 212.953 58.7148C213.461 58.7148 213.902 58.6133 214.277 58.4102C214.652 58.207 214.941 57.957 215.145 57.6602C215.355 57.3633 215.465 57.082 215.473 56.8164L216.363 58.2461C216.238 58.5664 216.066 58.8984 215.848 59.2422C215.637 59.5859 215.367 59.9102 215.039 60.2148C214.711 60.5117 214.316 60.7578 213.855 60.9531C213.395 61.1406 212.848 61.2344 212.215 61.2344C211.41 61.2344 210.68 61.0742 210.023 60.7539C209.375 60.4258 208.859 59.9766 208.477 59.4062C208.102 58.8281 207.914 58.1719 207.914 57.4375C207.914 56.7734 208.039 56.1836 208.289 55.668C208.539 55.1523 208.906 54.7188 209.391 54.3672C209.883 54.0078 210.496 53.7383 211.23 53.5586C211.965 53.3711 212.816 53.2773 213.785 53.2773H215.742ZM227.508 48.3203V50.7109H220.125V48.3203H227.508ZM221.953 45.1914H225.328V57.1797C225.328 57.5469 225.375 57.8281 225.469 58.0234C225.57 58.2188 225.719 58.3555 225.914 58.4336C226.109 58.5039 226.355 58.5391 226.652 58.5391C226.863 58.5391 227.051 58.5312 227.215 58.5156C227.387 58.4922 227.531 58.4688 227.648 58.4453L227.66 60.9297C227.371 61.0234 227.059 61.0977 226.723 61.1523C226.387 61.207 226.016 61.2344 225.609 61.2344C224.867 61.2344 224.219 61.1133 223.664 60.8711C223.117 60.6211 222.695 60.2227 222.398 59.6758C222.102 59.1289 221.953 58.4102 221.953 57.5195V45.1914ZM232.723 43V61H229.348V43H232.723ZM232.242 54.2148H231.316C231.324 53.332 231.441 52.5195 231.668 51.7773C231.895 51.0273 232.219 50.3789 232.641 49.832C233.062 49.2773 233.566 48.8477 234.152 48.543C234.746 48.2383 235.402 48.0859 236.121 48.0859C236.746 48.0859 237.312 48.1758 237.82 48.3555C238.336 48.5273 238.777 48.8086 239.145 49.1992C239.52 49.582 239.809 50.0859 240.012 50.7109C240.215 51.3359 240.316 52.0938 240.316 52.9844V61H236.918V52.9609C236.918 52.3984 236.836 51.957 236.672 51.6367C236.516 51.3086 236.285 51.0781 235.98 50.9453C235.684 50.8047 235.316 50.7344 234.879 50.7344C234.395 50.7344 233.98 50.8242 233.637 51.0039C233.301 51.1836 233.031 51.4336 232.828 51.7539C232.625 52.0664 232.477 52.4336 232.383 52.8555C232.289 53.2773 232.242 53.7305 232.242 54.2148Z" fill="#888888"/>
<path d="M109.219 107.422H100.734V101.07H109.219C110.375 101.07 111.312 100.875 112.031 100.484C112.75 100.094 113.273 99.5547 113.602 98.8672C113.945 98.1641 114.117 97.375 114.117 96.5C114.117 95.5625 113.945 94.6953 113.602 93.8984C113.273 93.1016 112.75 92.4609 112.031 91.9766C111.312 91.4766 110.375 91.2266 109.219 91.2266H103.828V119H95.6016V84.875H109.219C111.953 84.875 114.305 85.375 116.273 86.375C118.258 87.375 119.781 88.75 120.844 90.5C121.906 92.2344 122.438 94.2188 122.438 96.4531C122.438 98.6562 121.906 100.578 120.844 102.219C119.781 103.859 118.258 105.141 116.273 106.062C114.305 106.969 111.953 107.422 109.219 107.422ZM134.461 99.9219V119H126.562V93.6406H133.945L134.461 99.9219ZM141.961 93.4531L141.82 100.789C141.508 100.758 141.086 100.719 140.555 100.672C140.023 100.625 139.578 100.602 139.219 100.602C138.297 100.602 137.5 100.711 136.828 100.93C136.172 101.133 135.625 101.445 135.188 101.867C134.766 102.273 134.453 102.789 134.25 103.414C134.062 104.039 133.977 104.766 133.992 105.594L132.562 104.656C132.562 102.953 132.727 101.406 133.055 100.016C133.398 98.6094 133.883 97.3984 134.508 96.3828C135.133 95.3516 135.891 94.5625 136.781 94.0156C137.672 93.4531 138.672 93.1719 139.781 93.1719C140.172 93.1719 140.555 93.1953 140.93 93.2422C141.32 93.2891 141.664 93.3594 141.961 93.4531ZM142.852 106.578V106.086C142.852 104.227 143.117 102.516 143.648 100.953C144.18 99.375 144.961 98.0078 145.992 96.8516C147.023 95.6953 148.297 94.7969 149.812 94.1562C151.328 93.5 153.078 93.1719 155.062 93.1719C157.062 93.1719 158.82 93.5 160.336 94.1562C161.867 94.7969 163.148 95.6953 164.18 96.8516C165.211 98.0078 165.992 99.375 166.523 100.953C167.055 102.516 167.32 104.227 167.32 106.086V106.578C167.32 108.422 167.055 110.133 166.523 111.711C165.992 113.273 165.211 114.641 164.18 115.812C163.148 116.969 161.875 117.867 160.359 118.508C158.844 119.148 157.094 119.469 155.109 119.469C153.125 119.469 151.367 119.148 149.836 118.508C148.305 117.867 147.023 116.969 145.992 115.812C144.961 114.641 144.18 113.273 143.648 111.711C143.117 110.133 142.852 108.422 142.852 106.578ZM150.75 106.086V106.578C150.75 107.531 150.82 108.422 150.961 109.25C151.102 110.078 151.336 110.805 151.664 111.43C151.992 112.039 152.438 112.516 153 112.859C153.562 113.203 154.266 113.375 155.109 113.375C155.938 113.375 156.625 113.203 157.172 112.859C157.734 112.516 158.18 112.039 158.508 111.43C158.836 110.805 159.07 110.078 159.211 109.25C159.352 108.422 159.422 107.531 159.422 106.578V106.086C159.422 105.164 159.352 104.297 159.211 103.484C159.07 102.656 158.836 101.93 158.508 101.305C158.18 100.664 157.734 100.164 157.172 99.8047C156.609 99.4453 155.906 99.2656 155.062 99.2656C154.234 99.2656 153.539 99.4453 152.977 99.8047C152.43 100.164 151.992 100.664 151.664 101.305C151.336 101.93 151.102 102.656 150.961 103.484C150.82 104.297 150.75 105.164 150.75 106.086ZM184.195 93.6406V99.125H168.914V93.6406H184.195ZM172.125 87.3359H180.023V110.727C180.023 111.398 180.102 111.922 180.258 112.297C180.414 112.656 180.68 112.914 181.055 113.07C181.445 113.211 181.961 113.281 182.602 113.281C183.055 113.281 183.43 113.273 183.727 113.258C184.023 113.227 184.305 113.188 184.57 113.141V118.789C183.898 119.008 183.195 119.172 182.461 119.281C181.727 119.406 180.945 119.469 180.117 119.469C178.43 119.469 176.984 119.203 175.781 118.672C174.594 118.141 173.688 117.305 173.062 116.164C172.438 115.023 172.125 113.539 172.125 111.711V87.3359ZM185.648 106.578V106.086C185.648 104.227 185.914 102.516 186.445 100.953C186.977 99.375 187.758 98.0078 188.789 96.8516C189.82 95.6953 191.094 94.7969 192.609 94.1562C194.125 93.5 195.875 93.1719 197.859 93.1719C199.859 93.1719 201.617 93.5 203.133 94.1562C204.664 94.7969 205.945 95.6953 206.977 96.8516C208.008 98.0078 208.789 99.375 209.32 100.953C209.852 102.516 210.117 104.227 210.117 106.086V106.578C210.117 108.422 209.852 110.133 209.32 111.711C208.789 113.273 208.008 114.641 206.977 115.812C205.945 116.969 204.672 117.867 203.156 118.508C201.641 119.148 199.891 119.469 197.906 119.469C195.922 119.469 194.164 119.148 192.633 118.508C191.102 117.867 189.82 116.969 188.789 115.812C187.758 114.641 186.977 113.273 186.445 111.711C185.914 110.133 185.648 108.422 185.648 106.578ZM193.547 106.086V106.578C193.547 107.531 193.617 108.422 193.758 109.25C193.898 110.078 194.133 110.805 194.461 111.43C194.789 112.039 195.234 112.516 195.797 112.859C196.359 113.203 197.062 113.375 197.906 113.375C198.734 113.375 199.422 113.203 199.969 112.859C200.531 112.516 200.977 112.039 201.305 111.43C201.633 110.805 201.867 110.078 202.008 109.25C202.148 108.422 202.219 107.531 202.219 106.578V106.086C202.219 105.164 202.148 104.297 202.008 103.484C201.867 102.656 201.633 101.93 201.305 101.305C200.977 100.664 200.531 100.164 199.969 99.8047C199.406 99.4453 198.703 99.2656 197.859 99.2656C197.031 99.2656 196.336 99.4453 195.773 99.8047C195.227 100.164 194.789 100.664 194.461 101.305C194.133 101.93 193.898 102.656 193.758 103.484C193.617 104.297 193.547 105.164 193.547 106.086ZM226.992 93.6406V99.125H211.711V93.6406H226.992ZM214.922 87.3359H222.82V110.727C222.82 111.398 222.898 111.922 223.055 112.297C223.211 112.656 223.477 112.914 223.852 113.07C224.242 113.211 224.758 113.281 225.398 113.281C225.852 113.281 226.227 113.273 226.523 113.258C226.82 113.227 227.102 113.188 227.367 113.141V118.789C226.695 119.008 225.992 119.172 225.258 119.281C224.523 119.406 223.742 119.469 222.914 119.469C221.227 119.469 219.781 119.203 218.578 118.672C217.391 118.141 216.484 117.305 215.859 116.164C215.234 115.023 214.922 113.539 214.922 111.711V87.3359ZM237.914 116.023L244.477 93.6406H252.961L242.766 122.773C242.547 123.414 242.258 124.102 241.898 124.836C241.539 125.586 241.047 126.297 240.422 126.969C239.797 127.641 238.992 128.188 238.008 128.609C237.039 129.031 235.836 129.242 234.398 129.242C233.633 129.242 233.07 129.203 232.711 129.125C232.367 129.062 231.836 128.945 231.117 128.773V123.125C231.32 123.125 231.492 123.125 231.633 123.125C231.789 123.125 231.961 123.125 232.148 123.125C232.992 123.125 233.664 123.039 234.164 122.867C234.68 122.695 235.07 122.445 235.336 122.117C235.617 121.789 235.836 121.391 235.992 120.922L237.914 116.023ZM236.25 93.6406L241.242 111.383L242.109 119.75H236.812L227.789 93.6406H236.25ZM262.992 98.5156V128.75H255.094V93.6406H262.453L262.992 98.5156ZM278.555 106.016V106.508C278.555 108.352 278.344 110.062 277.922 111.641C277.5 113.219 276.875 114.594 276.047 115.766C275.219 116.938 274.188 117.852 272.953 118.508C271.734 119.148 270.32 119.469 268.711 119.469C267.195 119.469 265.891 119.133 264.797 118.461C263.703 117.789 262.789 116.859 262.055 115.672C261.32 114.484 260.727 113.125 260.273 111.594C259.82 110.062 259.461 108.445 259.195 106.742V106.109C259.461 104.281 259.82 102.586 260.273 101.023C260.727 99.4453 261.32 98.0703 262.055 96.8984C262.789 95.7266 263.695 94.8125 264.773 94.1562C265.867 93.5 267.172 93.1719 268.688 93.1719C270.297 93.1719 271.711 93.4766 272.93 94.0859C274.164 94.6953 275.195 95.5703 276.023 96.7109C276.867 97.8359 277.5 99.1875 277.922 100.766C278.344 102.344 278.555 104.094 278.555 106.016ZM270.656 106.508V106.016C270.656 105.031 270.586 104.133 270.445 103.32C270.305 102.492 270.078 101.773 269.766 101.164C269.469 100.555 269.07 100.086 268.57 99.7578C268.07 99.4297 267.453 99.2656 266.719 99.2656C265.875 99.2656 265.164 99.3984 264.586 99.6641C264.023 99.9141 263.57 100.305 263.227 100.836C262.898 101.352 262.664 102 262.523 102.781C262.398 103.547 262.344 104.445 262.359 105.477V107.398C262.328 108.586 262.445 109.633 262.711 110.539C262.977 111.43 263.438 112.125 264.094 112.625C264.75 113.125 265.641 113.375 266.766 113.375C267.516 113.375 268.141 113.203 268.641 112.859C269.141 112.5 269.539 112.008 269.836 111.383C270.133 110.742 270.344 110.008 270.469 109.18C270.594 108.352 270.656 107.461 270.656 106.508ZM290.414 93.6406V119H282.492V93.6406H290.414ZM282.023 87.1016C282.023 85.9766 282.43 85.0547 283.242 84.3359C284.055 83.6172 285.109 83.2578 286.406 83.2578C287.703 83.2578 288.758 83.6172 289.57 84.3359C290.383 85.0547 290.789 85.9766 290.789 87.1016C290.789 88.2266 290.383 89.1484 289.57 89.8672C288.758 90.5859 287.703 90.9453 286.406 90.9453C285.109 90.9453 284.055 90.5859 283.242 89.8672C282.43 89.1484 282.023 88.2266 282.023 87.1016ZM303.047 99.0547V119H295.148V93.6406H302.555L303.047 99.0547ZM302.109 105.453L300.258 105.5C300.258 103.562 300.492 101.836 300.961 100.32C301.43 98.7891 302.094 97.4922 302.953 96.4297C303.812 95.3672 304.836 94.5625 306.023 94.0156C307.227 93.4531 308.562 93.1719 310.031 93.1719C311.203 93.1719 312.273 93.3438 313.242 93.6875C314.227 94.0312 315.07 94.5859 315.773 95.3516C316.492 96.1172 317.039 97.1328 317.414 98.3984C317.805 99.6484 318 101.195 318 103.039V119H310.055V103.016C310.055 102 309.914 101.227 309.633 100.695C309.352 100.148 308.945 99.7734 308.414 99.5703C307.883 99.3672 307.234 99.2656 306.469 99.2656C305.656 99.2656 304.969 99.4219 304.406 99.7344C303.844 100.047 303.391 100.484 303.047 101.047C302.719 101.594 302.477 102.242 302.32 102.992C302.18 103.742 302.109 104.562 302.109 105.453ZM338.32 93.6406H345.492V118.016C345.492 120.359 344.953 122.344 343.875 123.969C342.797 125.609 341.289 126.852 339.352 127.695C337.43 128.555 335.18 128.984 332.602 128.984C331.461 128.984 330.297 128.836 329.109 128.539C327.922 128.258 326.812 127.836 325.781 127.273C324.75 126.711 323.883 126.016 323.18 125.188L326.484 120.547C327.125 121.266 327.93 121.875 328.898 122.375C329.867 122.891 331.008 123.148 332.32 123.148C333.461 123.148 334.414 122.945 335.18 122.539C335.961 122.133 336.555 121.539 336.961 120.758C337.367 119.992 337.57 119.062 337.57 117.969V99.6406L338.32 93.6406ZM321.469 106.625V106.133C321.469 104.211 321.703 102.461 322.172 100.883C322.656 99.2891 323.344 97.9219 324.234 96.7812C325.141 95.625 326.234 94.7344 327.516 94.1094C328.797 93.4844 330.242 93.1719 331.852 93.1719C333.586 93.1719 335.008 93.5078 336.117 94.1797C337.242 94.8359 338.141 95.7578 338.812 96.9453C339.5 98.1328 340.031 99.5234 340.406 101.117C340.797 102.695 341.125 104.398 341.391 106.227V106.812C341.125 108.531 340.758 110.156 340.289 111.688C339.836 113.203 339.242 114.547 338.508 115.719C337.773 116.891 336.852 117.812 335.742 118.484C334.648 119.141 333.336 119.469 331.805 119.469C330.211 119.469 328.773 119.148 327.492 118.508C326.227 117.867 325.141 116.969 324.234 115.812C323.344 114.656 322.656 113.297 322.172 111.734C321.703 110.172 321.469 108.469 321.469 106.625ZM329.367 106.133V106.625C329.367 107.578 329.453 108.461 329.625 109.273C329.812 110.086 330.094 110.805 330.469 111.43C330.844 112.039 331.305 112.516 331.852 112.859C332.414 113.203 333.07 113.375 333.82 113.375C334.961 113.375 335.883 113.133 336.586 112.648C337.289 112.164 337.797 111.477 338.109 110.586C338.422 109.695 338.555 108.648 338.508 107.445V105.594C338.539 104.562 338.469 103.656 338.297 102.875C338.125 102.078 337.852 101.414 337.477 100.883C337.117 100.352 336.633 99.9531 336.023 99.6875C335.43 99.4062 334.711 99.2656 333.867 99.2656C333.133 99.2656 332.484 99.4375 331.922 99.7812C331.359 100.125 330.891 100.609 330.516 101.234C330.141 101.844 329.852 102.57 329.648 103.414C329.461 104.242 329.367 105.148 329.367 106.133Z" fill="black"/>
<path d="M1134 0H1348C1356.28 0 1363 6.71573 1363 15V148C1363 156.284 1356.28 163 1348 163H1134V0Z" fill="#C9001C"/>
<path fill-rule="evenodd" clip-rule="evenodd" d="M1202.75 46.5018C1202.75 45.3973 1203.65 44.5018 1204.75 44.5018H1292.25C1293.35 44.5018 1294.25 45.3973 1294.25 46.5018V116.498C1294.25 117.603 1293.35 118.498 1292.25 118.498H1204.75C1203.65 118.498 1202.75 117.603 1202.75 116.498V46.5018ZM1206.75 48.5018V52.9963H1290.25V48.5018H1206.75ZM1290.25 56.9963H1235.19V114.498H1290.25V56.9963ZM1231.19 114.498V56.9963H1206.75V114.498H1231.19Z" fill="white"/>
<path fill-rule="evenodd" clip-rule="evenodd" d="M1209.72 62.3022C1209.72 61.1976 1210.62 60.3022 1211.72 60.3022H1225.72C1226.83 60.3022 1227.72 61.1976 1227.72 62.3022V81.6974C1227.72 82.802 1226.83 83.6974 1225.72 83.6974H1211.72C1210.62 83.6974 1209.72 82.802 1209.72 81.6974V62.3022ZM1213.72 64.3022V79.6974H1223.72V64.3022H1213.72ZM1239.33 63.1982C1239.33 62.0936 1240.22 61.1982 1241.33 61.1982H1284.25C1285.36 61.1982 1286.25 62.0936 1286.25 63.1982V109.407C1286.25 110.511 1285.36 111.407 1284.25 111.407H1241.33C1240.22 111.407 1239.33 110.511 1239.33 109.407V63.1982ZM1243.33 65.1982V107.407H1282.25V65.1982H1243.33ZM1209.56 93.4381C1209.56 92.3336 1210.46 91.4381 1211.56 91.4381H1220.48C1221.59 91.4381 1222.48 92.3336 1222.48 93.4381C1222.48 94.5427 1221.59 95.4381 1220.48 95.4381H1211.56C1210.46 95.4381 1209.56 94.5427 1209.56 93.4381ZM1209.56 100.438C1209.56 99.3335 1210.46 98.4381 1211.56 98.4381H1226.1C1227.21 98.4381 1228.1 99.3335 1228.1 100.438C1228.1 101.543 1227.21 102.438 1226.1 102.438H1211.56C1210.46 102.438 1209.56 101.543 1209.56 100.438ZM1209.56 107.438C1209.56 106.334 1210.46 105.438 1211.56 105.438H1220.48C1221.59 105.438 1222.48 106.334 1222.48 107.438C1222.48 108.543 1221.59 109.438 1220.48 109.438H1211.56C1210.46 109.438 1209.56 108.543 1209.56 107.438Z" fill="white"/>
</svg>
