<svg width="1363" height="163" viewBox="0 0 1363 163" fill="none" xmlns="http://www.w3.org/2000/svg">
<path d="M0 15C0 6.71573 6.71573 0 15 0H37V163H15C6.71573 163 0 156.284 0 148V15Z" fill="#424242"/>
<rect width="1097" height="163" transform="translate(37)" fill="#F0F0F0"/>
<path d="M101.906 53.9219L94.3945 51.2383V48.0859L104.602 52.375V54.6367L101.906 53.9219ZM94.3945 56.1719L101.918 53.4297L104.602 52.7852V55.0352L94.3945 59.3242V56.1719ZM116.414 43.9375V61H112.898V43.9375H116.414ZM123.211 51.2266V53.9688H115.453V51.2266H123.211ZM124.031 43.9375V46.6914H115.453V43.9375H124.031ZM132.305 58.1406V52.4922C132.305 52.0859 132.238 51.7383 132.105 51.4492C131.973 51.1523 131.766 50.9219 131.484 50.7578C131.211 50.5938 130.855 50.5117 130.418 50.5117C130.043 50.5117 129.719 50.5781 129.445 50.7109C129.172 50.8359 128.961 51.0195 128.812 51.2617C128.664 51.4961 128.59 51.7734 128.59 52.0938H125.215C125.215 51.5547 125.34 51.043 125.59 50.5586C125.84 50.0742 126.203 49.6484 126.68 49.2812C127.156 48.9062 127.723 48.6133 128.379 48.4023C129.043 48.1914 129.785 48.0859 130.605 48.0859C131.59 48.0859 132.465 48.25 133.23 48.5781C133.996 48.9062 134.598 49.3984 135.035 50.0547C135.48 50.7109 135.703 51.5312 135.703 52.5156V57.9414C135.703 58.6367 135.746 59.207 135.832 59.6523C135.918 60.0898 136.043 60.4727 136.207 60.8008V61H132.797C132.633 60.6562 132.508 60.2266 132.422 59.7109C132.344 59.1875 132.305 58.6641 132.305 58.1406ZM132.75 53.2773L132.773 55.1875H130.887C130.441 55.1875 130.055 55.2383 129.727 55.3398C129.398 55.4414 129.129 55.5859 128.918 55.7734C128.707 55.9531 128.551 56.1641 128.449 56.4062C128.355 56.6484 128.309 56.9141 128.309 57.2031C128.309 57.4922 128.375 57.7539 128.508 57.9883C128.641 58.2148 128.832 58.3945 129.082 58.5273C129.332 58.6523 129.625 58.7148 129.961 58.7148C130.469 58.7148 130.91 58.6133 131.285 58.4102C131.66 58.207 131.949 57.957 132.152 57.6602C132.363 57.3633 132.473 57.082 132.48 56.8164L133.371 58.2461C133.246 58.5664 133.074 58.8984 132.855 59.2422C132.645 59.5859 132.375 59.9102 132.047 60.2148C131.719 60.5117 131.324 60.7578 130.863 60.9531C130.402 61.1406 129.855 61.2344 129.223 61.2344C128.418 61.2344 127.688 61.0742 127.031 60.7539C126.383 60.4258 125.867 59.9766 125.484 59.4062C125.109 58.8281 124.922 58.1719 124.922 57.4375C124.922 56.7734 125.047 56.1836 125.297 55.668C125.547 55.1523 125.914 54.7188 126.398 54.3672C126.891 54.0078 127.504 53.7383 128.238 53.5586C128.973 53.3711 129.824 53.2773 130.793 53.2773H132.75ZM144.516 48.3203V50.7109H137.133V48.3203H144.516ZM138.961 45.1914H142.336V57.1797C142.336 57.5469 142.383 57.8281 142.477 58.0234C142.578 58.2188 142.727 58.3555 142.922 58.4336C143.117 58.5039 143.363 58.5391 143.66 58.5391C143.871 58.5391 144.059 58.5312 144.223 58.5156C144.395 58.4922 144.539 58.4688 144.656 58.4453L144.668 60.9297C144.379 61.0234 144.066 61.0977 143.73 61.1523C143.395 61.207 143.023 61.2344 142.617 61.2344C141.875 61.2344 141.227 61.1133 140.672 60.8711C140.125 60.6211 139.703 60.2227 139.406 59.6758C139.109 59.1289 138.961 58.4102 138.961 57.5195V45.1914ZM153.281 58.1406V52.4922C153.281 52.0859 153.215 51.7383 153.082 51.4492C152.949 51.1523 152.742 50.9219 152.461 50.7578C152.188 50.5938 151.832 50.5117 151.395 50.5117C151.02 50.5117 150.695 50.5781 150.422 50.7109C150.148 50.8359 149.938 51.0195 149.789 51.2617C149.641 51.4961 149.566 51.7734 149.566 52.0938H146.191C146.191 51.5547 146.316 51.043 146.566 50.5586C146.816 50.0742 147.18 49.6484 147.656 49.2812C148.133 48.9062 148.699 48.6133 149.355 48.4023C150.02 48.1914 150.762 48.0859 151.582 48.0859C152.566 48.0859 153.441 48.25 154.207 48.5781C154.973 48.9062 155.574 49.3984 156.012 50.0547C156.457 50.7109 156.68 51.5312 156.68 52.5156V57.9414C156.68 58.6367 156.723 59.207 156.809 59.6523C156.895 60.0898 157.02 60.4727 157.184 60.8008V61H153.773C153.609 60.6562 153.484 60.2266 153.398 59.7109C153.32 59.1875 153.281 58.6641 153.281 58.1406ZM153.727 53.2773L153.75 55.1875H151.863C151.418 55.1875 151.031 55.2383 150.703 55.3398C150.375 55.4414 150.105 55.5859 149.895 55.7734C149.684 55.9531 149.527 56.1641 149.426 56.4062C149.332 56.6484 149.285 56.9141 149.285 57.2031C149.285 57.4922 149.352 57.7539 149.484 57.9883C149.617 58.2148 149.809 58.3945 150.059 58.5273C150.309 58.6523 150.602 58.7148 150.938 58.7148C151.445 58.7148 151.887 58.6133 152.262 58.4102C152.637 58.207 152.926 57.957 153.129 57.6602C153.34 57.3633 153.449 57.082 153.457 56.8164L154.348 58.2461C154.223 58.5664 154.051 58.8984 153.832 59.2422C153.621 59.5859 153.352 59.9102 153.023 60.2148C152.695 60.5117 152.301 60.7578 151.84 60.9531C151.379 61.1406 150.832 61.2344 150.199 61.2344C149.395 61.2344 148.664 61.0742 148.008 60.7539C147.359 60.4258 146.844 59.9766 146.461 59.4062C146.086 58.8281 145.898 58.1719 145.898 57.4375C145.898 56.7734 146.023 56.1836 146.273 55.668C146.523 55.1523 146.891 54.7188 147.375 54.3672C147.867 54.0078 148.48 53.7383 149.215 53.5586C149.949 53.3711 150.801 53.2773 151.77 53.2773H153.727ZM162.844 43V61H159.457V43H162.844ZM178.5 53.5117H174.117L174.094 51.0977H177.773C178.422 51.0977 178.953 51.0156 179.367 50.8516C179.781 50.6797 180.09 50.4336 180.293 50.1133C180.504 49.7852 180.609 49.3867 180.609 48.918C180.609 48.3867 180.508 47.957 180.305 47.6289C180.109 47.3008 179.801 47.0625 179.379 46.9141C178.965 46.7656 178.43 46.6914 177.773 46.6914H175.336V61H171.82V43.9375H177.773C178.766 43.9375 179.652 44.0312 180.434 44.2188C181.223 44.4062 181.891 44.6914 182.438 45.0742C182.984 45.457 183.402 45.9414 183.691 46.5273C183.98 47.1055 184.125 47.793 184.125 48.5898C184.125 49.293 183.965 49.9414 183.645 50.5352C183.332 51.1289 182.836 51.6133 182.156 51.9883C181.484 52.3633 180.605 52.5703 179.52 52.6094L178.5 53.5117ZM178.348 61H173.156L174.527 58.2578H178.348C178.965 58.2578 179.469 58.1602 179.859 57.9648C180.25 57.7617 180.539 57.4883 180.727 57.1445C180.914 56.8008 181.008 56.4062 181.008 55.9609C181.008 55.4609 180.922 55.0273 180.75 54.6602C180.586 54.293 180.32 54.0117 179.953 53.8164C179.586 53.6133 179.102 53.5117 178.5 53.5117H175.113L175.137 51.0977H179.355L180.164 52.0469C181.203 52.0312 182.039 52.2148 182.672 52.5977C183.312 52.9727 183.777 53.4609 184.066 54.0625C184.363 54.6641 184.512 55.3086 184.512 55.9961C184.512 57.0898 184.273 58.0117 183.797 58.7617C183.32 59.5039 182.621 60.0625 181.699 60.4375C180.785 60.8125 179.668 61 178.348 61ZM190.312 51.0859V61H186.938V48.3203H190.113L190.312 51.0859ZM194.133 48.2383L194.074 51.3672C193.91 51.3438 193.711 51.3242 193.477 51.3086C193.25 51.2852 193.043 51.2734 192.855 51.2734C192.379 51.2734 191.965 51.3359 191.613 51.4609C191.27 51.5781 190.98 51.7539 190.746 51.9883C190.52 52.2227 190.348 52.5078 190.23 52.8438C190.121 53.1797 190.059 53.5625 190.043 53.9922L189.363 53.7812C189.363 52.9609 189.445 52.207 189.609 51.5195C189.773 50.8242 190.012 50.2188 190.324 49.7031C190.645 49.1875 191.035 48.7891 191.496 48.5078C191.957 48.2266 192.484 48.0859 193.078 48.0859C193.266 48.0859 193.457 48.1016 193.652 48.1328C193.848 48.1562 194.008 48.1914 194.133 48.2383ZM201.328 61.2344C200.344 61.2344 199.461 61.0781 198.68 60.7656C197.898 60.4453 197.234 60.0039 196.688 59.4414C196.148 58.8789 195.734 58.2266 195.445 57.4844C195.156 56.7344 195.012 55.9375 195.012 55.0938V54.625C195.012 53.6641 195.148 52.7852 195.422 51.9883C195.695 51.1914 196.086 50.5 196.594 49.9141C197.109 49.3281 197.734 48.8789 198.469 48.5664C199.203 48.2461 200.031 48.0859 200.953 48.0859C201.852 48.0859 202.648 48.2344 203.344 48.5312C204.039 48.8281 204.621 49.25 205.09 49.7969C205.566 50.3438 205.926 51 206.168 51.7656C206.41 52.5234 206.531 53.3672 206.531 54.2969V55.7031H196.453V53.4531H203.215V53.1953C203.215 52.7266 203.129 52.3086 202.957 51.9414C202.793 51.5664 202.543 51.2695 202.207 51.0508C201.871 50.832 201.441 50.7227 200.918 50.7227C200.473 50.7227 200.09 50.8203 199.77 51.0156C199.449 51.2109 199.188 51.4844 198.984 51.8359C198.789 52.1875 198.641 52.6016 198.539 53.0781C198.445 53.5469 198.398 54.0625 198.398 54.625V55.0938C198.398 55.6016 198.469 56.0703 198.609 56.5C198.758 56.9297 198.965 57.3008 199.23 57.6133C199.504 57.9258 199.832 58.168 200.215 58.3398C200.605 58.5117 201.047 58.5977 201.539 58.5977C202.148 58.5977 202.715 58.4805 203.238 58.2461C203.77 58.0039 204.227 57.6406 204.609 57.1562L206.25 58.9375C205.984 59.3203 205.621 59.6875 205.16 60.0391C204.707 60.3906 204.16 60.6797 203.52 60.9062C202.879 61.125 202.148 61.2344 201.328 61.2344ZM215.297 58.1406V52.4922C215.297 52.0859 215.23 51.7383 215.098 51.4492C214.965 51.1523 214.758 50.9219 214.477 50.7578C214.203 50.5938 213.848 50.5117 213.41 50.5117C213.035 50.5117 212.711 50.5781 212.438 50.7109C212.164 50.8359 211.953 51.0195 211.805 51.2617C211.656 51.4961 211.582 51.7734 211.582 52.0938H208.207C208.207 51.5547 208.332 51.043 208.582 50.5586C208.832 50.0742 209.195 49.6484 209.672 49.2812C210.148 48.9062 210.715 48.6133 211.371 48.4023C212.035 48.1914 212.777 48.0859 213.598 48.0859C214.582 48.0859 215.457 48.25 216.223 48.5781C216.988 48.9062 217.59 49.3984 218.027 50.0547C218.473 50.7109 218.695 51.5312 218.695 52.5156V57.9414C218.695 58.6367 218.738 59.207 218.824 59.6523C218.91 60.0898 219.035 60.4727 219.199 60.8008V61H215.789C215.625 60.6562 215.5 60.2266 215.414 59.7109C215.336 59.1875 215.297 58.6641 215.297 58.1406ZM215.742 53.2773L215.766 55.1875H213.879C213.434 55.1875 213.047 55.2383 212.719 55.3398C212.391 55.4414 212.121 55.5859 211.91 55.7734C211.699 55.9531 211.543 56.1641 211.441 56.4062C211.348 56.6484 211.301 56.9141 211.301 57.2031C211.301 57.4922 211.367 57.7539 211.5 57.9883C211.633 58.2148 211.824 58.3945 212.074 58.5273C212.324 58.6523 212.617 58.7148 212.953 58.7148C213.461 58.7148 213.902 58.6133 214.277 58.4102C214.652 58.207 214.941 57.957 215.145 57.6602C215.355 57.3633 215.465 57.082 215.473 56.8164L216.363 58.2461C216.238 58.5664 216.066 58.8984 215.848 59.2422C215.637 59.5859 215.367 59.9102 215.039 60.2148C214.711 60.5117 214.316 60.7578 213.855 60.9531C213.395 61.1406 212.848 61.2344 212.215 61.2344C211.41 61.2344 210.68 61.0742 210.023 60.7539C209.375 60.4258 208.859 59.9766 208.477 59.4062C208.102 58.8281 207.914 58.1719 207.914 57.4375C207.914 56.7734 208.039 56.1836 208.289 55.668C208.539 55.1523 208.906 54.7188 209.391 54.3672C209.883 54.0078 210.496 53.7383 211.23 53.5586C211.965 53.3711 212.816 53.2773 213.785 53.2773H215.742ZM227.508 48.3203V50.7109H220.125V48.3203H227.508ZM221.953 45.1914H225.328V57.1797C225.328 57.5469 225.375 57.8281 225.469 58.0234C225.57 58.2188 225.719 58.3555 225.914 58.4336C226.109 58.5039 226.355 58.5391 226.652 58.5391C226.863 58.5391 227.051 58.5312 227.215 58.5156C227.387 58.4922 227.531 58.4688 227.648 58.4453L227.66 60.9297C227.371 61.0234 227.059 61.0977 226.723 61.1523C226.387 61.207 226.016 61.2344 225.609 61.2344C224.867 61.2344 224.219 61.1133 223.664 60.8711C223.117 60.6211 222.695 60.2227 222.398 59.6758C222.102 59.1289 221.953 58.4102 221.953 57.5195V45.1914ZM232.723 43V61H229.348V43H232.723ZM232.242 54.2148H231.316C231.324 53.332 231.441 52.5195 231.668 51.7773C231.895 51.0273 232.219 50.3789 232.641 49.832C233.062 49.2773 233.566 48.8477 234.152 48.543C234.746 48.2383 235.402 48.0859 236.121 48.0859C236.746 48.0859 237.312 48.1758 237.82 48.3555C238.336 48.5273 238.777 48.8086 239.145 49.1992C239.52 49.582 239.809 50.0859 240.012 50.7109C240.215 51.3359 240.316 52.0938 240.316 52.9844V61H236.918V52.9609C236.918 52.3984 236.836 51.957 236.672 51.6367C236.516 51.3086 236.285 51.0781 235.98 50.9453C235.684 50.8047 235.316 50.7344 234.879 50.7344C234.395 50.7344 233.98 50.8242 233.637 51.0039C233.301 51.1836 233.031 51.4336 232.828 51.7539C232.625 52.0664 232.477 52.4336 232.383 52.8555C232.289 53.2773 232.242 53.7305 232.242 54.2148Z" fill="#888888"/>
<path d="M112.125 84.875V119H103.898V84.875H112.125ZM122.391 84.875V91.2266H93.8672V84.875H122.391ZM134.695 112.625V102.172C134.695 101.453 134.594 100.836 134.391 100.32C134.188 99.8047 133.867 99.4062 133.43 99.125C132.992 98.8281 132.406 98.6797 131.672 98.6797C131.078 98.6797 130.57 98.7812 130.148 98.9844C129.727 99.1875 129.406 99.4922 129.188 99.8984C128.969 100.305 128.859 100.82 128.859 101.445H120.961C120.961 100.273 121.219 99.1875 121.734 98.1875C122.266 97.1719 123.016 96.2891 123.984 95.5391C124.969 94.7891 126.141 94.2109 127.5 93.8047C128.875 93.3828 130.406 93.1719 132.094 93.1719C134.109 93.1719 135.906 93.5078 137.484 94.1797C139.078 94.8516 140.336 95.8594 141.258 97.2031C142.18 98.5312 142.641 100.203 142.641 102.219V112.602C142.641 114.258 142.734 115.516 142.922 116.375C143.109 117.219 143.375 117.961 143.719 118.602V119H135.797C135.422 118.219 135.141 117.266 134.953 116.141C134.781 115 134.695 113.828 134.695 112.625ZM135.656 103.508L135.703 107.727H132.211C131.477 107.727 130.852 107.828 130.336 108.031C129.836 108.234 129.43 108.516 129.117 108.875C128.82 109.219 128.602 109.609 128.461 110.047C128.336 110.484 128.273 110.945 128.273 111.43C128.273 111.898 128.383 112.32 128.602 112.695C128.836 113.055 129.148 113.336 129.539 113.539C129.93 113.742 130.367 113.844 130.852 113.844C131.727 113.844 132.469 113.68 133.078 113.352C133.703 113.008 134.18 112.594 134.508 112.109C134.836 111.625 135 111.172 135 110.75L136.734 113.984C136.422 114.609 136.062 115.242 135.656 115.883C135.266 116.523 134.773 117.117 134.18 117.664C133.602 118.195 132.891 118.633 132.047 118.977C131.203 119.305 130.18 119.469 128.977 119.469C127.414 119.469 125.977 119.148 124.664 118.508C123.367 117.867 122.328 116.977 121.547 115.836C120.766 114.68 120.375 113.352 120.375 111.852C120.375 110.539 120.609 109.367 121.078 108.336C121.562 107.305 122.289 106.43 123.258 105.711C124.227 104.992 125.461 104.445 126.961 104.07C128.461 103.695 130.227 103.508 132.258 103.508H135.656ZM147.094 83H154.992V112.766L154.172 119H147.094V83ZM170.555 106.039V106.531C170.555 108.453 170.359 110.203 169.969 111.781C169.578 113.359 168.977 114.727 168.164 115.883C167.352 117.023 166.328 117.906 165.094 118.531C163.859 119.156 162.398 119.469 160.711 119.469C159.18 119.469 157.867 119.141 156.773 118.484C155.68 117.812 154.766 116.891 154.031 115.719C153.297 114.531 152.703 113.164 152.25 111.617C151.797 110.055 151.438 108.383 151.172 106.602V106.016C151.438 104.25 151.797 102.594 152.25 101.047C152.703 99.4844 153.297 98.1172 154.031 96.9453C154.766 95.7578 155.672 94.8359 156.75 94.1797C157.844 93.5078 159.148 93.1719 160.664 93.1719C162.367 93.1719 163.836 93.4922 165.07 94.1328C166.32 94.7734 167.352 95.6719 168.164 96.8281C168.977 97.9844 169.578 99.3438 169.969 100.906C170.359 102.469 170.555 104.18 170.555 106.039ZM162.656 106.531V106.039C162.656 105.117 162.602 104.25 162.492 103.438C162.383 102.625 162.188 101.906 161.906 101.281C161.625 100.656 161.227 100.164 160.711 99.8047C160.195 99.4453 159.523 99.2656 158.695 99.2656C157.852 99.2656 157.141 99.4062 156.562 99.6875C156 99.9688 155.547 100.375 155.203 100.906C154.875 101.422 154.641 102.062 154.5 102.828C154.359 103.578 154.297 104.43 154.312 105.383V107.234C154.281 108.531 154.398 109.641 154.664 110.562C154.93 111.484 155.391 112.188 156.047 112.672C156.703 113.156 157.602 113.398 158.742 113.398C159.586 113.398 160.266 113.234 160.781 112.906C161.312 112.578 161.711 112.109 161.977 111.5C162.242 110.891 162.422 110.164 162.516 109.32C162.609 108.477 162.656 107.547 162.656 106.531ZM182.414 83V119H174.492V83H182.414ZM199.57 119.469C197.508 119.469 195.664 119.148 194.039 118.508C192.414 117.852 191.039 116.953 189.914 115.812C188.805 114.672 187.953 113.359 187.359 111.875C186.781 110.391 186.492 108.82 186.492 107.164V106.273C186.492 104.414 186.75 102.695 187.266 101.117C187.781 99.5234 188.547 98.1328 189.562 96.9453C190.578 95.7578 191.852 94.8359 193.383 94.1797C194.914 93.5078 196.695 93.1719 198.727 93.1719C200.523 93.1719 202.133 93.4609 203.555 94.0391C204.977 94.6172 206.18 95.4453 207.164 96.5234C208.164 97.6016 208.922 98.9062 209.438 100.438C209.969 101.969 210.234 103.688 210.234 105.594V108.805H189.516V103.859H202.523V103.25C202.539 102.406 202.391 101.688 202.078 101.094C201.781 100.5 201.344 100.047 200.766 99.7344C200.188 99.4219 199.484 99.2656 198.656 99.2656C197.797 99.2656 197.086 99.4531 196.523 99.8281C195.977 100.203 195.547 100.719 195.234 101.375C194.938 102.016 194.727 102.758 194.602 103.602C194.477 104.445 194.414 105.336 194.414 106.273V107.164C194.414 108.102 194.539 108.953 194.789 109.719C195.055 110.484 195.43 111.141 195.914 111.688C196.414 112.219 197.008 112.633 197.695 112.93C198.398 113.227 199.195 113.375 200.086 113.375C201.164 113.375 202.227 113.172 203.273 112.766C204.32 112.359 205.219 111.688 205.969 110.75L209.555 115.016C209.039 115.75 208.305 116.461 207.352 117.148C206.414 117.836 205.289 118.398 203.977 118.836C202.664 119.258 201.195 119.469 199.57 119.469ZM224.414 106.578V106.086C224.414 104.227 224.68 102.516 225.211 100.953C225.742 99.375 226.523 98.0078 227.555 96.8516C228.586 95.6953 229.859 94.7969 231.375 94.1562C232.891 93.5 234.641 93.1719 236.625 93.1719C238.625 93.1719 240.383 93.5 241.898 94.1562C243.43 94.7969 244.711 95.6953 245.742 96.8516C246.773 98.0078 247.555 99.375 248.086 100.953C248.617 102.516 248.883 104.227 248.883 106.086V106.578C248.883 108.422 248.617 110.133 248.086 111.711C247.555 113.273 246.773 114.641 245.742 115.812C244.711 116.969 243.438 117.867 241.922 118.508C240.406 119.148 238.656 119.469 236.672 119.469C234.688 119.469 232.93 119.148 231.398 118.508C229.867 117.867 228.586 116.969 227.555 115.812C226.523 114.641 225.742 113.273 225.211 111.711C224.68 110.133 224.414 108.422 224.414 106.578ZM232.312 106.086V106.578C232.312 107.531 232.383 108.422 232.523 109.25C232.664 110.078 232.898 110.805 233.227 111.43C233.555 112.039 234 112.516 234.562 112.859C235.125 113.203 235.828 113.375 236.672 113.375C237.5 113.375 238.188 113.203 238.734 112.859C239.297 112.516 239.742 112.039 240.07 111.43C240.398 110.805 240.633 110.078 240.773 109.25C240.914 108.422 240.984 107.531 240.984 106.578V106.086C240.984 105.164 240.914 104.297 240.773 103.484C240.633 102.656 240.398 101.93 240.07 101.305C239.742 100.664 239.297 100.164 238.734 99.8047C238.172 99.4453 237.469 99.2656 236.625 99.2656C235.797 99.2656 235.102 99.4453 234.539 99.8047C233.992 100.164 233.555 100.664 233.227 101.305C232.898 101.93 232.664 102.656 232.523 103.484C232.383 104.297 232.312 105.164 232.312 106.086ZM262.078 119H254.133V91.5781C254.133 89.6094 254.531 87.9531 255.328 86.6094C256.125 85.2656 257.25 84.25 258.703 83.5625C260.156 82.8594 261.875 82.5078 263.859 82.5078C264.547 82.5078 265.195 82.5547 265.805 82.6484C266.414 82.7422 267.008 82.8594 267.586 83L267.609 88.8125C267.328 88.7344 267.039 88.6797 266.742 88.6484C266.445 88.6172 266.078 88.6016 265.641 88.6016C264.875 88.6016 264.227 88.7188 263.695 88.9531C263.164 89.1719 262.758 89.5078 262.477 89.9609C262.211 90.3984 262.078 90.9375 262.078 91.5781V119ZM267 93.6406V99.125H250.477V93.6406H267ZM301.57 107.445H309.773C309.664 109.82 309.023 111.914 307.852 113.727C306.68 115.539 305.055 116.953 302.977 117.969C300.914 118.969 298.477 119.469 295.664 119.469C293.383 119.469 291.344 119.086 289.547 118.32C287.766 117.555 286.25 116.453 285 115.016C283.766 113.578 282.82 111.836 282.164 109.789C281.523 107.742 281.203 105.438 281.203 102.875V101.023C281.203 98.4609 281.539 96.1562 282.211 94.1094C282.898 92.0469 283.867 90.2969 285.117 88.8594C286.383 87.4062 287.898 86.2969 289.664 85.5312C291.43 84.7656 293.391 84.3828 295.547 84.3828C298.516 84.3828 301.023 84.9141 303.07 85.9766C305.117 87.0391 306.703 88.5 307.828 90.3594C308.953 92.2031 309.617 94.3047 309.82 96.6641H301.617C301.586 95.3828 301.367 94.3125 300.961 93.4531C300.555 92.5781 299.914 91.9219 299.039 91.4844C298.164 91.0469 297 90.8281 295.547 90.8281C294.531 90.8281 293.648 91.0156 292.898 91.3906C292.148 91.7656 291.523 92.3594 291.023 93.1719C290.523 93.9844 290.148 95.0391 289.898 96.3359C289.664 97.6172 289.547 99.1641 289.547 100.977V102.875C289.547 104.688 289.656 106.234 289.875 107.516C290.094 108.797 290.445 109.844 290.93 110.656C291.414 111.469 292.039 112.07 292.805 112.461C293.586 112.836 294.539 113.023 295.664 113.023C296.914 113.023 297.969 112.828 298.828 112.438C299.688 112.031 300.352 111.422 300.82 110.609C301.289 109.781 301.539 108.727 301.57 107.445ZM312.305 106.578V106.086C312.305 104.227 312.57 102.516 313.102 100.953C313.633 99.375 314.414 98.0078 315.445 96.8516C316.477 95.6953 317.75 94.7969 319.266 94.1562C320.781 93.5 322.531 93.1719 324.516 93.1719C326.516 93.1719 328.273 93.5 329.789 94.1562C331.32 94.7969 332.602 95.6953 333.633 96.8516C334.664 98.0078 335.445 99.375 335.977 100.953C336.508 102.516 336.773 104.227 336.773 106.086V106.578C336.773 108.422 336.508 110.133 335.977 111.711C335.445 113.273 334.664 114.641 333.633 115.812C332.602 116.969 331.328 117.867 329.812 118.508C328.297 119.148 326.547 119.469 324.562 119.469C322.578 119.469 320.82 119.148 319.289 118.508C317.758 117.867 316.477 116.969 315.445 115.812C314.414 114.641 313.633 113.273 313.102 111.711C312.57 110.133 312.305 108.422 312.305 106.578ZM320.203 106.086V106.578C320.203 107.531 320.273 108.422 320.414 109.25C320.555 110.078 320.789 110.805 321.117 111.43C321.445 112.039 321.891 112.516 322.453 112.859C323.016 113.203 323.719 113.375 324.562 113.375C325.391 113.375 326.078 113.203 326.625 112.859C327.188 112.516 327.633 112.039 327.961 111.43C328.289 110.805 328.523 110.078 328.664 109.25C328.805 108.422 328.875 107.531 328.875 106.578V106.086C328.875 105.164 328.805 104.297 328.664 103.484C328.523 102.656 328.289 101.93 327.961 101.305C327.633 100.664 327.188 100.164 326.625 99.8047C326.062 99.4453 325.359 99.2656 324.516 99.2656C323.688 99.2656 322.992 99.4453 322.43 99.8047C321.883 100.164 321.445 100.664 321.117 101.305C320.789 101.93 320.555 102.656 320.414 103.484C320.273 104.297 320.203 105.164 320.203 106.086ZM348.047 99.0547V119H340.148V93.6406H347.555L348.047 99.0547ZM347.109 105.453L345.258 105.5C345.258 103.562 345.492 101.836 345.961 100.32C346.43 98.7891 347.094 97.4922 347.953 96.4297C348.812 95.3672 349.836 94.5625 351.023 94.0156C352.227 93.4531 353.562 93.1719 355.031 93.1719C356.203 93.1719 357.273 93.3438 358.242 93.6875C359.227 94.0312 360.07 94.5859 360.773 95.3516C361.492 96.1172 362.039 97.1328 362.414 98.3984C362.805 99.6484 363 101.195 363 103.039V119H355.055V103.016C355.055 102 354.914 101.227 354.633 100.695C354.352 100.148 353.945 99.7734 353.414 99.5703C352.883 99.3672 352.234 99.2656 351.469 99.2656C350.656 99.2656 349.969 99.4219 349.406 99.7344C348.844 100.047 348.391 100.484 348.047 101.047C347.719 101.594 347.477 102.242 347.32 102.992C347.18 103.742 347.109 104.562 347.109 105.453ZM380.742 93.6406V99.125H365.461V93.6406H380.742ZM368.672 87.3359H376.57V110.727C376.57 111.398 376.648 111.922 376.805 112.297C376.961 112.656 377.227 112.914 377.602 113.07C377.992 113.211 378.508 113.281 379.148 113.281C379.602 113.281 379.977 113.273 380.273 113.258C380.57 113.227 380.852 113.188 381.117 113.141V118.789C380.445 119.008 379.742 119.172 379.008 119.281C378.273 119.406 377.492 119.469 376.664 119.469C374.977 119.469 373.531 119.203 372.328 118.672C371.141 118.141 370.234 117.305 369.609 116.164C368.984 115.023 368.672 113.539 368.672 111.711V87.3359ZM396.164 119.469C394.102 119.469 392.258 119.148 390.633 118.508C389.008 117.852 387.633 116.953 386.508 115.812C385.398 114.672 384.547 113.359 383.953 111.875C383.375 110.391 383.086 108.82 383.086 107.164V106.273C383.086 104.414 383.344 102.695 383.859 101.117C384.375 99.5234 385.141 98.1328 386.156 96.9453C387.172 95.7578 388.445 94.8359 389.977 94.1797C391.508 93.5078 393.289 93.1719 395.32 93.1719C397.117 93.1719 398.727 93.4609 400.148 94.0391C401.57 94.6172 402.773 95.4453 403.758 96.5234C404.758 97.6016 405.516 98.9062 406.031 100.438C406.562 101.969 406.828 103.688 406.828 105.594V108.805H386.109V103.859H399.117V103.25C399.133 102.406 398.984 101.688 398.672 101.094C398.375 100.5 397.938 100.047 397.359 99.7344C396.781 99.4219 396.078 99.2656 395.25 99.2656C394.391 99.2656 393.68 99.4531 393.117 99.8281C392.57 100.203 392.141 100.719 391.828 101.375C391.531 102.016 391.32 102.758 391.195 103.602C391.07 104.445 391.008 105.336 391.008 106.273V107.164C391.008 108.102 391.133 108.953 391.383 109.719C391.648 110.484 392.023 111.141 392.508 111.688C393.008 112.219 393.602 112.633 394.289 112.93C394.992 113.227 395.789 113.375 396.68 113.375C397.758 113.375 398.82 113.172 399.867 112.766C400.914 112.359 401.812 111.688 402.562 110.75L406.148 115.016C405.633 115.75 404.898 116.461 403.945 117.148C403.008 117.836 401.883 118.398 400.57 118.836C399.258 119.258 397.789 119.469 396.164 119.469ZM417.797 99.0547V119H409.898V93.6406H417.305L417.797 99.0547ZM416.859 105.453L415.008 105.5C415.008 103.562 415.242 101.836 415.711 100.32C416.18 98.7891 416.844 97.4922 417.703 96.4297C418.562 95.3672 419.586 94.5625 420.773 94.0156C421.977 93.4531 423.312 93.1719 424.781 93.1719C425.953 93.1719 427.023 93.3438 427.992 93.6875C428.977 94.0312 429.82 94.5859 430.523 95.3516C431.242 96.1172 431.789 97.1328 432.164 98.3984C432.555 99.6484 432.75 101.195 432.75 103.039V119H424.805V103.016C424.805 102 424.664 101.227 424.383 100.695C424.102 100.148 423.695 99.7734 423.164 99.5703C422.633 99.3672 421.984 99.2656 421.219 99.2656C420.406 99.2656 419.719 99.4219 419.156 99.7344C418.594 100.047 418.141 100.484 417.797 101.047C417.469 101.594 417.227 102.242 417.07 102.992C416.93 103.742 416.859 104.562 416.859 105.453ZM450.492 93.6406V99.125H435.211V93.6406H450.492ZM438.422 87.3359H446.32V110.727C446.32 111.398 446.398 111.922 446.555 112.297C446.711 112.656 446.977 112.914 447.352 113.07C447.742 113.211 448.258 113.281 448.898 113.281C449.352 113.281 449.727 113.273 450.023 113.258C450.32 113.227 450.602 113.188 450.867 113.141V118.789C450.195 119.008 449.492 119.172 448.758 119.281C448.023 119.406 447.242 119.469 446.414 119.469C444.727 119.469 443.281 119.203 442.078 118.672C440.891 118.141 439.984 117.305 439.359 116.164C438.734 115.023 438.422 113.539 438.422 111.711V87.3359ZM466.922 111.875C466.922 111.438 466.773 111.062 466.477 110.75C466.195 110.422 465.695 110.125 464.977 109.859C464.258 109.578 463.25 109.297 461.953 109.016C460.719 108.75 459.555 108.398 458.461 107.961C457.383 107.523 456.438 106.992 455.625 106.367C454.812 105.742 454.172 105 453.703 104.141C453.25 103.281 453.023 102.297 453.023 101.188C453.023 100.109 453.25 99.0938 453.703 98.1406C454.172 97.1719 454.852 96.3203 455.742 95.5859C456.648 94.8359 457.75 94.25 459.047 93.8281C460.344 93.3906 461.82 93.1719 463.477 93.1719C465.758 93.1719 467.727 93.5234 469.383 94.2266C471.039 94.9141 472.312 95.8828 473.203 97.1328C474.109 98.3672 474.562 99.7969 474.562 101.422H466.664C466.664 100.781 466.555 100.234 466.336 99.7812C466.133 99.3281 465.797 98.9844 465.328 98.75C464.859 98.5 464.234 98.375 463.453 98.375C462.906 98.375 462.406 98.4766 461.953 98.6797C461.516 98.8828 461.164 99.1641 460.898 99.5234C460.633 99.8828 460.5 100.305 460.5 100.789C460.5 101.133 460.578 101.445 460.734 101.727C460.906 101.992 461.164 102.242 461.508 102.477C461.852 102.695 462.289 102.898 462.82 103.086C463.352 103.258 463.992 103.414 464.742 103.555C466.445 103.867 468.039 104.312 469.523 104.891C471.008 105.469 472.211 106.289 473.133 107.352C474.07 108.414 474.539 109.844 474.539 111.641C474.539 112.766 474.281 113.805 473.766 114.758C473.25 115.695 472.508 116.523 471.539 117.242C470.57 117.945 469.406 118.492 468.047 118.883C466.688 119.273 465.156 119.469 463.453 119.469C461.031 119.469 458.984 119.039 457.312 118.18C455.641 117.305 454.375 116.211 453.516 114.898C452.672 113.57 452.25 112.227 452.25 110.867H459.609C459.641 111.648 459.828 112.289 460.172 112.789C460.531 113.289 461.008 113.656 461.602 113.891C462.195 114.125 462.883 114.242 463.664 114.242C464.383 114.242 464.977 114.141 465.445 113.938C465.93 113.734 466.297 113.461 466.547 113.117C466.797 112.758 466.922 112.344 466.922 111.875Z" fill="black"/>
<path d="M1134 0H1348C1356.28 0 1363 6.71573 1363 15V148C1363 156.284 1356.28 163 1348 163H1134V0Z" fill="#C9001C"/>
<path d="M1236.78 85.1364C1241.25 85.1364 1244.86 88.7543 1244.86 93.2172V113.419C1244.86 117.882 1241.25 121.5 1236.78 121.5H1216.58C1212.12 121.5 1208.5 117.882 1208.5 113.419V93.2172C1208.5 88.7543 1212.12 85.1364 1216.58 85.1364H1236.78ZM1280.42 85.1364C1284.88 85.1364 1288.5 88.7543 1288.5 93.2172V113.419C1288.5 117.882 1284.88 121.5 1280.42 121.5H1260.22C1255.75 121.5 1252.14 117.882 1252.14 113.419V93.2172C1252.14 88.7543 1255.75 85.1364 1260.22 85.1364H1280.42ZM1236.78 41.5C1241.25 41.5 1244.86 45.1179 1244.86 49.5808V69.7828C1244.86 74.2457 1241.25 77.8636 1236.78 77.8636H1216.58C1212.12 77.8636 1208.5 74.2457 1208.5 69.7828V49.5808C1208.5 45.1179 1212.12 41.5 1216.58 41.5H1236.78ZM1280.42 41.5C1284.88 41.5 1288.5 45.1179 1288.5 49.5808V69.7828C1288.5 74.2457 1284.88 77.8636 1280.42 77.8636H1260.22C1255.75 77.8636 1252.14 74.2457 1252.14 69.7828V49.5808C1252.14 45.1179 1255.75 41.5 1260.22 41.5H1280.42Z" fill="white"/>
</svg>
