<svg width="1363" height="299" viewBox="0 0 1363 299" fill="none" xmlns="http://www.w3.org/2000/svg">
<path d="M0 15C0 6.71572 6.71573 0 15 0H37V299H15C6.71573 299 0 292.284 0 284V15Z" fill="#C9001C"/>
<path d="M37 0H1066V299H37V0Z" fill="#F0F0F0"/>
<path d="M112.354 59.8301V63.9434H98.9941V59.8301H112.354ZM100.559 49.4062V75H95.2852V49.4062H100.559ZM116.115 49.4062V75H110.859V49.4062H116.115ZM131.637 70.4473V55.9805H136.699V75H131.936L131.637 70.4473ZM132.199 66.5449L133.693 66.5098C133.693 67.7754 133.547 68.9531 133.254 70.043C132.961 71.1211 132.521 72.0586 131.936 72.8555C131.35 73.6406 130.611 74.2559 129.721 74.7012C128.83 75.1348 127.781 75.3516 126.574 75.3516C125.648 75.3516 124.793 75.2227 124.008 74.9648C123.234 74.6953 122.566 74.2793 122.004 73.7168C121.453 73.1426 121.02 72.4102 120.703 71.5195C120.398 70.6172 120.246 69.5332 120.246 68.2676V55.9805H125.309V68.3027C125.309 68.8652 125.373 69.3398 125.502 69.7266C125.643 70.1133 125.836 70.4297 126.082 70.6758C126.328 70.9219 126.615 71.0977 126.943 71.2031C127.283 71.3086 127.658 71.3613 128.068 71.3613C129.111 71.3613 129.932 71.1504 130.529 70.7285C131.139 70.3066 131.566 69.7324 131.812 69.0059C132.07 68.2676 132.199 67.4473 132.199 66.5449ZM150.85 69.7441C150.85 69.3809 150.744 69.0527 150.533 68.7598C150.322 68.4668 149.93 68.1973 149.355 67.9512C148.793 67.6934 147.979 67.459 146.912 67.248C145.951 67.0371 145.055 66.7734 144.223 66.457C143.402 66.1289 142.688 65.7363 142.078 65.2793C141.48 64.8223 141.012 64.2832 140.672 63.6621C140.332 63.0293 140.162 62.3086 140.162 61.5C140.162 60.7031 140.332 59.9531 140.672 59.25C141.023 58.5469 141.521 57.9258 142.166 57.3867C142.822 56.8359 143.619 56.4082 144.557 56.1035C145.506 55.7871 146.572 55.6289 147.756 55.6289C149.408 55.6289 150.826 55.8926 152.01 56.4199C153.205 56.9473 154.119 57.6738 154.752 58.5996C155.396 59.5137 155.719 60.5566 155.719 61.7285H150.656C150.656 61.2363 150.551 60.7969 150.34 60.4102C150.141 60.0117 149.824 59.7012 149.391 59.4785C148.969 59.2441 148.418 59.127 147.738 59.127C147.176 59.127 146.689 59.2266 146.279 59.4258C145.869 59.6133 145.553 59.8711 145.33 60.1992C145.119 60.5156 145.014 60.8672 145.014 61.2539C145.014 61.5469 145.072 61.8105 145.189 62.0449C145.318 62.2676 145.523 62.4727 145.805 62.6602C146.086 62.8477 146.449 63.0234 146.895 63.1875C147.352 63.3398 147.914 63.4805 148.582 63.6094C149.953 63.8906 151.178 64.2598 152.256 64.7168C153.334 65.1621 154.189 65.7715 154.822 66.5449C155.455 67.3066 155.771 68.3086 155.771 69.5508C155.771 70.3945 155.584 71.168 155.209 71.8711C154.834 72.5742 154.295 73.1895 153.592 73.7168C152.889 74.2324 152.045 74.6367 151.061 74.9297C150.088 75.2109 148.992 75.3516 147.773 75.3516C146.004 75.3516 144.504 75.0352 143.273 74.4023C142.055 73.7695 141.129 72.9668 140.496 71.9941C139.875 71.0098 139.564 70.002 139.564 68.9707H144.363C144.387 69.6621 144.562 70.2188 144.891 70.6406C145.23 71.0625 145.658 71.3672 146.174 71.5547C146.701 71.7422 147.27 71.8359 147.879 71.8359C148.535 71.8359 149.08 71.748 149.514 71.5723C149.947 71.3848 150.275 71.1387 150.498 70.834C150.732 70.5176 150.85 70.1543 150.85 69.7441ZM169.324 70.7109V62.2383C169.324 61.6289 169.225 61.1074 169.025 60.6738C168.826 60.2285 168.516 59.8828 168.094 59.6367C167.684 59.3906 167.15 59.2676 166.494 59.2676C165.932 59.2676 165.445 59.3672 165.035 59.5664C164.625 59.7539 164.309 60.0293 164.086 60.3926C163.863 60.7441 163.752 61.1602 163.752 61.6406H158.689C158.689 60.832 158.877 60.0645 159.252 59.3379C159.627 58.6113 160.172 57.9727 160.887 57.4219C161.602 56.8594 162.451 56.4199 163.436 56.1035C164.432 55.7871 165.545 55.6289 166.775 55.6289C168.252 55.6289 169.564 55.875 170.713 56.3672C171.861 56.8594 172.764 57.5977 173.42 58.582C174.088 59.5664 174.422 60.7969 174.422 62.2734V70.4121C174.422 71.4551 174.486 72.3105 174.615 72.9785C174.744 73.6348 174.932 74.209 175.178 74.7012V75H170.062C169.816 74.4844 169.629 73.8398 169.5 73.0664C169.383 72.2812 169.324 71.4961 169.324 70.7109ZM169.992 63.416L170.027 66.2812H167.197C166.529 66.2812 165.949 66.3574 165.457 66.5098C164.965 66.6621 164.561 66.8789 164.244 67.1602C163.928 67.4297 163.693 67.7461 163.541 68.1094C163.4 68.4727 163.33 68.8711 163.33 69.3047C163.33 69.7383 163.43 70.1309 163.629 70.4824C163.828 70.8223 164.115 71.0918 164.49 71.291C164.865 71.4785 165.305 71.5723 165.809 71.5723C166.57 71.5723 167.232 71.4199 167.795 71.1152C168.357 70.8105 168.791 70.4355 169.096 69.9902C169.412 69.5449 169.576 69.123 169.588 68.7246L170.924 70.8691C170.736 71.3496 170.479 71.8477 170.15 72.3633C169.834 72.8789 169.43 73.3652 168.938 73.8223C168.445 74.2676 167.854 74.6367 167.162 74.9297C166.471 75.2109 165.65 75.3516 164.701 75.3516C163.494 75.3516 162.398 75.1113 161.414 74.6309C160.441 74.1387 159.668 73.4648 159.094 72.6094C158.531 71.7422 158.25 70.7578 158.25 69.6562C158.25 68.6602 158.438 67.7754 158.812 67.002C159.188 66.2285 159.738 65.5781 160.465 65.0508C161.203 64.5117 162.123 64.1074 163.225 63.8379C164.326 63.5566 165.604 63.416 167.057 63.416H169.992ZM183.668 55.9805V75H178.588V55.9805H183.668ZM178.271 51.0234C178.271 50.2852 178.529 49.6758 179.045 49.1953C179.561 48.7148 180.252 48.4746 181.119 48.4746C181.975 48.4746 182.66 48.7148 183.176 49.1953C183.703 49.6758 183.967 50.2852 183.967 51.0234C183.967 51.7617 183.703 52.3711 183.176 52.8516C182.66 53.332 181.975 53.5723 181.119 53.5723C180.252 53.5723 179.561 53.332 179.045 52.8516C178.529 52.3711 178.271 51.7617 178.271 51.0234ZM192.809 60.041V75H187.746V55.9805H192.492L192.809 60.041ZM192.07 64.8223H190.699C190.699 63.416 190.881 62.1504 191.244 61.0254C191.607 59.8887 192.117 58.9219 192.773 58.125C193.43 57.3164 194.209 56.7012 195.111 56.2793C196.025 55.8457 197.045 55.6289 198.17 55.6289C199.061 55.6289 199.875 55.7578 200.613 56.0156C201.352 56.2734 201.984 56.6836 202.512 57.2461C203.051 57.8086 203.461 58.5527 203.742 59.4785C204.035 60.4043 204.182 61.5352 204.182 62.8711V75H199.084V62.8535C199.084 62.0098 198.967 61.3535 198.732 60.8848C198.498 60.416 198.152 60.0879 197.695 59.9004C197.25 59.7012 196.699 59.6016 196.043 59.6016C195.363 59.6016 194.771 59.7363 194.268 60.0059C193.775 60.2754 193.365 60.6504 193.037 61.1309C192.721 61.5996 192.48 62.1504 192.316 62.7832C192.152 63.416 192.07 64.0957 192.07 64.8223ZM235.822 70.8867V75H217.682V70.8867H235.822ZM235.559 52.3418L220.02 75H216.311V71.9766L231.973 49.4062H235.559V52.3418ZM233.748 49.4062V53.5371H216.328V49.4062H233.748ZM243.926 60.1289V75H238.863V55.9805H243.627L243.926 60.1289ZM249.656 55.8574L249.568 60.5508C249.322 60.5156 249.023 60.4863 248.672 60.4629C248.332 60.4277 248.021 60.4102 247.74 60.4102C247.025 60.4102 246.404 60.5039 245.877 60.6914C245.361 60.8672 244.928 61.1309 244.576 61.4824C244.236 61.834 243.979 62.2617 243.803 62.7656C243.639 63.2695 243.545 63.8438 243.521 64.4883L242.502 64.1719C242.502 62.9414 242.625 61.8105 242.871 60.7793C243.117 59.7363 243.475 58.8281 243.943 58.0547C244.424 57.2812 245.01 56.6836 245.701 56.2617C246.393 55.8398 247.184 55.6289 248.074 55.6289C248.355 55.6289 248.643 55.6523 248.936 55.6992C249.229 55.7344 249.469 55.7871 249.656 55.8574ZM260.449 75.3516C258.973 75.3516 257.648 75.1172 256.477 74.6484C255.305 74.168 254.309 73.5059 253.488 72.6621C252.68 71.8184 252.059 70.8398 251.625 69.7266C251.191 68.6016 250.975 67.4062 250.975 66.1406V65.4375C250.975 63.9961 251.18 62.6777 251.59 61.4824C252 60.2871 252.586 59.25 253.348 58.3711C254.121 57.4922 255.059 56.8184 256.16 56.3496C257.262 55.8691 258.504 55.6289 259.887 55.6289C261.234 55.6289 262.43 55.8516 263.473 56.2969C264.516 56.7422 265.389 57.375 266.092 58.1953C266.807 59.0156 267.346 60 267.709 61.1484C268.072 62.2852 268.254 63.5508 268.254 64.9453V67.0547H253.137V63.6797H263.279V63.293C263.279 62.5898 263.15 61.9629 262.893 61.4121C262.646 60.8496 262.271 60.4043 261.768 60.0762C261.264 59.748 260.619 59.584 259.834 59.584C259.166 59.584 258.592 59.7305 258.111 60.0234C257.631 60.3164 257.238 60.7266 256.934 61.2539C256.641 61.7812 256.418 62.4023 256.266 63.1172C256.125 63.8203 256.055 64.5938 256.055 65.4375V66.1406C256.055 66.9023 256.16 67.6055 256.371 68.25C256.594 68.8945 256.904 69.4512 257.303 69.9199C257.713 70.3887 258.205 70.752 258.779 71.0098C259.365 71.2676 260.027 71.3965 260.766 71.3965C261.68 71.3965 262.529 71.2207 263.314 70.8691C264.111 70.5059 264.797 69.9609 265.371 69.2344L267.832 71.9062C267.434 72.4805 266.889 73.0312 266.197 73.5586C265.518 74.0859 264.697 74.5195 263.736 74.8594C262.775 75.1875 261.68 75.3516 260.449 75.3516ZM276.48 55.9805V75H271.4V55.9805H276.48ZM271.084 51.0234C271.084 50.2852 271.342 49.6758 271.857 49.1953C272.373 48.7148 273.064 48.4746 273.932 48.4746C274.787 48.4746 275.473 48.7148 275.988 49.1953C276.516 49.6758 276.779 50.2852 276.779 51.0234C276.779 51.7617 276.516 52.3711 275.988 52.8516C275.473 53.332 274.787 53.5723 273.932 53.5723C273.064 53.5723 272.373 53.332 271.857 52.8516C271.342 52.3711 271.084 51.7617 271.084 51.0234ZM285.727 47.9824V75H280.664V47.9824H285.727ZM297.715 55.9805L289.453 65.4023L285.023 69.8848L283.178 66.2285L286.693 61.7637L291.633 55.9805H297.715ZM292.459 75L286.834 66.2109L290.332 63.1523L298.295 75H292.459Z" fill="#888888"/>
<path d="M95.625 142V101.273H124.261V110.182H106.682V117.182H122.511V126.091H106.682V142H95.625ZM133.822 142H121.89L135.333 101.273H150.447L163.89 142H151.958L143.049 112.489H142.731L133.822 142ZM131.594 125.932H154.026V134.205H131.594V125.932ZM161.558 110.182V101.273H196.956V110.182H184.706V142H173.808V110.182H161.558ZM206.556 142H194.624L208.067 101.273H223.181L236.624 142H224.692L215.783 112.489H215.465L206.556 142ZM204.329 125.932H226.761V134.205H204.329V125.932ZM240.547 142V101.273H251.604V133.091H268.07V142H240.547Z" fill="#303030"/>
<path d="M286.002 142V101.273H300.241C303.078 101.273 305.418 101.763 307.261 102.744C309.103 103.712 310.476 105.018 311.377 106.662C312.279 108.293 312.729 110.102 312.729 112.091C312.729 113.841 312.418 115.286 311.795 116.426C311.185 117.566 310.376 118.468 309.369 119.131C308.374 119.794 307.294 120.284 306.127 120.602V121C307.373 121.08 308.626 121.517 309.886 122.312C311.145 123.108 312.199 124.248 313.048 125.733C313.896 127.218 314.32 129.034 314.32 131.182C314.32 133.223 313.856 135.06 312.928 136.69C312 138.321 310.535 139.614 308.533 140.568C306.531 141.523 303.926 142 300.718 142H286.002ZM290.934 137.625H300.718C303.94 137.625 306.227 137.002 307.579 135.756C308.944 134.496 309.627 132.972 309.627 131.182C309.627 129.803 309.276 128.53 308.573 127.364C307.871 126.184 306.87 125.242 305.57 124.54C304.271 123.824 302.733 123.466 300.957 123.466H290.934V137.625ZM290.934 119.17H300.082C301.567 119.17 302.906 118.879 304.099 118.295C305.305 117.712 306.26 116.89 306.962 115.83C307.678 114.769 308.036 113.523 308.036 112.091C308.036 110.301 307.413 108.783 306.167 107.537C304.921 106.277 302.945 105.648 300.241 105.648H290.934V119.17ZM322.424 142V101.273H336.185C339.367 101.273 341.979 101.816 344.021 102.903C346.062 103.977 347.574 105.455 348.555 107.338C349.536 109.221 350.026 111.362 350.026 113.761C350.026 116.161 349.536 118.289 348.555 120.145C347.574 122.001 346.069 123.459 344.04 124.52C342.012 125.567 339.42 126.091 336.265 126.091H325.129V121.636H336.106C338.28 121.636 340.03 121.318 341.356 120.682C342.695 120.045 343.663 119.144 344.259 117.977C344.869 116.797 345.174 115.392 345.174 113.761C345.174 112.131 344.869 110.705 344.259 109.486C343.649 108.266 342.675 107.325 341.336 106.662C339.997 105.986 338.227 105.648 336.026 105.648H327.356V142H322.424ZM341.594 123.705L351.617 142H345.89L336.026 123.705H341.594ZM358.244 142V101.273H382.824V105.648H363.176V119.409H381.551V123.784H363.176V137.625H383.142V142H358.244ZM393.384 142H388.213L403.168 101.273H408.259L423.213 142H418.043L405.872 107.716H405.554L393.384 142ZM395.293 126.091H416.134V130.466H395.293V126.091ZM422.572 105.648V101.273H453.117V105.648H440.31V142H435.379V105.648H422.572ZM460.729 142V101.273H465.661V119.409H487.376V101.273H492.308V142H487.376V123.784H465.661V142H460.729Z" fill="#626262"/>
<rect x="93" y="180" width="917" height="77" rx="10" fill="#D3D3D3"/>
<rect x="111" y="198" width="98" height="41" rx="3" fill="#424242"/>
<path d="M137.078 212.203V225H133.993V212.203H137.078ZM142.053 217.529V219.902H136.199V217.529H142.053ZM142.554 212.203V214.585H136.199V212.203H142.554ZM146.825 211.5V225H143.854V211.5H146.825ZM154.208 222.688V215.49H157.179V225H154.401L154.208 222.688ZM154.489 220.755L155.263 220.737C155.263 221.376 155.187 221.968 155.034 222.513C154.882 223.052 154.656 223.521 154.357 223.919C154.064 224.317 153.701 224.628 153.268 224.851C152.84 225.067 152.345 225.176 151.782 225.176C151.313 225.176 150.883 225.111 150.49 224.982C150.104 224.848 149.77 224.64 149.488 224.358C149.207 224.071 148.987 223.705 148.829 223.26C148.677 222.809 148.601 222.27 148.601 221.643V215.49H151.562V221.66C151.562 221.871 151.589 222.053 151.642 222.205C151.694 222.357 151.771 222.486 151.87 222.592C151.97 222.691 152.093 222.768 152.239 222.82C152.392 222.867 152.564 222.891 152.758 222.891C153.203 222.891 153.552 222.797 153.804 222.609C154.056 222.422 154.231 222.167 154.331 221.845C154.437 221.522 154.489 221.159 154.489 220.755ZM163.823 215.49V217.547H158.093V215.49H163.823ZM159.297 213.126H162.259V221.897C162.259 222.149 162.288 222.346 162.347 222.486C162.405 222.621 162.505 222.718 162.646 222.776C162.792 222.829 162.985 222.855 163.226 222.855C163.396 222.855 163.536 222.853 163.647 222.847C163.759 222.835 163.864 222.82 163.964 222.803V224.921C163.712 225.003 163.448 225.064 163.173 225.105C162.897 225.152 162.604 225.176 162.294 225.176C161.661 225.176 161.119 225.076 160.668 224.877C160.223 224.678 159.883 224.364 159.648 223.937C159.414 223.509 159.297 222.952 159.297 222.267V213.126ZM170.011 215.49V217.547H164.28V215.49H170.011ZM165.484 213.126H168.446V221.897C168.446 222.149 168.476 222.346 168.534 222.486C168.593 222.621 168.692 222.718 168.833 222.776C168.979 222.829 169.173 222.855 169.413 222.855C169.583 222.855 169.724 222.853 169.835 222.847C169.946 222.835 170.052 222.82 170.151 222.803V224.921C169.899 225.003 169.636 225.064 169.36 225.105C169.085 225.152 168.792 225.176 168.481 225.176C167.849 225.176 167.307 225.076 166.855 224.877C166.41 224.678 166.07 224.364 165.836 223.937C165.602 223.509 165.484 222.952 165.484 222.267V213.126ZM175.794 225.176C175.021 225.176 174.329 225.056 173.72 224.815C173.11 224.569 172.595 224.232 172.173 223.805C171.757 223.377 171.438 222.885 171.215 222.328C170.998 221.771 170.89 221.183 170.89 220.562V220.228C170.89 219.53 170.986 218.886 171.18 218.294C171.373 217.696 171.66 217.175 172.041 216.729C172.422 216.284 172.899 215.938 173.474 215.692C174.048 215.44 174.716 215.314 175.478 215.314C176.151 215.314 176.755 215.423 177.288 215.64C177.821 215.856 178.272 216.167 178.642 216.571C179.017 216.976 179.301 217.465 179.494 218.039C179.693 218.613 179.793 219.258 179.793 219.973V221.177H172.023V219.322H176.901V219.094C176.907 218.777 176.852 218.508 176.734 218.285C176.623 218.062 176.459 217.893 176.242 217.775C176.025 217.658 175.762 217.6 175.451 217.6C175.129 217.6 174.862 217.67 174.651 217.811C174.446 217.951 174.285 218.145 174.168 218.391C174.057 218.631 173.978 218.909 173.931 219.226C173.884 219.542 173.86 219.876 173.86 220.228V220.562C173.86 220.913 173.907 221.232 174.001 221.52C174.101 221.807 174.241 222.053 174.423 222.258C174.61 222.457 174.833 222.612 175.091 222.724C175.354 222.835 175.653 222.891 175.987 222.891C176.392 222.891 176.79 222.814 177.183 222.662C177.575 222.51 177.912 222.258 178.193 221.906L179.538 223.506C179.345 223.781 179.069 224.048 178.712 224.306C178.36 224.563 177.938 224.774 177.446 224.938C176.954 225.097 176.403 225.176 175.794 225.176ZM183.985 217.846V225H181.023V215.49H183.792L183.985 217.846ZM186.798 215.42L186.745 218.171C186.628 218.159 186.47 218.145 186.271 218.127C186.071 218.109 185.904 218.101 185.77 218.101C185.424 218.101 185.125 218.142 184.873 218.224C184.627 218.3 184.422 218.417 184.258 218.575C184.1 218.728 183.982 218.921 183.906 219.155C183.836 219.39 183.804 219.662 183.81 219.973L183.273 219.621C183.273 218.982 183.335 218.402 183.458 217.881C183.587 217.354 183.769 216.899 184.003 216.519C184.237 216.132 184.521 215.836 184.855 215.631C185.189 215.42 185.564 215.314 185.98 215.314C186.127 215.314 186.271 215.323 186.411 215.341C186.558 215.358 186.687 215.385 186.798 215.42Z" fill="white"/>
<rect x="111" y="198" width="98" height="41" rx="3" stroke="#424242" stroke-width="4"/>
<rect x="229" y="198" width="104" height="41" rx="3" fill="#424242"/>
<path d="M260.812 222.627V225H254.343V222.627H260.812ZM255.441 212.203V225H252.356V212.203H255.441ZM266.911 222.609V218.689C266.911 218.42 266.873 218.188 266.797 217.995C266.721 217.802 266.601 217.652 266.437 217.547C266.272 217.436 266.053 217.38 265.777 217.38C265.555 217.38 265.364 217.418 265.206 217.494C265.048 217.57 264.928 217.685 264.846 217.837C264.764 217.989 264.723 218.183 264.723 218.417H261.761C261.761 217.978 261.857 217.57 262.051 217.195C262.25 216.814 262.531 216.483 262.895 216.202C263.264 215.921 263.703 215.704 264.213 215.552C264.729 215.394 265.303 215.314 265.936 215.314C266.691 215.314 267.365 215.44 267.957 215.692C268.555 215.944 269.026 216.322 269.372 216.826C269.718 217.324 269.891 217.951 269.891 218.707V222.601C269.891 223.222 269.926 223.693 269.996 224.016C270.066 224.332 270.166 224.61 270.295 224.851V225H267.324C267.184 224.707 267.078 224.35 267.008 223.928C266.943 223.5 266.911 223.061 266.911 222.609ZM267.271 219.19L267.289 220.772H265.979C265.704 220.772 265.47 220.811 265.276 220.887C265.089 220.963 264.937 221.068 264.819 221.203C264.708 221.332 264.626 221.479 264.573 221.643C264.526 221.807 264.503 221.979 264.503 222.161C264.503 222.337 264.544 222.495 264.626 222.636C264.714 222.771 264.831 222.876 264.978 222.952C265.124 223.028 265.288 223.066 265.47 223.066C265.798 223.066 266.076 223.005 266.305 222.882C266.539 222.753 266.718 222.598 266.841 222.416C266.964 222.234 267.025 222.064 267.025 221.906L267.676 223.119C267.559 223.354 267.424 223.591 267.271 223.831C267.125 224.071 266.94 224.294 266.718 224.499C266.501 224.698 266.234 224.862 265.918 224.991C265.602 225.114 265.218 225.176 264.767 225.176C264.181 225.176 263.642 225.056 263.149 224.815C262.663 224.575 262.273 224.241 261.98 223.813C261.688 223.38 261.541 222.882 261.541 222.319C261.541 221.827 261.629 221.388 261.805 221.001C261.986 220.614 262.259 220.286 262.622 220.017C262.985 219.747 263.448 219.542 264.011 219.401C264.573 219.261 265.235 219.19 265.997 219.19H267.271ZM274.522 217.846V225H271.561V215.49H274.329L274.522 217.846ZM277.335 215.42L277.282 218.171C277.165 218.159 277.007 218.145 276.808 218.127C276.608 218.109 276.441 218.101 276.307 218.101C275.961 218.101 275.662 218.142 275.41 218.224C275.164 218.3 274.959 218.417 274.795 218.575C274.637 218.728 274.52 218.921 274.443 219.155C274.373 219.39 274.341 219.662 274.347 219.973L273.811 219.621C273.811 218.982 273.872 218.402 273.995 217.881C274.124 217.354 274.306 216.899 274.54 216.519C274.774 216.132 275.059 215.836 275.393 215.631C275.727 215.42 276.102 215.314 276.518 215.314C276.664 215.314 276.808 215.323 276.948 215.341C277.095 215.358 277.224 215.385 277.335 215.42ZM283.03 222.609V218.689C283.03 218.42 282.992 218.188 282.916 217.995C282.84 217.802 282.72 217.652 282.556 217.547C282.392 217.436 282.172 217.38 281.896 217.38C281.674 217.38 281.483 217.418 281.325 217.494C281.167 217.57 281.047 217.685 280.965 217.837C280.883 217.989 280.842 218.183 280.842 218.417H277.88C277.88 217.978 277.977 217.57 278.17 217.195C278.369 216.814 278.65 216.483 279.014 216.202C279.383 215.921 279.822 215.704 280.332 215.552C280.848 215.394 281.422 215.314 282.055 215.314C282.811 215.314 283.484 215.44 284.076 215.692C284.674 215.944 285.146 216.322 285.491 216.826C285.837 217.324 286.01 217.951 286.01 218.707V222.601C286.01 223.222 286.045 223.693 286.115 224.016C286.186 224.332 286.285 224.61 286.414 224.851V225H283.443C283.303 224.707 283.197 224.35 283.127 223.928C283.062 223.5 283.03 223.061 283.03 222.609ZM283.391 219.19L283.408 220.772H282.099C281.823 220.772 281.589 220.811 281.396 220.887C281.208 220.963 281.056 221.068 280.938 221.203C280.827 221.332 280.745 221.479 280.692 221.643C280.646 221.807 280.622 221.979 280.622 222.161C280.622 222.337 280.663 222.495 280.745 222.636C280.833 222.771 280.95 222.876 281.097 222.952C281.243 223.028 281.407 223.066 281.589 223.066C281.917 223.066 282.195 223.005 282.424 222.882C282.658 222.753 282.837 222.598 282.96 222.416C283.083 222.234 283.145 222.064 283.145 221.906L283.795 223.119C283.678 223.354 283.543 223.591 283.391 223.831C283.244 224.071 283.06 224.294 282.837 224.499C282.62 224.698 282.354 224.862 282.037 224.991C281.721 225.114 281.337 225.176 280.886 225.176C280.3 225.176 279.761 225.056 279.269 224.815C278.782 224.575 278.393 224.241 278.1 223.813C277.807 223.38 277.66 222.882 277.66 222.319C277.66 221.827 277.748 221.388 277.924 221.001C278.105 220.614 278.378 220.286 278.741 220.017C279.104 219.747 279.567 219.542 280.13 219.401C280.692 219.261 281.354 219.19 282.116 219.19H283.391ZM290.94 222.97L292.812 215.49H295.933L292.821 225H290.976L290.94 222.97ZM289.833 215.49L291.679 222.97L291.661 225H289.807L286.704 215.49H289.833ZM301.294 225.176C300.521 225.176 299.829 225.056 299.22 224.815C298.61 224.569 298.095 224.232 297.673 223.805C297.257 223.377 296.938 222.885 296.715 222.328C296.498 221.771 296.39 221.183 296.39 220.562V220.228C296.39 219.53 296.486 218.886 296.68 218.294C296.873 217.696 297.16 217.175 297.541 216.729C297.922 216.284 298.399 215.938 298.974 215.692C299.548 215.44 300.216 215.314 300.978 215.314C301.651 215.314 302.255 215.423 302.788 215.64C303.321 215.856 303.772 216.167 304.142 216.571C304.517 216.976 304.801 217.465 304.994 218.039C305.193 218.613 305.293 219.258 305.293 219.973V221.177H297.523V219.322H302.401V219.094C302.407 218.777 302.352 218.508 302.234 218.285C302.123 218.062 301.959 217.893 301.742 217.775C301.525 217.658 301.262 217.6 300.951 217.6C300.629 217.6 300.362 217.67 300.151 217.811C299.946 217.951 299.785 218.145 299.668 218.391C299.557 218.631 299.478 218.909 299.431 219.226C299.384 219.542 299.36 219.876 299.36 220.228V220.562C299.36 220.913 299.407 221.232 299.501 221.52C299.601 221.807 299.741 222.053 299.923 222.258C300.11 222.457 300.333 222.612 300.591 222.724C300.854 222.835 301.153 222.891 301.487 222.891C301.892 222.891 302.29 222.814 302.683 222.662C303.075 222.51 303.412 222.258 303.693 221.906L305.038 223.506C304.845 223.781 304.569 224.048 304.212 224.306C303.86 224.563 303.438 224.774 302.946 224.938C302.454 225.097 301.903 225.176 301.294 225.176ZM309.626 211.5V225H306.655V211.5H309.626Z" fill="white"/>
<rect x="229" y="198" width="104" height="41" rx="3" stroke="#424242" stroke-width="4"/>
<rect x="353" y="198" width="109" height="41" rx="3" fill="#424242"/>
<path d="M381.678 214.893L378.558 225H375.244L379.946 212.203H382.047L381.678 214.893ZM384.262 225L381.133 214.893L380.729 212.203H382.855L387.584 225H384.262ZM384.139 220.228V222.609H377.573V220.228H384.139ZM391.372 217.846V225H388.41V215.49H391.179L391.372 217.846ZM394.185 215.42L394.132 218.171C394.015 218.159 393.856 218.145 393.657 218.127C393.458 218.109 393.291 218.101 393.156 218.101C392.811 218.101 392.512 218.142 392.26 218.224C392.014 218.3 391.809 218.417 391.645 218.575C391.486 218.728 391.369 218.921 391.293 219.155C391.223 219.39 391.19 219.662 391.196 219.973L390.66 219.621C390.66 218.982 390.722 218.402 390.845 217.881C390.974 217.354 391.155 216.899 391.39 216.519C391.624 216.132 391.908 215.836 392.242 215.631C392.576 215.42 392.951 215.314 393.367 215.314C393.514 215.314 393.657 215.323 393.798 215.341C393.944 215.358 394.073 215.385 394.185 215.42ZM400.495 222.82V211.5H403.475V225H400.803L400.495 222.82ZM394.659 220.359V220.175C394.659 219.454 394.738 218.798 394.896 218.206C395.055 217.608 395.289 217.096 395.6 216.668C395.91 216.234 396.297 215.9 396.76 215.666C397.223 215.432 397.756 215.314 398.359 215.314C398.898 215.314 399.37 215.44 399.774 215.692C400.179 215.938 400.524 216.284 400.812 216.729C401.099 217.175 401.333 217.696 401.515 218.294C401.696 218.886 401.834 219.524 401.928 220.21V220.43C401.834 221.074 401.696 221.684 401.515 222.258C401.333 222.826 401.099 223.33 400.812 223.77C400.524 224.209 400.176 224.555 399.766 224.807C399.361 225.053 398.887 225.176 398.342 225.176C397.738 225.176 397.205 225.056 396.742 224.815C396.285 224.575 395.901 224.238 395.591 223.805C395.286 223.371 395.055 222.861 394.896 222.275C394.738 221.689 394.659 221.051 394.659 220.359ZM397.621 220.175V220.359C397.621 220.717 397.645 221.048 397.691 221.353C397.738 221.657 397.817 221.927 397.929 222.161C398.046 222.39 398.198 222.568 398.386 222.697C398.579 222.826 398.816 222.891 399.098 222.891C399.479 222.891 399.792 222.8 400.038 222.618C400.29 222.437 400.475 222.179 400.592 221.845C400.715 221.511 400.768 221.118 400.75 220.667V219.973C400.762 219.586 400.735 219.246 400.671 218.953C400.606 218.654 400.504 218.405 400.363 218.206C400.229 218.007 400.056 217.857 399.845 217.758C399.64 217.652 399.396 217.6 399.115 217.6C398.84 217.6 398.605 217.664 398.412 217.793C398.225 217.922 398.072 218.104 397.955 218.338C397.838 218.566 397.753 218.839 397.7 219.155C397.647 219.466 397.621 219.806 397.621 220.175ZM410.708 222.688V215.49H413.679V225H410.901L410.708 222.688ZM410.989 220.755L411.763 220.737C411.763 221.376 411.687 221.968 411.534 222.513C411.382 223.052 411.156 223.521 410.857 223.919C410.564 224.317 410.201 224.628 409.768 224.851C409.34 225.067 408.845 225.176 408.282 225.176C407.813 225.176 407.383 225.111 406.99 224.982C406.604 224.848 406.27 224.64 405.988 224.358C405.707 224.071 405.487 223.705 405.329 223.26C405.177 222.809 405.101 222.27 405.101 221.643V215.49H408.062V221.66C408.062 221.871 408.089 222.053 408.142 222.205C408.194 222.357 408.271 222.486 408.37 222.592C408.47 222.691 408.593 222.768 408.739 222.82C408.892 222.867 409.064 222.891 409.258 222.891C409.703 222.891 410.052 222.797 410.304 222.609C410.556 222.422 410.731 222.167 410.831 221.845C410.937 221.522 410.989 221.159 410.989 220.755ZM418.442 215.49V225H415.472V215.49H418.442ZM415.296 213.038C415.296 212.616 415.448 212.271 415.753 212.001C416.058 211.731 416.453 211.597 416.939 211.597C417.426 211.597 417.821 211.731 418.126 212.001C418.431 212.271 418.583 212.616 418.583 213.038C418.583 213.46 418.431 213.806 418.126 214.075C417.821 214.345 417.426 214.479 416.939 214.479C416.453 214.479 416.058 214.345 415.753 214.075C415.448 213.806 415.296 213.46 415.296 213.038ZM423.18 217.521V225H420.218V215.49H422.995L423.18 217.521ZM422.828 219.92L422.134 219.938C422.134 219.211 422.222 218.563 422.397 217.995C422.573 217.421 422.822 216.935 423.145 216.536C423.467 216.138 423.851 215.836 424.296 215.631C424.747 215.42 425.248 215.314 425.799 215.314C426.238 215.314 426.64 215.379 427.003 215.508C427.372 215.637 427.688 215.845 427.952 216.132C428.222 216.419 428.427 216.8 428.567 217.274C428.714 217.743 428.787 218.323 428.787 219.015V225H425.808V219.006C425.808 218.625 425.755 218.335 425.649 218.136C425.544 217.931 425.392 217.79 425.192 217.714C424.993 217.638 424.75 217.6 424.463 217.6C424.158 217.6 423.9 217.658 423.689 217.775C423.479 217.893 423.309 218.057 423.18 218.268C423.057 218.473 422.966 218.716 422.907 218.997C422.854 219.278 422.828 219.586 422.828 219.92ZM430.062 220.342V220.157C430.062 219.46 430.161 218.818 430.36 218.232C430.56 217.641 430.853 217.128 431.239 216.694C431.626 216.261 432.104 215.924 432.672 215.684C433.24 215.438 433.896 215.314 434.641 215.314C435.391 215.314 436.05 215.438 436.618 215.684C437.192 215.924 437.673 216.261 438.06 216.694C438.446 217.128 438.739 217.641 438.938 218.232C439.138 218.818 439.237 219.46 439.237 220.157V220.342C439.237 221.033 439.138 221.675 438.938 222.267C438.739 222.853 438.446 223.365 438.06 223.805C437.673 224.238 437.195 224.575 436.627 224.815C436.059 225.056 435.402 225.176 434.658 225.176C433.914 225.176 433.255 225.056 432.681 224.815C432.106 224.575 431.626 224.238 431.239 223.805C430.853 223.365 430.56 222.853 430.36 222.267C430.161 221.675 430.062 221.033 430.062 220.342ZM433.023 220.157V220.342C433.023 220.699 433.05 221.033 433.103 221.344C433.155 221.654 433.243 221.927 433.366 222.161C433.489 222.39 433.656 222.568 433.867 222.697C434.078 222.826 434.342 222.891 434.658 222.891C434.969 222.891 435.227 222.826 435.432 222.697C435.643 222.568 435.81 222.39 435.933 222.161C436.056 221.927 436.144 221.654 436.196 221.344C436.249 221.033 436.275 220.699 436.275 220.342V220.157C436.275 219.812 436.249 219.486 436.196 219.182C436.144 218.871 436.056 218.599 435.933 218.364C435.81 218.124 435.643 217.937 435.432 217.802C435.221 217.667 434.957 217.6 434.641 217.6C434.33 217.6 434.069 217.667 433.858 217.802C433.653 217.937 433.489 218.124 433.366 218.364C433.243 218.599 433.155 218.871 433.103 219.182C433.05 219.486 433.023 219.812 433.023 220.157Z" fill="white"/>
<rect x="353" y="198" width="109" height="41" rx="3" stroke="#424242" stroke-width="4"/>
<rect x="486" y="198" width="102" height="41" rx="3" fill="#424242"/>
<path d="M519.932 212.203V225H516.855L512.329 217.037V225H509.244V212.203H512.329L516.855 220.166V212.203H519.932ZM526.348 225.176C525.574 225.176 524.883 225.056 524.273 224.815C523.664 224.569 523.148 224.232 522.727 223.805C522.311 223.377 521.991 222.885 521.769 222.328C521.552 221.771 521.443 221.183 521.443 220.562V220.228C521.443 219.53 521.54 218.886 521.733 218.294C521.927 217.696 522.214 217.175 522.595 216.729C522.976 216.284 523.453 215.938 524.027 215.692C524.602 215.44 525.27 215.314 526.031 215.314C526.705 215.314 527.309 215.423 527.842 215.64C528.375 215.856 528.826 216.167 529.195 216.571C529.57 216.976 529.854 217.465 530.048 218.039C530.247 218.613 530.347 219.258 530.347 219.973V221.177H522.577V219.322H527.455V219.094C527.461 218.777 527.405 218.508 527.288 218.285C527.177 218.062 527.013 217.893 526.796 217.775C526.579 217.658 526.315 217.6 526.005 217.6C525.683 217.6 525.416 217.67 525.205 217.811C525 217.951 524.839 218.145 524.722 218.391C524.61 218.631 524.531 218.909 524.484 219.226C524.438 219.542 524.414 219.876 524.414 220.228V220.562C524.414 220.913 524.461 221.232 524.555 221.52C524.654 221.807 524.795 222.053 524.977 222.258C525.164 222.457 525.387 222.612 525.645 222.724C525.908 222.835 526.207 222.891 526.541 222.891C526.945 222.891 527.344 222.814 527.736 222.662C528.129 222.51 528.466 222.258 528.747 221.906L530.092 223.506C529.898 223.781 529.623 224.048 529.266 224.306C528.914 224.563 528.492 224.774 528 224.938C527.508 225.097 526.957 225.176 526.348 225.176ZM534.064 215.49L535.4 218.109L536.78 215.49H539.856L537.36 220.122L539.988 225H536.886L535.4 222.188L533.924 225H530.821L533.449 220.122L530.962 215.49H534.064ZM545.842 215.49V217.547H540.111V215.49H545.842ZM541.315 213.126H544.277V221.897C544.277 222.149 544.307 222.346 544.365 222.486C544.424 222.621 544.523 222.718 544.664 222.776C544.811 222.829 545.004 222.855 545.244 222.855C545.414 222.855 545.555 222.853 545.666 222.847C545.777 222.835 545.883 222.82 545.982 222.803V224.921C545.73 225.003 545.467 225.064 545.191 225.105C544.916 225.152 544.623 225.176 544.312 225.176C543.68 225.176 543.138 225.076 542.687 224.877C542.241 224.678 541.901 224.364 541.667 223.937C541.433 223.509 541.315 222.952 541.315 222.267V213.126ZM547.213 223.611C547.213 223.189 547.365 222.838 547.67 222.557C547.975 222.27 548.367 222.126 548.848 222.126C549.334 222.126 549.727 222.27 550.025 222.557C550.33 222.838 550.482 223.189 550.482 223.611C550.482 224.033 550.33 224.388 550.025 224.675C549.727 224.956 549.334 225.097 548.848 225.097C548.367 225.097 547.975 224.956 547.67 224.675C547.365 224.388 547.213 224.033 547.213 223.611ZM552.688 215.49H555.659V225.308C555.659 226.069 555.513 226.711 555.22 227.232C554.927 227.76 554.508 228.158 553.963 228.428C553.418 228.703 552.768 228.841 552.012 228.841C551.76 228.841 551.528 228.829 551.317 228.806C551.101 228.788 550.863 228.75 550.605 228.691V226.45C550.758 226.474 550.898 226.491 551.027 226.503C551.156 226.521 551.297 226.529 551.449 226.529C551.719 226.529 551.944 226.485 552.126 226.397C552.308 226.31 552.445 226.175 552.539 225.993C552.639 225.812 552.688 225.583 552.688 225.308V215.49ZM552.469 213.038C552.469 212.616 552.621 212.271 552.926 212.001C553.23 211.731 553.626 211.597 554.112 211.597C554.599 211.597 554.994 211.731 555.299 212.001C555.604 212.271 555.756 212.616 555.756 213.038C555.756 213.46 555.604 213.806 555.299 214.075C554.994 214.345 554.599 214.479 554.112 214.479C553.626 214.479 553.23 214.345 552.926 214.075C552.621 213.806 552.469 213.46 552.469 213.038ZM562.321 222.328C562.321 222.164 562.266 222.023 562.154 221.906C562.049 221.783 561.861 221.672 561.592 221.572C561.322 221.467 560.944 221.361 560.458 221.256C559.995 221.156 559.559 221.024 559.148 220.86C558.744 220.696 558.39 220.497 558.085 220.263C557.78 220.028 557.54 219.75 557.364 219.428C557.194 219.105 557.109 218.736 557.109 218.32C557.109 217.916 557.194 217.535 557.364 217.178C557.54 216.814 557.795 216.495 558.129 216.22C558.469 215.938 558.882 215.719 559.368 215.561C559.854 215.396 560.408 215.314 561.029 215.314C561.885 215.314 562.623 215.446 563.244 215.71C563.865 215.968 564.343 216.331 564.677 216.8C565.017 217.263 565.187 217.799 565.187 218.408H562.225C562.225 218.168 562.184 217.963 562.102 217.793C562.025 217.623 561.899 217.494 561.724 217.406C561.548 217.312 561.313 217.266 561.021 217.266C560.815 217.266 560.628 217.304 560.458 217.38C560.294 217.456 560.162 217.562 560.062 217.696C559.963 217.831 559.913 217.989 559.913 218.171C559.913 218.3 559.942 218.417 560.001 218.522C560.065 218.622 560.162 218.716 560.291 218.804C560.42 218.886 560.584 218.962 560.783 219.032C560.982 219.097 561.223 219.155 561.504 219.208C562.143 219.325 562.74 219.492 563.297 219.709C563.854 219.926 564.305 220.233 564.65 220.632C565.002 221.03 565.178 221.566 565.178 222.24C565.178 222.662 565.081 223.052 564.888 223.409C564.694 223.761 564.416 224.071 564.053 224.341C563.689 224.604 563.253 224.81 562.743 224.956C562.233 225.103 561.659 225.176 561.021 225.176C560.112 225.176 559.345 225.015 558.718 224.692C558.091 224.364 557.616 223.954 557.294 223.462C556.978 222.964 556.819 222.46 556.819 221.95H559.579C559.591 222.243 559.661 222.483 559.79 222.671C559.925 222.858 560.104 222.996 560.326 223.084C560.549 223.172 560.807 223.216 561.1 223.216C561.369 223.216 561.592 223.178 561.768 223.102C561.949 223.025 562.087 222.923 562.181 222.794C562.274 222.659 562.321 222.504 562.321 222.328Z" fill="white"/>
<rect x="486" y="198" width="102" height="41" rx="3" stroke="#424242" stroke-width="4"/>
<rect x="608" y="198" width="103" height="41" rx="3" fill="#424242"/>
<path d="M632.72 212.203H635.233L638.09 221.106L640.946 212.203H643.46L639.109 225H637.07L632.72 212.203ZM631.19 212.203H633.792L634.275 222.012V225H631.19V212.203ZM642.388 212.203H644.998V225H641.904V222.012L642.388 212.203ZM649.753 223.884L652.214 215.49H655.396L651.572 226.415C651.49 226.655 651.382 226.913 651.247 227.188C651.112 227.47 650.928 227.736 650.693 227.988C650.459 228.24 650.157 228.445 649.788 228.604C649.425 228.762 648.974 228.841 648.435 228.841C648.147 228.841 647.937 228.826 647.802 228.797C647.673 228.773 647.474 228.729 647.204 228.665V226.547C647.28 226.547 647.345 226.547 647.397 226.547C647.456 226.547 647.521 226.547 647.591 226.547C647.907 226.547 648.159 226.515 648.347 226.45C648.54 226.386 648.687 226.292 648.786 226.169C648.892 226.046 648.974 225.896 649.032 225.721L649.753 223.884ZM649.129 215.49L651.001 222.144L651.326 225.281H649.34L645.956 215.49H649.129ZM662.901 221.599C662.901 221.399 662.872 221.221 662.813 221.062C662.755 220.898 662.646 220.746 662.488 220.605C662.33 220.465 662.102 220.324 661.803 220.184C661.51 220.037 661.123 219.885 660.643 219.727C660.08 219.539 659.538 219.328 659.017 219.094C658.495 218.854 658.029 218.575 657.619 218.259C657.209 217.937 656.884 217.562 656.644 217.134C656.403 216.7 656.283 216.196 656.283 215.622C656.283 215.071 656.406 214.576 656.652 214.137C656.898 213.691 657.241 213.313 657.681 213.003C658.126 212.687 658.647 212.446 659.245 212.282C659.843 212.112 660.496 212.027 661.205 212.027C662.143 212.027 662.969 212.191 663.684 212.52C664.404 212.842 664.967 213.302 665.371 213.899C665.781 214.491 665.986 215.191 665.986 216H662.919C662.919 215.678 662.852 215.394 662.717 215.147C662.588 214.901 662.392 214.708 662.128 214.567C661.864 214.427 661.533 214.356 661.135 214.356C660.748 214.356 660.423 214.415 660.159 214.532C659.896 214.649 659.696 214.808 659.562 215.007C659.427 215.2 659.359 215.414 659.359 215.648C659.359 215.842 659.412 216.018 659.518 216.176C659.629 216.328 659.784 216.472 659.983 216.606C660.188 216.741 660.435 216.87 660.722 216.993C661.015 217.116 661.343 217.236 661.706 217.354C662.386 217.57 662.989 217.813 663.517 218.083C664.05 218.347 664.498 218.648 664.861 218.988C665.23 219.322 665.509 219.703 665.696 220.131C665.89 220.559 665.986 221.042 665.986 221.581C665.986 222.155 665.875 222.665 665.652 223.11C665.43 223.556 665.11 223.934 664.694 224.244C664.278 224.549 663.78 224.78 663.2 224.938C662.62 225.097 661.973 225.176 661.258 225.176C660.602 225.176 659.954 225.094 659.315 224.93C658.683 224.76 658.108 224.502 657.593 224.156C657.077 223.805 656.664 223.356 656.354 222.812C656.049 222.261 655.896 221.607 655.896 220.852H658.99C658.99 221.227 659.04 221.543 659.14 221.801C659.239 222.059 659.386 222.267 659.579 222.425C659.772 222.577 660.01 222.688 660.291 222.759C660.572 222.823 660.895 222.855 661.258 222.855C661.65 222.855 661.967 222.8 662.207 222.688C662.447 222.571 662.623 222.419 662.734 222.231C662.846 222.038 662.901 221.827 662.901 221.599ZM674.714 222.891L678.282 225.721L676.366 227.338L672.859 224.508L674.714 222.891ZM678.432 218.347V218.865C678.432 219.844 678.294 220.723 678.019 221.502C677.749 222.275 677.362 222.938 676.858 223.488C676.36 224.033 675.771 224.452 675.092 224.745C674.412 225.032 673.662 225.176 672.842 225.176C672.016 225.176 671.26 225.032 670.574 224.745C669.895 224.452 669.303 224.033 668.799 223.488C668.301 222.938 667.914 222.275 667.639 221.502C667.369 220.723 667.234 219.844 667.234 218.865V218.347C667.234 217.368 667.369 216.489 667.639 215.71C667.914 214.931 668.298 214.269 668.79 213.724C669.288 213.173 669.877 212.754 670.557 212.467C671.242 212.174 671.998 212.027 672.824 212.027C673.645 212.027 674.395 212.174 675.074 212.467C675.76 212.754 676.352 213.173 676.85 213.724C677.354 214.269 677.743 214.931 678.019 215.71C678.294 216.489 678.432 217.368 678.432 218.347ZM675.294 218.865V218.329C675.294 217.696 675.238 217.14 675.127 216.659C675.021 216.173 674.863 215.766 674.652 215.438C674.441 215.109 674.181 214.863 673.87 214.699C673.565 214.529 673.217 214.444 672.824 214.444C672.414 214.444 672.057 214.529 671.752 214.699C671.447 214.863 671.192 215.109 670.987 215.438C670.782 215.766 670.627 216.173 670.521 216.659C670.422 217.14 670.372 217.696 670.372 218.329V218.865C670.372 219.492 670.422 220.049 670.521 220.535C670.627 221.016 670.782 221.423 670.987 221.757C671.198 222.091 671.456 222.343 671.761 222.513C672.071 222.683 672.432 222.768 672.842 222.768C673.234 222.768 673.583 222.683 673.888 222.513C674.192 222.343 674.447 222.091 674.652 221.757C674.863 221.423 675.021 221.016 675.127 220.535C675.238 220.049 675.294 219.492 675.294 218.865ZM688.46 222.627V225H681.991V222.627H688.46ZM683.09 212.203V225H680.005V212.203H683.09Z" fill="white"/>
<rect x="608" y="198" width="103" height="41" rx="3" stroke="#424242" stroke-width="4"/>
<rect x="731" y="198" width="131" height="41" rx="3" fill="#424242"/>
<path d="M760.359 212.203V225H757.274V212.203H760.359ZM764.209 212.203V214.585H753.513V212.203H764.209ZM767.575 223.884L770.036 215.49H773.218L769.395 226.415C769.312 226.655 769.204 226.913 769.069 227.188C768.935 227.47 768.75 227.736 768.516 227.988C768.281 228.24 767.979 228.445 767.61 228.604C767.247 228.762 766.796 228.841 766.257 228.841C765.97 228.841 765.759 228.826 765.624 228.797C765.495 228.773 765.296 228.729 765.026 228.665V226.547C765.103 226.547 765.167 226.547 765.22 226.547C765.278 226.547 765.343 226.547 765.413 226.547C765.729 226.547 765.981 226.515 766.169 226.45C766.362 226.386 766.509 226.292 766.608 226.169C766.714 226.046 766.796 225.896 766.854 225.721L767.575 223.884ZM766.951 215.49L768.823 222.144L769.148 225.281H767.162L763.778 215.49H766.951ZM776.979 217.318V228.656H774.018V215.49H776.777L776.979 217.318ZM782.815 220.131V220.315C782.815 221.007 782.736 221.648 782.578 222.24C782.42 222.832 782.186 223.348 781.875 223.787C781.564 224.227 781.178 224.569 780.715 224.815C780.258 225.056 779.728 225.176 779.124 225.176C778.556 225.176 778.066 225.05 777.656 224.798C777.246 224.546 776.903 224.197 776.628 223.752C776.353 223.307 776.13 222.797 775.96 222.223C775.79 221.648 775.655 221.042 775.556 220.403V220.166C775.655 219.48 775.79 218.845 775.96 218.259C776.13 217.667 776.353 217.151 776.628 216.712C776.903 216.272 777.243 215.93 777.647 215.684C778.058 215.438 778.547 215.314 779.115 215.314C779.719 215.314 780.249 215.429 780.706 215.657C781.169 215.886 781.556 216.214 781.866 216.642C782.183 217.063 782.42 217.57 782.578 218.162C782.736 218.754 782.815 219.41 782.815 220.131ZM779.854 220.315V220.131C779.854 219.762 779.827 219.425 779.774 219.12C779.722 218.81 779.637 218.54 779.52 218.312C779.408 218.083 779.259 217.907 779.071 217.784C778.884 217.661 778.652 217.6 778.377 217.6C778.061 217.6 777.794 217.649 777.577 217.749C777.366 217.843 777.196 217.989 777.067 218.188C776.944 218.382 776.856 218.625 776.804 218.918C776.757 219.205 776.736 219.542 776.742 219.929V220.649C776.73 221.095 776.774 221.487 776.874 221.827C776.974 222.161 777.146 222.422 777.393 222.609C777.639 222.797 777.973 222.891 778.395 222.891C778.676 222.891 778.91 222.826 779.098 222.697C779.285 222.562 779.435 222.378 779.546 222.144C779.657 221.903 779.736 221.628 779.783 221.317C779.83 221.007 779.854 220.673 779.854 220.315ZM788.739 225.176C787.966 225.176 787.274 225.056 786.665 224.815C786.056 224.569 785.54 224.232 785.118 223.805C784.702 223.377 784.383 222.885 784.16 222.328C783.943 221.771 783.835 221.183 783.835 220.562V220.228C783.835 219.53 783.932 218.886 784.125 218.294C784.318 217.696 784.605 217.175 784.986 216.729C785.367 216.284 785.845 215.938 786.419 215.692C786.993 215.44 787.661 215.314 788.423 215.314C789.097 215.314 789.7 215.423 790.233 215.64C790.767 215.856 791.218 216.167 791.587 216.571C791.962 216.976 792.246 217.465 792.439 218.039C792.639 218.613 792.738 219.258 792.738 219.973V221.177H784.969V219.322H789.847V219.094C789.853 218.777 789.797 218.508 789.68 218.285C789.568 218.062 789.404 217.893 789.188 217.775C788.971 217.658 788.707 217.6 788.396 217.6C788.074 217.6 787.808 217.67 787.597 217.811C787.392 217.951 787.23 218.145 787.113 218.391C787.002 218.631 786.923 218.909 786.876 219.226C786.829 219.542 786.806 219.876 786.806 220.228V220.562C786.806 220.913 786.853 221.232 786.946 221.52C787.046 221.807 787.187 222.053 787.368 222.258C787.556 222.457 787.778 222.612 788.036 222.724C788.3 222.835 788.599 222.891 788.933 222.891C789.337 222.891 789.735 222.814 790.128 222.662C790.521 222.51 790.857 222.258 791.139 221.906L792.483 223.506C792.29 223.781 792.015 224.048 791.657 224.306C791.306 224.563 790.884 224.774 790.392 224.938C789.899 225.097 789.349 225.176 788.739 225.176ZM798.926 222.328C798.926 222.164 798.87 222.023 798.759 221.906C798.653 221.783 798.466 221.672 798.196 221.572C797.927 221.467 797.549 221.361 797.062 221.256C796.6 221.156 796.163 221.024 795.753 220.86C795.349 220.696 794.994 220.497 794.689 220.263C794.385 220.028 794.145 219.75 793.969 219.428C793.799 219.105 793.714 218.736 793.714 218.32C793.714 217.916 793.799 217.535 793.969 217.178C794.145 216.814 794.399 216.495 794.733 216.22C795.073 215.938 795.486 215.719 795.973 215.561C796.459 215.396 797.013 215.314 797.634 215.314C798.489 215.314 799.228 215.446 799.849 215.71C800.47 215.968 800.947 216.331 801.281 216.8C801.621 217.263 801.791 217.799 801.791 218.408H798.829C798.829 218.168 798.788 217.963 798.706 217.793C798.63 217.623 798.504 217.494 798.328 217.406C798.152 217.312 797.918 217.266 797.625 217.266C797.42 217.266 797.232 217.304 797.062 217.38C796.898 217.456 796.767 217.562 796.667 217.696C796.567 217.831 796.518 217.989 796.518 218.171C796.518 218.3 796.547 218.417 796.605 218.522C796.67 218.622 796.767 218.716 796.896 218.804C797.024 218.886 797.188 218.962 797.388 219.032C797.587 219.097 797.827 219.155 798.108 219.208C798.747 219.325 799.345 219.492 799.901 219.709C800.458 219.926 800.909 220.233 801.255 220.632C801.606 221.03 801.782 221.566 801.782 222.24C801.782 222.662 801.686 223.052 801.492 223.409C801.299 223.761 801.021 224.071 800.657 224.341C800.294 224.604 799.857 224.81 799.348 224.956C798.838 225.103 798.264 225.176 797.625 225.176C796.717 225.176 795.949 225.015 795.322 224.692C794.695 224.364 794.221 223.954 793.898 223.462C793.582 222.964 793.424 222.46 793.424 221.95H796.184C796.195 222.243 796.266 222.483 796.395 222.671C796.529 222.858 796.708 222.996 796.931 223.084C797.153 223.172 797.411 223.216 797.704 223.216C797.974 223.216 798.196 223.178 798.372 223.102C798.554 223.025 798.691 222.923 798.785 222.794C798.879 222.659 798.926 222.504 798.926 222.328ZM807.188 222.891C807.463 222.891 807.697 222.841 807.891 222.741C808.09 222.636 808.239 222.489 808.339 222.302C808.444 222.108 808.494 221.877 808.488 221.607H811.274C811.28 222.322 811.104 222.949 810.747 223.488C810.396 224.021 809.915 224.438 809.306 224.736C808.702 225.029 808.02 225.176 807.258 225.176C806.514 225.176 805.863 225.056 805.307 224.815C804.75 224.569 804.284 224.229 803.909 223.796C803.54 223.356 803.262 222.844 803.074 222.258C802.893 221.672 802.802 221.036 802.802 220.351V220.148C802.802 219.463 802.893 218.827 803.074 218.241C803.262 217.649 803.54 217.137 803.909 216.703C804.284 216.264 804.747 215.924 805.298 215.684C805.854 215.438 806.502 215.314 807.24 215.314C808.031 215.314 808.729 215.464 809.332 215.763C809.941 216.062 810.419 216.495 810.765 217.063C811.11 217.632 811.28 218.32 811.274 219.129H808.488C808.494 218.842 808.45 218.584 808.356 218.355C808.263 218.127 808.116 217.945 807.917 217.811C807.724 217.67 807.475 217.6 807.17 217.6C806.865 217.6 806.619 217.667 806.432 217.802C806.244 217.937 806.101 218.124 806.001 218.364C805.907 218.599 805.843 218.868 805.808 219.173C805.778 219.478 805.764 219.803 805.764 220.148V220.351C805.764 220.702 805.778 221.033 805.808 221.344C805.843 221.648 805.91 221.918 806.01 222.152C806.109 222.381 806.253 222.562 806.44 222.697C806.628 222.826 806.877 222.891 807.188 222.891ZM815.528 217.846V225H812.566V215.49H815.335L815.528 217.846ZM818.341 215.42L818.288 218.171C818.171 218.159 818.013 218.145 817.813 218.127C817.614 218.109 817.447 218.101 817.312 218.101C816.967 218.101 816.668 218.142 816.416 218.224C816.17 218.3 815.965 218.417 815.801 218.575C815.643 218.728 815.525 218.921 815.449 219.155C815.379 219.39 815.347 219.662 815.353 219.973L814.816 219.621C814.816 218.982 814.878 218.402 815.001 217.881C815.13 217.354 815.312 216.899 815.546 216.519C815.78 216.132 816.064 215.836 816.398 215.631C816.732 215.42 817.107 215.314 817.523 215.314C817.67 215.314 817.813 215.323 817.954 215.341C818.101 215.358 818.229 215.385 818.341 215.42ZM822.489 215.49V225H819.519V215.49H822.489ZM819.343 213.038C819.343 212.616 819.495 212.271 819.8 212.001C820.104 211.731 820.5 211.597 820.986 211.597C821.473 211.597 821.868 211.731 822.173 212.001C822.478 212.271 822.63 212.616 822.63 213.038C822.63 213.46 822.478 213.806 822.173 214.075C821.868 214.345 821.473 214.479 820.986 214.479C820.5 214.479 820.104 214.345 819.8 214.075C819.495 213.806 819.343 213.46 819.343 213.038ZM827.306 217.318V228.656H824.344V215.49H827.104L827.306 217.318ZM833.142 220.131V220.315C833.142 221.007 833.062 221.648 832.904 222.24C832.746 222.832 832.512 223.348 832.201 223.787C831.891 224.227 831.504 224.569 831.041 224.815C830.584 225.056 830.054 225.176 829.45 225.176C828.882 225.176 828.393 225.05 827.982 224.798C827.572 224.546 827.229 224.197 826.954 223.752C826.679 223.307 826.456 222.797 826.286 222.223C826.116 221.648 825.981 221.042 825.882 220.403V220.166C825.981 219.48 826.116 218.845 826.286 218.259C826.456 217.667 826.679 217.151 826.954 216.712C827.229 216.272 827.569 215.93 827.974 215.684C828.384 215.438 828.873 215.314 829.441 215.314C830.045 215.314 830.575 215.429 831.032 215.657C831.495 215.886 831.882 216.214 832.192 216.642C832.509 217.063 832.746 217.57 832.904 218.162C833.062 218.754 833.142 219.41 833.142 220.131ZM830.18 220.315V220.131C830.18 219.762 830.153 219.425 830.101 219.12C830.048 218.81 829.963 218.54 829.846 218.312C829.734 218.083 829.585 217.907 829.397 217.784C829.21 217.661 828.979 217.6 828.703 217.6C828.387 217.6 828.12 217.649 827.903 217.749C827.692 217.843 827.522 217.989 827.394 218.188C827.271 218.382 827.183 218.625 827.13 218.918C827.083 219.205 827.062 219.542 827.068 219.929V220.649C827.057 221.095 827.101 221.487 827.2 221.827C827.3 222.161 827.473 222.422 827.719 222.609C827.965 222.797 828.299 222.891 828.721 222.891C829.002 222.891 829.236 222.826 829.424 222.697C829.611 222.562 829.761 222.378 829.872 222.144C829.983 221.903 830.062 221.628 830.109 221.317C830.156 221.007 830.18 220.673 830.18 220.315ZM839.47 215.49V217.547H833.739V215.49H839.47ZM834.943 213.126H837.905V221.897C837.905 222.149 837.935 222.346 837.993 222.486C838.052 222.621 838.151 222.718 838.292 222.776C838.438 222.829 838.632 222.855 838.872 222.855C839.042 222.855 839.183 222.853 839.294 222.847C839.405 222.835 839.511 222.82 839.61 222.803V224.921C839.358 225.003 839.095 225.064 838.819 225.105C838.544 225.152 838.251 225.176 837.94 225.176C837.308 225.176 836.766 225.076 836.314 224.877C835.869 224.678 835.529 224.364 835.295 223.937C835.061 223.509 834.943 222.952 834.943 222.267V213.126Z" fill="white"/>
<rect x="731" y="198" width="131" height="41" rx="3" stroke="#424242" stroke-width="4"/>
<g clip-path="url(#clip0_3_61)">
<path d="M1066 0H1348C1356.28 0 1363 6.71573 1363 15V284C1363 292.284 1356.28 299 1348 299H1066V0Z" fill="white"/>
<rect x="1064.5" y="-0.5" width="300" height="300" rx="41" fill="white"/>
<path d="M1289.84 192.87C1288.9 196.613 1290.01 206.282 1291.8 209.713C1292.74 211.397 1295.47 214.828 1297.86 217.199C1300.25 219.631 1302.82 222.813 1303.58 224.31C1306.4 230.174 1304.52 241.34 1298.97 251.009L1296.41 255.5L1300.68 254.377C1310.41 251.632 1320.06 246.018 1323.47 241.028C1330.47 230.735 1325.44 220.941 1307.34 209.9C1301.71 206.469 1297.1 201.604 1293.26 195.116L1290.44 190.5L1289.84 192.87Z" fill="#A6A6A6"/>
<path d="M1145.24 29.626C1143.05 29.9585 1143.08 31.7161 1145.48 36.6784C1148.03 41.9078 1147.96 42.7087 1144.82 44.9317C1142.81 46.3544 1141.75 46.3538 1138.72 44.7504C1136.73 43.7259 1132.99 42.4336 1130.37 41.8537C1126.23 40.9393 1124.79 41.2055 1120.6 43.8951C1117.89 45.6289 1113.85 49.5199 1111.58 52.6332C1107.83 57.6367 1107.08 59.5718 1105.02 68.9143C1103.03 77.9233 1102.89 80.4593 1103.95 86.1774C1104.6 89.9375 1106.3 95.2109 1107.6 97.948C1110.02 102.799 1118.03 112.97 1119.01 112.37C1119.26 112.192 1118.9 109.545 1118.28 106.608C1117.35 102.67 1117.45 98.8432 1118.7 91.7694C1120.24 82.8937 1120.68 81.8261 1124.66 76.756C1128.04 72.4864 1131.23 70.041 1139.59 65.7074C1145.57 62.5961 1151.47 58.8841 1152.72 57.5277C1156.16 53.9701 1158.05 44.9389 1156.46 39.6878C1154.58 33.3241 1149.47 28.694 1145.24 29.626Z" fill="#A6A6A6"/>
<path d="M1234.29 57.3584C1198.19 61.5759 1151.4 80.9945 1165.29 96.5C1167.85 99.6011 1197.33 109.457 1202.46 109.457C1202.46 109.457 1189.72 99.229 1191 96.5C1197.62 82.1109 1265.63 84.8399 1285.5 96.5C1327.5 109.457 1295.75 121.689 1285.5 130C1283.36 131.737 1261.85 137.491 1255.87 139.227C1245.61 142.204 1244.33 142.329 1197.33 142.329C1140.93 142.453 1135.81 143.197 1116.37 153.492C1094.58 165.277 1084.96 182.147 1093.72 193.063C1101.84 203.11 1125.77 214.026 1152.9 220.228C1171.05 224.57 1177.89 224.57 1165.29 220.352C1149.48 215.142 1137.73 208.816 1130.89 202.118C1125.55 196.66 1124.7 194.675 1125.34 189.093C1126.41 180.534 1134.95 173.34 1149.26 169.122C1159.52 166.021 1161.01 165.897 1209.08 165.649C1263.98 165.277 1280.43 163.912 1301.8 157.71C1345.59 145.057 1356 116.154 1332.5 87.5C1312.85 63.8076 1274.24 52.8928 1234.29 57.3584Z" fill="#A6A6A6"/>
<g clip-path="url(#clip1_3_61)">
<path d="M1209.89 68.7148V83.9297H1215.18H1220.48V68.7148V53.5H1215.18H1209.89V68.7148Z" fill="#FC0023"/>
<path d="M1165.69 67.0078C1163.17 68.4922 1161.16 69.8653 1161.2 70.0508C1161.27 70.459 1175.52 95.5078 1175.85 95.8789C1176.14 96.1758 1184.8 91.166 1184.98 90.6094C1185.09 90.3125 1171.21 65.375 1170.48 64.5586C1170.37 64.4102 1168.21 65.5235 1165.69 67.0078Z" fill="#FC0023"/>
<path d="M1252.62 77.25C1248.57 84.375 1245.2 90.3496 1245.2 90.498C1245.13 90.9433 1254.23 96.1758 1254.48 95.8789C1254.92 95.4336 1269.13 70.2734 1269.13 69.9394C1269.16 69.791 1267.78 68.8262 1266.1 67.8613C1264.42 66.8594 1262.33 65.6719 1261.49 65.1523L1260 64.2617L1252.62 77.25Z" fill="#FC0023"/>
<path d="M1131.84 99.5898C1131.22 100.592 1126.69 108.607 1126.76 108.682C1126.98 108.941 1152.29 123.637 1152.54 123.637C1152.73 123.637 1154.01 121.596 1155.43 119.072C1157.4 115.621 1157.88 114.434 1157.55 114.137C1157.22 113.84 1137.75 102.336 1132.38 99.2559C1132.24 99.1816 1132.02 99.3301 1131.84 99.5898Z" fill="#FC0023"/>
<path d="M1285.49 106.566C1278.55 110.648 1272.74 114.025 1272.52 114.1C1272.12 114.248 1277.05 123.228 1277.67 123.488C1277.93 123.6 1302.77 109.424 1303.61 108.644C1303.68 108.57 1298.6 99.7382 1298.31 99.4414C1298.2 99.2929 1292.39 102.484 1285.49 106.566Z" fill="#FC0023"/>
<path d="M1166.5 153.5C1166.5 126.99 1187.99 105.5 1214.5 105.5V105.5V220.5H1166.5V153.5Z" fill="#FC0023"/>
<path d="M1214.5 105.5V105.5C1241.01 105.5 1262.5 126.99 1262.5 153.5V220.5H1214.5V105.5Z" fill="#C9001C"/>
<rect x="1146.5" y="220.5" width="68" height="23" fill="#DCE6EB"/>
<rect x="1214.5" y="220.5" width="68" height="23" fill="#C8D2DC"/>
<path d="M1202.5 178.5C1202.5 171.873 1207.87 166.5 1214.5 166.5V166.5V220.5H1202.5V178.5Z" fill="#FF7037"/>
<path d="M1214.5 166.5V166.5C1221.13 166.5 1226.5 171.873 1226.5 178.5V220.5H1214.5V166.5Z" fill="#FC0023"/>
</g>
</g>
<defs>
<clipPath id="clip0_3_61">
<path d="M1066 0H1348C1356.28 0 1363 6.71573 1363 15V284C1363 292.284 1356.28 299 1348 299H1066V0Z" fill="white"/>
</clipPath>
<clipPath id="clip1_3_61">
<rect width="187" height="190" fill="white" transform="translate(1121.5 53.5)"/>
</clipPath>
</defs>
</svg>
