<svg width="1115" height="233" viewBox="0 0 1115 233" fill="none" xmlns="http://www.w3.org/2000/svg">
<path d="M199.341 170.37C198.403 174.113 199.512 183.782 201.305 187.213C202.244 188.897 204.975 192.328 207.365 194.699C209.755 197.131 212.316 200.313 213.084 201.81C215.901 207.674 214.023 218.84 208.475 228.509L205.914 233L210.182 231.877C219.912 229.132 229.558 223.518 232.972 218.528C239.971 208.235 234.935 198.441 216.839 187.4C211.206 183.969 206.597 179.104 202.756 172.616L199.939 168L199.341 170.37Z" fill="#A6A6A6"/>
<path d="M54.7389 7.12602C52.5488 7.45853 52.5837 9.21605 54.9793 14.1784C57.5276 19.4078 57.4564 20.2087 54.3193 22.4317C52.3115 23.8544 51.2533 23.8538 48.2211 22.2504C46.2251 21.2259 42.4891 19.9336 39.8656 19.3537C35.7286 18.4393 34.294 18.7055 30.1012 21.3951C27.3897 23.1289 23.3547 27.0199 21.0791 30.1332C17.3274 35.1367 16.5822 37.0718 14.5173 46.4143C12.5261 55.4233 12.3889 57.9593 13.4534 63.6774C14.1039 67.4375 15.7958 72.7109 17.0958 75.448C19.5161 80.2991 27.5337 90.4704 28.513 89.8702C28.764 89.6924 28.3966 87.0448 27.7758 84.1079C26.8471 80.1697 26.952 76.3432 28.198 69.2694C29.7364 60.3937 30.1841 59.3261 34.1622 54.256C37.54 49.9864 40.7263 47.541 49.0923 43.2074C55.0716 40.0961 60.972 36.3841 62.2243 35.0277C65.6564 31.4701 67.5467 22.4389 65.9557 17.1878C64.0814 10.8241 58.9666 6.19396 54.7389 7.12602Z" fill="#A6A6A6"/>
<path d="M143.789 34.8584C107.686 39.0759 60.901 58.4945 74.7869 74C77.3505 77.1011 106.831 86.9568 111.958 86.9568C111.958 86.9568 99.2182 76.729 100.5 74C107.122 59.6109 175.133 62.3399 195 74C237 86.9568 205.254 99.189 195 107.5C192.864 109.237 171.347 114.991 165.366 116.727C155.111 119.704 153.83 119.829 106.831 119.829C50.4332 119.953 45.3061 120.697 25.8659 130.992C4.07571 142.777 -5.53759 159.647 3.2212 170.563C11.3391 180.61 35.2655 191.526 62.3964 197.728C80.5549 202.07 87.391 202.07 74.7869 197.852C58.9784 192.642 47.2288 186.316 40.3926 179.618C35.0519 174.16 34.1974 172.175 34.8383 166.593C35.9064 158.034 44.4516 150.84 58.7647 146.622C69.0189 143.521 70.5143 143.397 118.581 143.149C173.484 142.777 189.933 141.412 211.296 135.21C255.09 122.557 265.499 93.6542 242 65C222.346 41.3076 183.738 30.3928 143.789 34.8584Z" fill="#A6A6A6"/>
<path d="M121.387 49.2148V64.4297H126.683H131.979V49.2148V34H126.683H121.387V49.2148Z" fill="#FC0023"/>
<path d="M77.1934 47.5078C74.6733 48.9922 72.6645 50.3653 72.701 50.5508C72.774 50.959 87.0182 76.0078 87.3469 76.3789C87.6391 76.6758 96.2951 71.666 96.4777 71.1094C96.5873 70.8125 82.7084 45.875 81.9779 45.0586C81.8684 44.9102 79.7135 46.0235 77.1934 47.5078Z" fill="#FC0023"/>
<path d="M164.119 57.75C160.065 64.875 156.705 70.8496 156.705 70.998C156.632 71.4433 165.726 76.6758 165.982 76.3789C166.42 75.9336 180.628 50.7734 180.628 50.4394C180.664 50.291 179.276 49.3262 177.596 48.3613C175.916 47.3594 173.834 46.1719 172.994 45.6523L171.497 44.7617L164.119 57.75Z" fill="#FC0023"/>
<path d="M43.3361 80.0898C42.7152 81.0918 38.1863 89.1074 38.2594 89.1816C38.4785 89.4414 63.7892 104.137 64.0449 104.137C64.2275 104.137 65.5058 102.096 66.9303 99.5723C68.9025 96.1211 69.3773 94.9336 69.0486 94.6367C68.7199 94.3398 49.2529 82.8359 43.884 79.7559C43.7379 79.6816 43.5187 79.8301 43.3361 80.0898Z" fill="#FC0023"/>
<path d="M196.99 87.0664C190.051 91.1484 184.244 94.5253 184.024 94.5996C183.623 94.748 188.553 103.728 189.174 103.988C189.43 104.1 214.266 89.9238 215.106 89.1445C215.179 89.0703 210.102 80.2382 209.81 79.9414C209.7 79.7929 203.893 82.9843 196.99 87.0664Z" fill="#FC0023"/>
<path d="M78 132C78 105.49 99.4903 84 126 84V84V189H78V132Z" fill="#FC0023"/>
<path d="M126 84V84C152.51 84 174 105.49 174 132V189H126V84Z" fill="#C9001C"/>
<rect x="58" y="189" width="68" height="23" fill="#DCE6EB"/>
<rect x="126" y="189" width="68" height="23" fill="#C8D2DC"/>
<path d="M114 147C114 140.373 119.373 135 126 135V135V189H114V147Z" fill="#FF7037"/>
<path d="M126 135V135C132.627 135 138 140.373 138 147V189H126V135Z" fill="#FC0023"/>
<path d="M282.59 172V85.2739H343.569V104.245H306.135V119.151H339.843V138.123H306.135V172H282.59ZM363.927 172H338.519L367.146 85.2739H399.329L427.956 172H402.547L383.576 109.157H382.899L363.927 172ZM359.184 137.784H406.952V155.4H359.184V137.784ZM422.99 104.245V85.2739H498.368V104.245H472.282V172H449.076V104.245H422.99ZM518.81 172H493.402L522.029 85.2739H554.212L582.839 172H557.431L538.459 109.157H537.782L518.81 172ZM514.068 137.784H561.835V155.4H514.068V137.784ZM591.192 172V85.2739H614.736V153.029H649.799V172H591.192Z" fill="#303030"/>
<path d="M664.229 172V85.2739H694.549C700.591 85.2739 705.574 86.3184 709.498 88.4075C713.422 90.4684 716.344 93.2492 718.264 96.7498C720.183 100.222 721.143 104.076 721.143 108.311C721.143 112.037 720.48 115.114 719.153 117.542C717.854 119.97 716.132 121.89 713.987 123.301C711.869 124.713 709.568 125.757 707.084 126.435V127.282C709.738 127.451 712.406 128.383 715.088 130.077C717.77 131.771 720.014 134.198 721.821 137.36C723.628 140.522 724.531 144.39 724.531 148.963C724.531 153.311 723.543 157.221 721.567 160.693C719.59 164.166 716.471 166.918 712.208 168.951C707.945 170.984 702.398 172 695.566 172H664.229ZM674.731 162.684H695.566C702.426 162.684 707.296 161.357 710.175 158.703C713.083 156.021 714.537 152.775 714.537 148.963C714.537 146.027 713.789 143.317 712.293 140.833C710.796 138.32 708.665 136.316 705.898 134.82C703.132 133.295 699.857 132.533 696.074 132.533H674.731V162.684ZM674.731 123.386H694.211C697.373 123.386 700.224 122.765 702.765 121.523C705.334 120.281 707.366 118.53 708.863 116.272C710.387 114.013 711.149 111.359 711.149 108.311C711.149 104.499 709.822 101.267 707.169 98.6131C704.515 95.9311 700.309 94.5902 694.549 94.5902H674.731V123.386ZM741.787 172V85.2739H771.091C777.867 85.2739 783.428 86.4314 787.776 88.7463C792.123 91.033 795.342 94.1808 797.431 98.1896C799.52 102.198 800.564 106.758 800.564 111.868C800.564 116.977 799.52 121.509 797.431 125.461C795.342 129.413 792.137 132.519 787.818 134.777C783.499 137.007 777.98 138.123 771.261 138.123H747.546V128.637H770.922C775.552 128.637 779.278 127.959 782.101 126.604C784.953 125.249 787.014 123.329 788.284 120.845C789.583 118.333 790.232 115.34 790.232 111.868C790.232 108.395 789.583 105.36 788.284 102.763C786.985 100.166 784.91 98.1614 782.059 96.7498C779.208 95.3101 775.439 94.5902 770.752 94.5902H752.289V172H741.787ZM782.609 133.041L803.952 172H791.756L770.752 133.041H782.609ZM818.064 172V85.2739H870.405V94.5902H828.566V123.894H867.695V133.21H828.566V162.684H871.082V172H818.064ZM892.891 172H881.881L913.726 85.2739H924.566L956.411 172H945.401L919.485 98.9942H918.807L892.891 172ZM896.956 138.123H941.336V147.439H896.956V138.123ZM955.045 94.5902V85.2739H1020.09V94.5902H992.819V172H982.317V94.5902H955.045ZM1036.3 172V85.2739H1046.8V123.894H1093.04V85.2739H1103.54V172H1093.04V133.21H1046.8V172H1036.3Z" fill="#626262"/>
</svg>
